<svg xmlns="http://www.w3.org/2000/svg" viewBox="0 0 229.5 29.5">
  <rect style="opacity:1;fill:#e6e6e6;fill-opacity:1;stroke:#09160a;stroke-width:.5;stroke-linecap:round;stroke-linejoin:round;stroke-miterlimit:6.5999999;stroke-dasharray:none;stroke-dashoffset:0;stroke-opacity:.69346732;paint-order:normal" width="228.5" height="28.5" x=".5" y=".5" ry="1" rx="1.2"/>
  <path class="port port-02" style="fill:#fdfdf1;stroke:#000;stroke-width:.40000001" d="M8.4 9v1H6.7v5h7v-5H12V9Z"/>
  <path class="port port-01" style="fill:#fdfdf1;stroke:#000;stroke-width:.40000001" d="M12 22.9v-1h1.7v-5h-7v5h1.8v1z"/>
  <path class="port port-04" style="fill:#fdfdf1;stroke:#000;stroke-width:.40000001" d="M17.1 9v1h-1.7v5h7v-5h-1.7V9Z"/>
  <path class="port port-03" style="fill:#fdfdf1;stroke:#000;stroke-width:.40000001" d="M20.7 22.9v-1h1.7v-5h-7v5h1.8v1z"/>
  <path class="port port-06" style="fill:#fdfdf1;stroke:#000;stroke-width:.40000001" d="M25.8 9v1h-1.7v5h7v-5h-1.7V9Z"/>
  <path class="port port-05" style="fill:#fdfdf1;stroke:#000;stroke-width:.40000001" d="M29.4 22.9v-1h1.7v-5h-7v5h1.8v1z"/>
  <path class="port port-08" style="fill:#fdfdf1;stroke:#000;stroke-width:.40000001" d="M34.5 9v1h-1.7v5h7v-5h-1.7V9Z"/>
  <path class="port port-07" style="fill:#fdfdf1;stroke:#000;stroke-width:.40000001" d="M38.1 22.9v-1h1.7v-5h-7v5h1.8v1z"/>
  <path class="port port-10" style="fill:#fdfdf1;stroke:#000;stroke-width:.40000001" d="M43.2 9v1h-1.7v5h7v-5h-1.7V9Z"/>
  <path class="port port-09" style="fill:#fdfdf1;stroke:#000;stroke-width:.40000001" d="M46.8 22.9v-1h1.7v-5h-7v5h1.8v1z"/>
  <path class="port port-12" style="fill:#fdfdf1;stroke:#000;stroke-width:.40000001" d="M51.9 9v1h-1.7v5h7v-5h-1.7V9Z"/>
  <path class="port port-11" style="fill:#fdfdf1;stroke:#000;stroke-width:.40000001" d="M55.5 22.9v-1h1.7v-5h-7v5H52v1z"/>
  <path class="port port-14" style="fill:#fdfdf1;stroke:#000;stroke-width:.40000001" d="M64.4 9v1h-1.7v5h7v-5H68V9Z"/>
  <path class="port port-13" style="fill:#fdfdf1;stroke:#000;stroke-width:.40000001" d="M68 22.9v-1h1.8v-5h-7v5h1.7v1z"/>
  <path class="port port-16" style="fill:#fdfdf1;stroke:#000;stroke-width:.40000001" d="M73.1 9v1h-1.7v5h7v-5h-1.7V9Z"/>
  <path class="port port-15" style="fill:#fdfdf1;stroke:#000;stroke-width:.40000001" d="M76.7 22.9v-1h1.8v-5h-7v5h1.7v1z"/>
  <path class="port port-18" style="fill:#fdfdf1;stroke:#000;stroke-width:.40000001" d="M81.8 9v1h-1.7v5h7v-5h-1.7V9Z"/>
  <path class="port port-17" style="fill:#fdfdf1;stroke:#000;stroke-width:.40000001" d="M85.4 22.9v-1h1.8v-5h-7v5h1.7v1z"/>
  <path class="port port-20" style="fill:#fdfdf1;stroke:#000;stroke-width:.40000001" d="M90.5 9v1h-1.7v5h7v-5h-1.7V9Z"/>
  <path class="port port-19" style="fill:#fdfdf1;stroke:#000;stroke-width:.40000001" d="M94.1 22.9v-1H96v-5h-7v5h1.7v1z"/>
  <path class="port port-22" style="fill:#fdfdf1;stroke:#000;stroke-width:.40000001" d="M99.2 9v1h-1.7v5h7v-5h-1.7V9Z"/>
  <path class="port port-21" style="fill:#fdfdf1;stroke:#000;stroke-width:.40000001" d="M102.8 22.9v-1h1.8v-5h-7v5h1.7v1z"/>
  <path class="port port-24" style="fill:#fdfdf1;stroke:#000;stroke-width:.40000001" d="M108 9v1h-1.8v5h7v-5h-1.7V9Z"/>
  <path class="port port-23" style="fill:#fdfdf1;stroke:#000;stroke-width:.40000001" d="M111.5 22.9v-1h1.8v-5h-7v5h1.7v1z"/>
  <path class="port port-25" style="fill:#fdfdf1;stroke:#000;stroke-width:.40000001" d="M120.5 17.1v5h4.6v-.7h.5v.7h4.6v-5h-4.6v.5h-.5v-.5z"/>
  <path class="port port-27" style="fill:#fdfdf1;stroke:#000;stroke-width:.40000001" d="M144 17.1v5h4.5v-.7h.6v.7h4.5v-5h-4.5v.5h-.6v-.5z"/>
  <path class="port port-26" style="fill:#fdfdf1;stroke:#000;stroke-width:.40000001" d="M132.2 17.1v5h4.6v-.7h.5v.7h4.6v-5h-4.6v.5h-.5v-.5z"/>
  <path class="port port-28" style="fill:#fdfdf1;stroke:#000;stroke-width:.40000001" d="M155.7 17.1v5h4.6v-.7h.5v.7h4.6v-5h-4.6v.5h-.5v-.5z"/>
  <path style="opacity:1;fill:#dabc6b;fill-opacity:1;stroke:#1818e8;stroke-width:0;stroke-linecap:round;stroke-linejoin:round;stroke-miterlimit:6.5999999;stroke-dasharray:none;stroke-dashoffset:0;stroke-opacity:1;paint-order:normal" d="M6.1 4.4H114v2.3H6.1Z"/>
  <text style="font-size:11.99997044px;stroke-width:.9999975" xml:space="preserve" x="9.6" y="6.576" transform="scale(.9627 1.03874)"><tspan x="9.6" y="6.576" style="font-weight:700;font-size:2.63999343px;stroke-width:.9999975">2</tspan></text>
  <text style="font-size:11.99997044px;stroke-width:.9999975" xml:space="preserve" x="18.7" y="6.576" transform="scale(.9627 1.03874)"><tspan x="18.7" y="6.576" style="font-weight:700;font-size:2.63999343px;stroke-width:.9999975">4</tspan></text>
  <text style="font-size:11.99997044px;stroke-width:.9999975" xml:space="preserve" x="27.7" y="6.576" transform="scale(.9627 1.03874)"><tspan x="27.7" y="6.576" style="font-weight:700;font-size:2.63999343px;stroke-width:.9999975">6</tspan></text>
  <text style="font-size:11.99997044px;stroke-width:.9999975" xml:space="preserve" x="36.8" y="6.576" transform="scale(.9627 1.03874)"><tspan x="36.8" y="6.576" style="font-weight:700;font-size:2.63999343px;stroke-width:.9999975">8</tspan></text>
  <text style="font-size:11.99997044px;stroke-width:.9999975" xml:space="preserve" x="44.8" y="6.576" transform="scale(.9627 1.03874)"><tspan x="44.8" y="6.576" style="font-weight:700;font-size:2.63999343px;stroke-width:.9999975">10</tspan></text>
  <text style="font-size:11.99997044px;stroke-width:.9999975" xml:space="preserve" x="53.8" y="6.576" transform="scale(.9627 1.03874)"><tspan x="53.8" y="6.576" style="font-weight:700;font-size:2.63999343px;stroke-width:.9999975">12</tspan></text>
  <text style="font-size:11.99997044px;stroke-width:.9999975" xml:space="preserve" x="66.8" y="6.576" transform="scale(.9627 1.03874)"><tspan x="66.8" y="6.576" style="font-weight:700;font-size:2.63999343px;stroke-width:.9999975">14</tspan></text>
  <text style="font-size:11.99997044px;stroke-width:.9999975" xml:space="preserve" x="75.9" y="6.576" transform="scale(.9627 1.03874)"><tspan x="75.9" y="6.576" style="font-weight:700;font-size:2.63999343px;stroke-width:.9999975">16</tspan></text>
  <text xml:space="preserve" x="78.9" y="6.991" transform="scale(1.03405 .96707)"><tspan x="78.9" y="6.991" style="font-weight:700;font-size:2.6400001px">18</tspan></text>
  <text style="font-size:11.99997044px;stroke-width:.9999975" xml:space="preserve" x="94" y="6.576" transform="scale(.9627 1.03874)"><tspan x="94" y="6.576" style="font-weight:700;font-size:2.63999343px;stroke-width:.9999975">20</tspan></text>
  <text style="font-size:11.99997044px;stroke-width:.9999975" xml:space="preserve" x="103" y="6.576" transform="scale(.9627 1.03874)"><tspan x="103" y="6.576" style="font-weight:700;font-size:2.63999343px;stroke-width:.9999975">22</tspan></text>
  <text style="font-size:11.99997044px;stroke-width:.9999975" xml:space="preserve" x="112.1" y="6.576" transform="scale(.9627 1.03874)"><tspan x="112.1" y="6.576" style="font-weight:700;font-size:2.63999343px;stroke-width:.9999975">24</tspan></text>
  <text style="font-size:11.99997044px;stroke-width:.9999975" xml:space="preserve" x="9.6" y="25.776" transform="scale(.9627 1.03874)"><tspan x="9.6" y="25.776" style="font-weight:700;font-size:2.63999343px;stroke-width:.9999975">1</tspan></text>
  <text style="font-size:11.99997044px;stroke-width:.9999975" xml:space="preserve" x="18.7" y="25.776" transform="scale(.9627 1.03874)"><tspan x="18.7" y="25.776" style="font-weight:700;font-size:2.63999343px;stroke-width:.9999975">3</tspan></text>
  <text style="font-size:11.99997044px;stroke-width:.9999975" xml:space="preserve" x="27.7" y="25.676" transform="scale(.9627 1.03874)"><tspan x="27.7" y="25.676" style="font-weight:700;font-size:2.63999343px;stroke-width:.9999975">5</tspan></text>
  <text style="font-size:11.99997044px;stroke-width:.9999975" xml:space="preserve" x="36.8" y="25.776" transform="scale(.9627 1.03874)"><tspan x="36.8" y="25.776" style="font-weight:700;font-size:2.63999343px;stroke-width:.9999975">7</tspan></text>
  <text style="font-size:11.99997044px;stroke-width:.9999975" xml:space="preserve" x="45.8" y="25.776" transform="scale(.9627 1.03874)"><tspan x="45.8" y="25.776" style="font-weight:700;font-size:2.63999343px;stroke-width:.9999975">9</tspan></text>
  <text style="font-size:11.99997044px;stroke-width:.9999975" xml:space="preserve" x="53.9" y="25.776" transform="scale(.9627 1.03874)"><tspan x="53.9" y="25.776" style="font-weight:700;font-size:2.63999343px;stroke-width:.9999975">11</tspan></text>
  <text style="font-size:11.99997044px;stroke-width:.9999975" xml:space="preserve" x="66.9" y="25.776" transform="scale(.9627 1.03874)"><tspan x="66.9" y="25.776" style="font-weight:700;font-size:2.63999343px;stroke-width:.9999975">13</tspan></text>
  <text style="font-size:11.99997044px;stroke-width:.9999975" xml:space="preserve" x="75.9" y="25.676" transform="scale(.9627 1.03874)"><tspan x="75.9" y="25.676" style="font-weight:700;font-size:2.63999343px;stroke-width:.9999975">15</tspan></text>
  <text style="font-size:11.99997044px;stroke-width:.9999975" xml:space="preserve" x="84.9" y="25.776" transform="scale(.9627 1.03874)"><tspan x="84.9" y="25.776" style="font-weight:700;font-size:2.63999343px;stroke-width:.9999975">17</tspan></text>
  <text style="font-size:11.99997044px;stroke-width:.9999975" xml:space="preserve" x="94" y="25.776" transform="scale(.9627 1.03874)"><tspan x="94" y="25.776" style="font-weight:700;font-size:2.63999343px;stroke-width:.9999975">19</tspan></text>
  <text style="font-size:11.99997044px;stroke-width:.9999975" xml:space="preserve" x="103.1" y="25.776" transform="scale(.9627 1.03874)"><tspan x="103.1" y="25.776" style="font-weight:700;font-size:2.63999343px;stroke-width:.9999975">21</tspan></text>
  <text style="font-size:11.99997044px;stroke-width:.9999975" xml:space="preserve" x="112.1" y="25.776" transform="scale(.9627 1.03874)"><tspan x="112.1" y="25.776" style="font-weight:700;font-size:2.63999343px;stroke-width:.9999975">23</tspan></text>
  <text xml:space="preserve" style="font-style:normal;font-variant:normal;font-weight:700;font-stretch:normal;font-size:8.46666622px;line-height:16.25;font-family:'Headline R';-inkscape-font-specification:'Headline R Bold';font-variant-ligatures:normal;font-variant-caps:normal;font-variant-numeric:normal;font-feature-settings:normal;text-align:end;writing-mode:lr-tb;text-anchor:end;opacity:1;fill:#2c4cc8;fill-opacity:1;stroke:#2c4cc8;stroke-width:.40000001;stroke-linecap:round;stroke-linejoin:round;stroke-miterlimit:6.5999999;stroke-dasharray:none;stroke-dashoffset:0;stroke-opacity:1;paint-order:normal" x="225.4" y="6.3"><tspan x="225.4" y="6.3" style="font-style:normal;font-variant:normal;font-weight:700;font-stretch:normal;font-size:4.23333311px;font-family:'고딕체';-inkscape-font-specification:'고딕체 Bold';fill:#2f52b6;fill-opacity:1;stroke:#2f52b6;stroke-width:.40000001;stroke-linejoin:round;stroke-miterlimit:6.5999999;stroke-dasharray:none;stroke-opacity:1"><tspan style="font-size:5.64444447px">C</tspan>ORE <tspan style="font-size:5.64444447px">E</tspan>DGE</tspan></text>
  <text xml:space="preserve" style="font-style:normal;font-variant:normal;font-weight:700;font-stretch:normal;font-size:8.46666622px;line-height:16.25;font-family:'Headline R';-inkscape-font-specification:'Headline R Bold';font-variant-ligatures:normal;font-variant-caps:normal;font-variant-numeric:normal;font-feature-settings:normal;text-align:end;writing-mode:lr-tb;text-anchor:end;opacity:1;fill:#2c4cc8;fill-opacity:1;stroke:#2c4cc8;stroke-width:.40000001;stroke-linecap:round;stroke-linejoin:round;stroke-miterlimit:6.5999999;stroke-dasharray:none;stroke-dashoffset:0;stroke-opacity:1;paint-order:normal" x="226.2" y="11.3"><tspan x="226.2" y="11.3" style="font-style:normal;font-variant:normal;font-weight:700;font-stretch:normal;font-size:3.52777767px;font-family:'고딕체';-inkscape-font-specification:'고딕체 Bold';fill:#2f52b6;fill-opacity:1;stroke:#2f52b6;stroke-width:.40000001;stroke-linejoin:round;stroke-miterlimit:6.5999999;stroke-dasharray:none;stroke-opacity:1">C3100-24TL</tspan></text>
  <rect style="fill:#00aad4;stroke-width:.26458332" width="45.4" height="2.3" x="119.9" y="13.2" rx="1.3" ry=".6"/>
  <text xml:space="preserve" x="119.3" y="15.491" transform="scale(1.03405 .96707)"> <tspan x="119.3" y="15.491" style="font-weight:700;font-size:2.6400001px">25</tspan></text>
  <text style="font-size:11.99997044px;stroke-width:.9999975" xml:space="preserve" x="140.4" y="14.476" transform="scale(.9627 1.03874)">    <tspan x="140.4" y="14.476" style="font-weight:700;font-size:2.63999343px;stroke-width:.9999975">26</tspan></text>
  <text style="font-size:11.99997044px;stroke-width:.9999975" xml:space="preserve" x="152.6" y="14.476" transform="scale(.9627 1.03874)">    <tspan x="152.6" y="14.476" style="font-weight:700;font-size:2.63999343px;stroke-width:.9999975">27</tspan></text>
  <text style="font-size:11.99997044px;stroke-width:.9999975" xml:space="preserve" x="164.8" y="14.876" transform="scale(.9627 1.03874)">  <tspan x="164.8" y="14.876" style="font-weight:700;font-size:2.63999343px;stroke-width:.9999975">28</tspan></text>
  <rect style="opacity:1;fill:#fd5;fill-opacity:.98969074;stroke:#090a0e;stroke-width:0;stroke-linecap:round;stroke-linejoin:round;stroke-miterlimit:6.5999999;stroke-dasharray:none;stroke-dashoffset:0;stroke-opacity:1;paint-order:normal" width="50.2" height="7.7" x="139.8" y="3" rx=".1" ry=".7"/>
  <text xml:space="preserve" style="font-style:normal;font-weight:400;font-size:7.48945618px;line-height:1.25;font-family:sans-serif;letter-spacing:0;word-spacing:0;fill:#000;fill-opacity:1;stroke:none;stroke-width:.26458266" x="145.1" y="8.688" transform="scale(.98845 1.01168)"><tspan x="145.1" y="8.688" style="font-size:5.64443064px;stroke-width:.26458266">4단계_L2 스위치</tspan></text>
</svg>