<svg xmlns="http://www.w3.org/2000/svg" viewBox="0 0 229.5 29.5">
  <rect style="opacity:1;fill:#20a7ee;fill-opacity:1;stroke:#09160a;stroke-width:.5;stroke-linecap:round;stroke-linejoin:round;stroke-miterlimit:6.5999999;stroke-dasharray:none;stroke-dashoffset:0;stroke-opacity:.69346732;paint-order:normal" width="228.5" height="28.5" x=".5" y=".5" ry="1" rx="1.2"/>
  <path style="fill:#666f93;stroke-width:0;stroke-linecap:round;stroke-linejoin:round;stroke-miterlimit:6.5999999" d="M112.7.2v8.2a1 1 0 1 0 2 0V.2Z"/>
  <path style="fill:#666f93;stroke-width:0;stroke-linecap:round;stroke-linejoin:round;stroke-miterlimit:6.5999999" d="m116 .2-.1 1v7.2a1 1 0 1 0 2 0V1.2l-.1-1z"/>
  <path style="fill:#666f93;stroke-width:0;stroke-linecap:round;stroke-linejoin:round;stroke-miterlimit:6.5999999" d="M119.1.2v8.2a1 1 0 1 0 2 0V1.2l-.1-1z"/>
  <path style="fill:#666f93;stroke-width:0;stroke-linecap:round;stroke-linejoin:round;stroke-miterlimit:6.5999999" d="M122.3.2v8.2a1 1 0 1 0 2 0V1.2l-.1-1z"/>
  <path style="fill:#666f93;stroke-width:0;stroke-linecap:round;stroke-linejoin:round;stroke-miterlimit:6.5999999" d="M125.5.2v8.2a1 1 0 1 0 1.9 0V.2Z"/>
  <path style="fill:#666f93;stroke-width:0;stroke-linecap:round;stroke-linejoin:round;stroke-miterlimit:6.5999999" d="M128.6.2v8.2a1 1 0 1 0 2 0V.2Z"/>
  <path style="fill:#666f93;stroke-width:0;stroke-linecap:round;stroke-linejoin:round;stroke-miterlimit:6.5999999" d="M131.8.2v8.2a1 1 0 1 0 2 0V.2Z"/>
  <path style="fill:#666f93;stroke-width:0;stroke-linecap:round;stroke-linejoin:round;stroke-miterlimit:6.5999999" d="M135 .2v8.2a1 1 0 1 0 2 0V1.2l-.1-1z"/>
  <path style="fill:#666f93;stroke-width:0;stroke-linecap:round;stroke-linejoin:round;stroke-miterlimit:6.5999999" d="M138.2.2v8.2a1 1 0 1 0 2 0V1.2l-.1-1z"/>
  <path style="fill:#666f93;stroke-width:0;stroke-linecap:round;stroke-linejoin:round;stroke-miterlimit:6.5999999" d="M141.4.2v8.2a1 1 0 1 0 2 0V1.2l-.1-1z"/>
  <path style="fill:#666f93;stroke-width:0;stroke-linecap:round;stroke-linejoin:round;stroke-miterlimit:6.5999999" d="M144.6.2v8.2a1 1 0 1 0 1.9 0V.2Z"/>
  <path style="fill:#666f93;stroke-width:0;stroke-linecap:round;stroke-linejoin:round;stroke-miterlimit:6.5999999" d="M147.7.2v8.2a1 1 0 1 0 2 0V.2Z"/>
  <path style="fill:#666f93;stroke-width:0;stroke-linecap:round;stroke-linejoin:round;stroke-miterlimit:6.5999999" d="m151 .2-.1 1v7.2a1 1 0 1 0 2 0V1.2l-.1-1z"/>
  <path style="fill:#666f93;stroke-width:0;stroke-linecap:round;stroke-linejoin:round;stroke-miterlimit:6.5999999" d="M154.1.2v8.2a1 1 0 1 0 2 0V1.2l-.1-1z"/>
  <path style="fill:#666f93;stroke-width:0;stroke-linecap:round;stroke-linejoin:round;stroke-miterlimit:6.5999999" d="M157.3.2v8.2a1 1 0 1 0 2 0V1.2l-.1-1z"/>
  <path style="fill:#666f93;stroke-width:0;stroke-linecap:round;stroke-linejoin:round;stroke-miterlimit:6.5999999" d="M160.5.2v8.2a1 1 0 1 0 1.9 0V.2Z"/>
  <path style="fill:#666f93;stroke-width:0;stroke-linecap:round;stroke-linejoin:round;stroke-miterlimit:6.5999999" d="M163.6.2v8.2a1 1 0 1 0 2 0V.2Z"/>
  <path style="fill:#666f93;stroke-width:0;stroke-linecap:round;stroke-linejoin:round;stroke-miterlimit:6.5999999" d="M173.2.2v8.2a1 1 0 1 0 2 0V1.2l-.1-1z"/>
  <path style="fill:#666f93;stroke-width:0;stroke-linecap:round;stroke-linejoin:round;stroke-miterlimit:6.5999999" d="M176.4.2v8.2a1 1 0 1 0 2 0V1.2l-.1-1z"/>
  <path style="fill:#666f93;stroke-width:0;stroke-linecap:round;stroke-linejoin:round;stroke-miterlimit:6.5999999" d="M179.6.2v8.2a1 1 0 1 0 1.9 0V.2Z"/>
  <path style="fill:#666f93;stroke-width:0;stroke-linecap:round;stroke-linejoin:round;stroke-miterlimit:6.5999999" d="M182.7.2v8.2a1 1 0 1 0 2 0V.2Z"/>
  <path style="fill:#666f93;stroke-width:0;stroke-linecap:round;stroke-linejoin:round;stroke-miterlimit:6.5999999" d="m186 .2-.1 1v7.2a1 1 0 1 0 2 0V.2Z"/>
  <path style="fill:#666f93;stroke-width:0;stroke-linecap:round;stroke-linejoin:round;stroke-miterlimit:6.5999999" d="M189.1.2v8.2a1 1 0 1 0 2 0V1.2l-.1-1z"/>
  <path style="fill:#666f93;stroke-width:0;stroke-linecap:round;stroke-linejoin:round;stroke-miterlimit:6.5999999" d="M192.3.2v8.2a1 1 0 1 0 2 0V1.2l-.1-1z"/>
  <path style="fill:#666f93;stroke-width:0;stroke-linecap:round;stroke-linejoin:round;stroke-miterlimit:6.5999999" d="M195.5.2v8.2a1 1 0 1 0 1.9 0V.2Z"/>
  <path style="fill:#666f93;stroke-width:0;stroke-linecap:round;stroke-linejoin:round;stroke-miterlimit:6.5999999" d="M198.6.2v8.2a1 1 0 1 0 2 0V.2Z"/>
  <path style="fill:#666f93;stroke-width:0;stroke-linecap:round;stroke-linejoin:round;stroke-miterlimit:6.5999999" d="M201.8.2v8.2a1 1 0 1 0 2 0V.2Z"/>
  <path style="fill:#666f93;stroke-width:0;stroke-linecap:round;stroke-linejoin:round;stroke-miterlimit:6.5999999" d="M205 .2v8.2a1 1 0 1 0 2 0V1.2l-.1-1z"/>
  <path style="fill:#666f93;stroke-width:0;stroke-linecap:round;stroke-linejoin:round;stroke-miterlimit:6.5999999" d="M208.2.2v8.2a1 1 0 1 0 2 0V1.2l-.1-1z"/>
  <path style="fill:#666f93;stroke-width:0;stroke-linecap:round;stroke-linejoin:round;stroke-miterlimit:6.5999999" d="M211.4.2v8.2a1 1 0 1 0 2 0V1.2l-.1-1z"/>
  <path style="fill:#666f93;stroke-width:0;stroke-linecap:round;stroke-linejoin:round;stroke-miterlimit:6.5999999" d="M214.6.2v8.2a1 1 0 1 0 1.9 0V.2Z"/>
  <path style="fill:#666f93;stroke-width:0;stroke-linecap:round;stroke-linejoin:round;stroke-miterlimit:6.5999999" d="M217.7.2v8.2a1 1 0 1 0 2 0V.2Z"/>
  <path style="fill:#666f93;stroke-width:0;stroke-linecap:round;stroke-linejoin:round;stroke-miterlimit:6.5999999" d="m221 .2-.1 1v7.2a1 1 0 1 0 2 0V.2Z"/>
  <path style="fill:#666f93;stroke-width:0;stroke-linecap:round;stroke-linejoin:round;stroke-miterlimit:6.5999999" d="M224.1.2v8.2a1 1 0 1 0 2 0V1.2l-.1-1z"/>
  <path style="opacity:1;fill:#a2e2ce;fill-opacity:.52061857;stroke:#090a0e;stroke-width:0;stroke-linecap:round;stroke-linejoin:round;stroke-miterlimit:6.5999999;stroke-dasharray:none;stroke-dashoffset:0;stroke-opacity:1;paint-order:normal" d="m55.8.7-27.3 28 35.8.1 10.4-10.5-.2-11.6L79.8.4l-24 .3s0 0 0 0z"/>
  <rect style="opacity:1;fill:#9ba9c3;fill-opacity:.98969074;stroke:#090a0e;stroke-width:0;stroke-linecap:round;stroke-linejoin:round;stroke-miterlimit:6.5999999;stroke-dasharray:none;stroke-dashoffset:0;stroke-opacity:1;paint-order:normal" width="36" height="11.2" x="19.1" y="10" rx="0" ry="1"/>
  <text style="font-size:11.99997044px;stroke-width:.9999975" xml:space="preserve" x="117.9" y="15.576" transform="scale(.9627 1.03874)"><tspan x="117.9" y="15.576" style="font-weight:700;font-size:2.63999343px;stroke-width:.9999975">1</tspan></text>
  <text style="font-size:11.99997044px;stroke-width:.9999975" xml:space="preserve" x="125.8" y="15.576" transform="scale(.9627 1.03874)"><tspan x="125.8" y="15.576" style="font-weight:700;font-size:2.63999343px;stroke-width:.9999975">2</tspan></text>
  <text style="font-size:11.99997044px;stroke-width:.9999975" xml:space="preserve" x="133.8" y="15.476" transform="scale(.9627 1.03874)"><tspan x="133.8" y="15.476" style="font-weight:700;font-size:2.63999343px;stroke-width:.9999975">3</tspan></text>
  <text style="font-size:11.99997044px;stroke-width:.9999975" xml:space="preserve" x="141.8" y="15.476" transform="scale(.9627 1.03874)"><tspan x="141.8" y="15.476" style="font-weight:700;font-size:2.63999343px;stroke-width:.9999975">4</tspan></text>
  <text style="font-size:11.99997044px;stroke-width:.9999975" xml:space="preserve" x="157.9" y="15.476" transform="scale(.9627 1.03874)"><tspan x="157.9" y="15.476" style="font-weight:700;font-size:2.63999343px;stroke-width:.9999975">5</tspan></text>
  <text style="font-size:11.99997044px;stroke-width:.9999975" xml:space="preserve" x="165.8" y="15.476" transform="scale(.9627 1.03874)"><tspan x="165.8" y="15.476" style="font-weight:700;font-size:2.63999343px;stroke-width:.9999975">6</tspan></text>
  <text style="font-size:11.99997044px;stroke-width:.9999975" xml:space="preserve" x="173.7" y="15.476" transform="scale(.9627 1.03874)"><tspan x="173.7" y="15.476" style="font-weight:700;font-size:2.63999343px;stroke-width:.9999975">7</tspan></text>
  <text style="font-size:11.99997044px;stroke-width:.9999975" xml:space="preserve" x="181.7" y="15.476" transform="scale(.9627 1.03874)"><tspan x="181.7" y="15.476" style="font-weight:700;font-size:2.63999343px;stroke-width:.9999975">8</tspan></text>
  <text style="font-size:11.99997044px;stroke-width:.9999975" xml:space="preserve" x="196.2" y="15.476" transform="scale(.9627 1.03874)"><tspan x="196.2" y="15.476" style="font-weight:700;font-size:2.63999343px;stroke-width:.9999975">9</tspan></text>
  <text style="font-size:11.99997044px;stroke-width:.9999975" xml:space="preserve" x="203" y="15.476" transform="scale(.9627 1.03874)"><tspan x="203" y="15.476" style="font-weight:700;font-size:2.63999343px;stroke-width:.9999975">10</tspan></text>
  <text style="font-size:11.99997044px;stroke-width:.9999975" xml:space="preserve" x="211.399" y="15.576" transform="scale(.9627 1.03874)"><tspan x="211.399" y="15.576" style="font-weight:700;font-size:2.63999343px;stroke-width:.9999975">11</tspan></text>
  <text style="font-size:11.99997044px;stroke-width:.9999975" xml:space="preserve" x="219.099" y="15.576" transform="scale(.9627 1.03874)"><tspan x="219.099" y="15.576" style="font-weight:700;font-size:2.63999343px;stroke-width:.9999975">12</tspan></text>
  <rect style="opacity:1;fill:#fd5;fill-opacity:.98969074;stroke:#090a0e;stroke-width:0;stroke-linecap:round;stroke-linejoin:round;stroke-miterlimit:6.5999999;stroke-dasharray:none;stroke-dashoffset:0;stroke-opacity:1;paint-order:normal" width="36" height="7.7" x="54.5" y="1.8" rx="0" ry=".7"/>
  <text xml:space="preserve" style="font-style:normal;font-weight:400;font-size:7.48945618px;line-height:1.25;font-family:sans-serif;letter-spacing:0;word-spacing:0;fill:#000;fill-opacity:1;stroke:none;stroke-width:.26458266" x="58.1" y="7.588" transform="scale(.98845 1.01168)"><tspan x="58.1" y="7.588" style="font-size:5.64443064px;stroke-width:.26458266">4단계_UTM</tspan></text>
  <text xml:space="preserve" style="font-style:normal;font-weight:400;font-size:10.58333302px;line-height:1.25;font-family:sans-serif;letter-spacing:0;word-spacing:0;fill:#e3dedb;fill-opacity:1;stroke:none;stroke-width:.26458332" x="8.6" y="8.2"><tspan x="8.6" y="8.2" style="font-style:normal;font-variant:normal;font-weight:700;font-stretch:normal;font-size:7.05555534px;font-family:Tahoma;-inkscape-font-specification:'Tahoma, Bold';font-variant-ligatures:normal;font-variant-caps:normal;font-variant-numeric:normal;font-feature-settings:normal;text-align:start;writing-mode:lr-tb;text-anchor:start;fill:#e3dedb;stroke-width:.26458332">SECUI</tspan></text>
  <path class="port port-01" style="fill:#fdfdf1;stroke:#000;stroke-width:.40000001" d="M112.6 19v.9H111v4.4h7v-4.4h-1.7v-1z"/>
  <path class="port port-02" style="fill:#fdfdf1;stroke:#000;stroke-width:.40000001" d="M120.3 19v.9h-1.7v4.4h7v-4.4h-1.8v-1z"/>
  <path class="port port-03" style="fill:#fdfdf1;stroke:#000;stroke-width:.40000001" d="M128 19v.9h-1.8v4.4h7v-4.4h-1.7v-1z"/>
  <path class="port port-04" style="fill:#fdfdf1;stroke:#000;stroke-width:.40000001" d="M135.6 19v.9h-1.8v4.4h7v-4.4h-1.7v-1z"/>
  <path class="port port-05" style="fill:#fdfdf1;stroke:#000;stroke-width:.40000001" d="M151 19v.9h-1.6v4.4h7v-4.4h-1.8v-1z"/>
  <path class="port port-06" style="fill:#fdfdf1;stroke:#000;stroke-width:.40000001" d="M158.7 19v.9H157v4.4h7v-4.4h-1.7v-1z"/>
  <path class="port port-07" style="fill:#fdfdf1;stroke:#000;stroke-width:.40000001" d="M166.4 19v.9h-1.7v4.4h7v-4.4h-1.8v-1z"/>
  <path class="port port-08" style="fill:#fdfdf1;stroke:#000;stroke-width:.40000001" d="M174 19v.9h-1.7v4.4h7v-4.4h-1.7v-1z"/>
  <path class="port port-09" style="fill:#fdfdf1;stroke:#000;stroke-width:.40000001" d="M186.2 19.3v4.6h3.5v-.5h.4v.5h3.5v-4.6H190v.5h-.4v-.5z"/>
  <path class="port port-10" style="fill:#fdfdf1;stroke:#000;stroke-width:.40000001" d="M194 19.3v4.6h3.5v-.5h.4v.5h3.5v-4.6H198v.5h-.4v-.5z"/>
  <path class="port port-11" style="fill:#fdfdf1;stroke:#000;stroke-width:.40000001" d="M201.9 19.3V24h3.5v-.6h.4v.6h3.5v-4.7h-3.5v.5h-.4v-.5z"/>
  <path class="port port-12" style="fill:#fdfdf1;stroke:#000;stroke-width:.40000001" d="M209.8 19.3v4.6h3.5v-.5h.4v.5h3.5v-4.6h-3.5v.5h-.4v-.5z"/>
  <path d="M73.7 23.5a.85.85 0 1 1-1.7 0c0-.4.4-.8.9-.8.4 0 .8.4.8.8z" style="fill:#ccc;fill-opacity:1;fill-rule:nonzero;stroke:none;stroke-width:.26458332"/>
  <path d="M74.7 24a.8.8 0 1 1-1.6 0c0-.4.4-.8.8-.8.5 0 .8.4.8.8z" style="fill:none;stroke:none;stroke-width:.26458332"/>
  <path d="M73.7 18.4a.8.8 0 1 1-1.6 0 .8.8 0 0 1 1.6 0z" style="fill:#06f620;fill-opacity:1;fill-rule:nonzero;stroke:none;stroke-width:.26458332"/>
  <path d="M74.7 18.4a.8.8 0 1 1-1.6 0 .8.8 0 0 1 1.6 0z" style="fill:none;stroke:none;stroke-width:.26458332"/>
  <text xml:space="preserve" style="font-style:normal;font-weight:400;font-size:10.58333302px;line-height:1.25;font-family:sans-serif;letter-spacing:0;word-spacing:0;fill:#000;fill-opacity:1;stroke:none;stroke-width:.26458332" x="64.5" y="19.7"><tspan x="64.5" y="19.7" style="font-size:2.82222223px;fill:#fff;stroke-width:.26458332">PWR</tspan></text>
  <text xml:space="preserve" style="font-style:normal;font-weight:400;font-size:10.58333302px;line-height:1.25;font-family:sans-serif;letter-spacing:0;word-spacing:0;fill:#000;fill-opacity:1;stroke:none;stroke-width:.26458332" x="64.5" y="24.4"><tspan x="64.5" y="24.4" style="font-size:2.82222223px;fill:#fff;stroke-width:.26458332">HDD</tspan></text>
  <path style="opacity:1;fill:#fdfdf1;fill-opacity:.96649487;stroke:#000;stroke-width:.40000001;stroke-linecap:round;stroke-linejoin:round;stroke-miterlimit:6.5999999;stroke-dasharray:none;stroke-dashoffset:0;stroke-opacity:.97938143;paint-order:normal" d="M100.8 11.1v.9H99v4.4h7V12h-1.8v-1z"/>
  <path style="opacity:1;fill:#fdfdf1;fill-opacity:.96649487;stroke:#000;stroke-width:.40000001;stroke-linecap:round;stroke-linejoin:round;stroke-miterlimit:6.5999999;stroke-dasharray:none;stroke-dashoffset:0;stroke-opacity:.97938143;paint-order:normal" d="M89.9 18.9v1h-1.7v4.3h7v-4.4h-1.8v-.9z"/>
  <rect style="opacity:1;fill:#1a1a1a;fill-opacity:.98969074;stroke:#090a0e;stroke-width:0;stroke-linecap:round;stroke-linejoin:round;stroke-miterlimit:6.5999999;stroke-dasharray:none;stroke-dashoffset:0;stroke-opacity:1;paint-order:normal" width="8.3" height="3.8" x="98.7" y="16.9" rx="0" ry=".3"/>
  <rect style="fill:#b3b3b3;stroke-width:.26458332" width="5.4" height="1.2" x="100.2" y="18.3" rx="0" ry=".1"/>
  <rect style="opacity:1;fill:#1a1a1a;fill-opacity:.98969074;stroke:#090a0e;stroke-width:0;stroke-linecap:round;stroke-linejoin:round;stroke-miterlimit:6.5999999;stroke-dasharray:none;stroke-dashoffset:0;stroke-opacity:1;paint-order:normal" width="8.3" height="3.8" x="98.7" y="20.8" rx="0" ry=".3"/>
  <rect style="fill:#b3b3b3;stroke-width:.26458332" width="5.4" height="1.2" x="100.2" y="22.1" rx="0" ry=".1"/>
</svg>