<svg xmlns="http://www.w3.org/2000/svg" viewBox="0 0 229.5 29.5" >
  <rect style="opacity:1;fill:#c4c4bc;fill-opacity:1;stroke:#09160a;stroke-width:.5;stroke-linecap:round;stroke-linejoin:round;stroke-miterlimit:6.5999999;stroke-dasharray:none;stroke-dashoffset:0;stroke-opacity:.69346732;paint-order:normal" width="228.5" height="28.5" x=".7" y=".6" ry="1" rx="1.2"/>
  <path style="fill:#fff;fill-opacity:.55686275;stroke:none;stroke-width:.26499999;stroke-linejoin:bevel;stroke-miterlimit:4;stroke-dasharray:none;stroke-opacity:.99344261;paint-order:stroke fill markers" d="M2.3 1.6h24v6.1h-24z"/>
  <text xml:space="preserve" style="font-family:'Headline R';text-align:end;writing-mode:lr-tb;text-anchor:end" x="225" y="11"><tspan x="225" y="11" style="font-weight:700;font-size:7.05000019px;font-family:'고딕체';fill:#2f52b6;stroke:#2f52b6;stroke-width:.40000001">무선집선</tspan></text>
  <text xml:space="preserve" style="font-family:'Headline R';text-align:end;writing-mode:lr-tb;text-anchor:end" x="224.9" y="20.6"><tspan x="224.9" y="20.6" style="font-weight:700;font-size:7.05000019px;font-family:'고딕체';fill:#2f52b6;stroke:#2f52b6;stroke-width:.40000001">스위치</tspan></text>
  <ellipse style="fill:#23b522;stroke:#09160a;stroke-width:.1;stroke-linecap:round;stroke-miterlimit:6.5999999;stroke-opacity:.7" cx="154.1" cy="12.2" rx=".6" ry=".7"/>
  <ellipse style="fill:#23b522;stroke:#09160a;stroke-width:.1;stroke-linecap:round;stroke-miterlimit:6.5999999;stroke-opacity:.7" cx="154.1" cy="14.5" rx=".6" ry=".7"/>
  <ellipse style="fill:#23b522;stroke:#09160a;stroke-width:.1;stroke-linecap:round;stroke-miterlimit:6.5999999;stroke-opacity:.7" cx="154.1" cy="17.1" rx=".6" ry=".7"/>
  <ellipse style="fill:#23b522;stroke:#09160a;stroke-width:.1;stroke-linecap:round;stroke-miterlimit:6.5999999;stroke-opacity:.7" cx="154.1" cy="19.5" rx=".6" ry=".7"/>
  <ellipse style="fill:#23b522;stroke:#09160a;stroke-width:.1;stroke-linecap:round;stroke-miterlimit:6.5999999;stroke-opacity:.7" cx="151.8" cy="12.2" rx=".6" ry=".7"/>
  <ellipse style="fill:#23b522;stroke:#09160a;stroke-width:.1;stroke-linecap:round;stroke-miterlimit:6.5999999;stroke-opacity:.7" cx="151.8" cy="14.5" rx=".6" ry=".7"/>
  <ellipse style="fill:#23b522;stroke:#09160a;stroke-width:.1;stroke-linecap:round;stroke-miterlimit:6.5999999;stroke-opacity:.7" cx="151.8" cy="17.1" rx=".6" ry=".7"/>
  <ellipse style="fill:#23b522;stroke:#09160a;stroke-width:.1;stroke-linecap:round;stroke-miterlimit:6.5999999;stroke-opacity:.7" cx="151.8" cy="19.5" rx=".6" ry=".7"/>
  <rect style="opacity:1;fill:none;fill-opacity:1;stroke:#09160a;stroke-width:.2;stroke-linecap:round;stroke-linejoin:round;stroke-miterlimit:6.5999999;stroke-dasharray:none;stroke-dashoffset:0;stroke-opacity:.69346732;paint-order:normal" width="46" height="13.5" x="148.1" y="7.9" rx=".8" ry=".5"/>
  <text style="font-size:11.99997044px;stroke-width:.9999975" xml:space="preserve" x="53.1" y="6.576" transform="scale(.9627 1.03874)">  <tspan x="53.1" y="6.576" style="font-weight:700;font-size:2.59999347px;stroke-width:.9999975">1</tspan></text>
  <text style="font-size:11.99997044px;stroke-width:.9999975" xml:space="preserve" x="61.1" y="6.576" transform="scale(.9627 1.03874)">  <tspan x="61.1" y="6.576" style="font-weight:700;font-size:2.59999347px;stroke-width:.9999975">3</tspan></text>
  <text style="font-size:11.99997044px;stroke-width:.9999975" xml:space="preserve" x="68.8" y="6.576" transform="scale(.9627 1.03874)">  <tspan x="68.8" y="6.576" style="font-weight:700;font-size:2.59999347px;stroke-width:.9999975">5</tspan></text>
  <text style="font-size:11.99997044px;stroke-width:.9999975" xml:space="preserve" x="76.7" y="6.576" transform="scale(.9627 1.03874)">  <tspan x="76.7" y="6.576" style="font-weight:700;font-size:2.59999347px;stroke-width:.9999975">7</tspan></text>
  <text style="font-size:11.99997044px;stroke-width:.9999975" xml:space="preserve" x="88.3" y="6.576" transform="scale(.9627 1.03874)">  <tspan x="88.3" y="6.576" style="font-weight:700;font-size:2.59999347px;stroke-width:.9999975">9</tspan></text>
  <text style="font-size:11.99997044px;stroke-width:.9999975" xml:space="preserve" x="95.3" y="6.576" transform="scale(.9627 1.03874)">  <tspan x="95.3" y="6.576" style="font-weight:700;font-size:2.59999347px;stroke-width:.9999975">11</tspan></text>
  <text style="font-size:11.99997044px;stroke-width:.9999975" xml:space="preserve" x="102.9" y="6.576" transform="scale(.9627 1.03874)"> <tspan x="102.9" y="6.576" style="font-weight:700;font-size:2.59999347px;stroke-width:.9999975">13</tspan></text>
  <text style="font-size:11.99997044px;stroke-width:.9999975" xml:space="preserve" x="110.9" y="6.576" transform="scale(.9627 1.03874)"> <tspan x="110.9" y="6.576" style="font-weight:700;font-size:2.59999347px;stroke-width:.9999975">15</tspan></text>
  <text style="font-size:11.99997044px;stroke-width:.9999975" xml:space="preserve" x="122.5" y="6.576" transform="scale(.9627 1.03874)"> <tspan x="122.5" y="6.576" style="font-weight:700;font-size:2.59999347px;stroke-width:.9999975">17</tspan></text>
  <text style="font-size:11.99997044px;stroke-width:.9999975" xml:space="preserve" x="130.4" y="6.576" transform="scale(.9627 1.03874)"> <tspan x="130.4" y="6.576" style="font-weight:700;font-size:2.59999347px;stroke-width:.9999975">19</tspan></text>
  <text style="font-size:11.99997044px;stroke-width:.9999975" xml:space="preserve" x="138.2" y="6.576" transform="scale(.9627 1.03874)"> <tspan x="138.2" y="6.576" style="font-weight:700;font-size:2.59999347px;stroke-width:.9999975">21</tspan></text>
  <text style="font-size:11.99997044px;stroke-width:.9999975" xml:space="preserve" x="146.1" y="6.576" transform="scale(.9627 1.03874)"> <tspan x="146.1" y="6.576" style="font-weight:700;font-size:2.59999347px;stroke-width:.9999975">23</tspan></text>
  <text style="font-size:11.99997044px;stroke-width:.9999975" xml:space="preserve" x="165" y="6.576" transform="scale(.9627 1.03874)">   <tspan x="165" y="6.576" style="font-weight:700;font-size:2.59999347px;stroke-width:.9999975">UP1</tspan></text>
  <text style="font-size:11.99997044px;stroke-width:.9999975" xml:space="preserve" x="172.9" y="6.576" transform="scale(.9627 1.03874)"> <tspan x="172.9" y="6.576" style="font-weight:700;font-size:2.59999347px;stroke-width:.9999975">UP3</tspan></text>
  <text style="font-size:11.99997044px;stroke-width:.9999975" xml:space="preserve" x="53.1" y="23.576" transform="scale(.9627 1.03874)">  <tspan x="53.1" y="23.576" style="font-weight:700;font-size:2.59999347px;stroke-width:.9999975">2</tspan></text>
  <text style="font-size:11.99997044px;stroke-width:.9999975" xml:space="preserve" x="61.1" y="23.476" transform="scale(.9627 1.03874)">    <tspan x="61.1" y="23.476" style="font-weight:700;font-size:2.59999347px;stroke-width:.9999975">4</tspan></text>
  <text style="font-size:11.99997044px;stroke-width:.9999975" xml:space="preserve" x="68.8" y="23.476" transform="scale(.9627 1.03874)">    <tspan x="68.8" y="23.476" style="font-weight:700;font-size:2.59999347px;stroke-width:.9999975">6</tspan></text>
  <text style="font-size:11.99997044px;stroke-width:.9999975" xml:space="preserve" x="76.8" y="23.576" transform="scale(.9627 1.03874)">  <tspan x="76.8" y="23.576" style="font-weight:700;font-size:2.59999347px;stroke-width:.9999975">8</tspan></text>
  <text style="font-size:11.99997044px;stroke-width:.9999975" xml:space="preserve" x="87.2" y="23.576" transform="scale(.9627 1.03874)">  <tspan x="87.2" y="23.576" style="font-weight:700;font-size:2.59999347px;stroke-width:.9999975">10</tspan></text>
  <text style="font-size:11.99997044px;stroke-width:.9999975" xml:space="preserve" x="95.2" y="23.576" transform="scale(.9627 1.03874)">  <tspan x="95.2" y="23.576" style="font-weight:700;font-size:2.59999347px;stroke-width:.9999975">12</tspan></text>
  <text style="font-size:11.99997044px;stroke-width:.9999975" xml:space="preserve" x="102.8" y="23.576" transform="scale(.9627 1.03874)"> <tspan x="102.8" y="23.576" style="font-weight:700;font-size:2.59999347px;stroke-width:.9999975">14</tspan></text>
  <text style="font-size:11.99997044px;stroke-width:.9999975" xml:space="preserve" x="110.8" y="23.476" transform="scale(.9627 1.03874)">   <tspan x="110.8" y="23.476" style="font-weight:700;font-size:2.59999347px;stroke-width:.9999975">16</tspan></text>
  <text xml:space="preserve" x="113.8" y="25.191" transform="scale(1.03405 .96707)"><tspan x="113.8" y="25.191" style="font-weight:700;font-size:2.5999999px">18</tspan></text>
  <text style="font-size:11.99997044px;stroke-width:.9999975" xml:space="preserve" x="130.5" y="23.576" transform="scale(.9627 1.03874)"> <tspan x="130.5" y="23.576" style="font-weight:700;font-size:2.59999347px;stroke-width:.9999975">20</tspan></text>
  <text style="font-size:11.99997044px;stroke-width:.9999975" xml:space="preserve" x="138.1" y="23.576" transform="scale(.9627 1.03874)"> <tspan x="138.1" y="23.576" style="font-weight:700;font-size:2.59999347px;stroke-width:.9999975">22</tspan></text>
  <text style="font-size:11.99997044px;stroke-width:.9999975" xml:space="preserve" x="146.1" y="23.576" transform="scale(.9627 1.03874)"> <tspan x="146.1" y="23.576" style="font-weight:700;font-size:2.59999347px;stroke-width:.9999975">24</tspan></text>
  <text style="font-size:11.99997044px;stroke-width:.9999975" xml:space="preserve" x="164.9" y="23.576" transform="scale(.9627 1.03874)"> <tspan x="164.9" y="23.576" style="font-weight:700;font-size:2.59999347px;stroke-width:.9999975">UP2</tspan></text>
  <text style="font-size:11.99997044px;stroke-width:.9999975" xml:space="preserve" x="172.8" y="23.476" transform="scale(.9627 1.03874)">   <tspan x="172.8" y="23.476" style="font-weight:700;font-size:2.59999347px;stroke-width:.9999975">UP4</tspan></text>
  <text style="font-size:11.99997044px;stroke-width:.9999975" xml:space="preserve" x="184.8" y="6.576" transform="scale(.9627 1.03874)"> <tspan x="184.8" y="6.576" style="font-weight:700;font-size:2.59999347px;stroke-width:.9999975">UP1</tspan></text>
  <text style="font-size:11.99997044px;stroke-width:.9999975" xml:space="preserve" x="192.9" y="6.576" transform="scale(.9627 1.03874)"> <tspan x="192.9" y="6.576" style="font-weight:700;font-size:2.59999347px;stroke-width:.9999975">UP3</tspan></text>
  <text style="font-size:11.99997044px;stroke-width:.9999975" xml:space="preserve" x="184.7" y="23.576" transform="scale(.9627 1.03874)"> <tspan x="184.7" y="23.576" style="font-weight:700;font-size:2.59999347px;stroke-width:.9999975">UP2</tspan></text>
  <text style="font-size:11.99997044px;stroke-width:.9999975" xml:space="preserve" x="192.9" y="23.476" transform="scale(.9627 1.03874)">   <tspan x="192.9" y="23.476" style="font-weight:700;font-size:2.59999347px;stroke-width:.9999975">UP4</tspan></text>
  <ellipse style="fill:#28bf27;stroke:#09160a;stroke-width:.1;stroke-miterlimit:6.5999999;stroke-opacity:.7" cx="38.6" cy="11.9" rx=".6" ry=".7"/>
  <ellipse style="fill:#28bf27;stroke:#09160a;stroke-width:.1;stroke-miterlimit:6.5999999;stroke-opacity:.7" cx="38.6" cy="14.3" rx=".6" ry=".7"/>
  <ellipse style="fill:#28bf27;stroke:#09160a;stroke-width:.1;stroke-miterlimit:6.5999999;stroke-opacity:.7" cx="38.6" cy="16.8" rx=".6" ry=".7"/>
  <ellipse style="fill:#28bf27;stroke:#09160a;stroke-width:.1;stroke-miterlimit:6.5999999;stroke-opacity:.7" cx="38.6" cy="19.2" rx=".6" ry=".7"/>
  <ellipse style="fill:#28bf27;stroke:#09160a;stroke-width:.1;stroke-miterlimit:6.5999999;stroke-opacity:.7" cx="36.8" cy="11.9" rx=".6" ry=".7"/>
  <ellipse style="fill:#28bf27;stroke:#09160a;stroke-width:.1;stroke-miterlimit:6.5999999;stroke-opacity:.7" cx="36.8" cy="14.3" rx=".6" ry=".7"/>
  <ellipse style="fill:#28bf27;stroke:#09160a;stroke-width:.1;stroke-miterlimit:6.5999999;stroke-opacity:.7" cx="36.8" cy="16.8" rx=".6" ry=".7"/>
  <ellipse style="fill:#28bf27;stroke:#09160a;stroke-width:.1;stroke-miterlimit:6.5999999;stroke-opacity:.7" cx="36.8" cy="19.2" rx=".6" ry=".7"/>
  <ellipse style="fill:#28bf27;stroke:#09160a;stroke-width:.1;stroke-miterlimit:6.5999999;stroke-opacity:.7" cx="42.4" cy="11.9" rx=".6" ry=".7"/>
  <ellipse style="fill:#28bf27;stroke:#09160a;stroke-width:.1;stroke-miterlimit:6.5999999;stroke-opacity:.7" cx="42.4" cy="14.3" rx=".6" ry=".7"/>
  <ellipse style="fill:#28bf27;stroke:#09160a;stroke-width:.1;stroke-miterlimit:6.5999999;stroke-opacity:.7" cx="42.4" cy="16.8" rx=".6" ry=".7"/>
  <ellipse style="fill:#28bf27;stroke:#09160a;stroke-width:.1;stroke-miterlimit:6.5999999;stroke-opacity:.7" cx="42.4" cy="19.2" rx=".6" ry=".7"/>
  <ellipse style="fill:#28bf27;stroke:#09160a;stroke-width:.1;stroke-miterlimit:6.5999999;stroke-opacity:.7" cx="40.7" cy="11.9" rx=".6" ry=".7"/>
  <ellipse style="fill:#28bf27;stroke:#09160a;stroke-width:.1;stroke-miterlimit:6.5999999;stroke-opacity:.7" cx="40.7" cy="14.3" rx=".6" ry=".7"/>
  <ellipse style="fill:#28bf27;stroke:#09160a;stroke-width:.1;stroke-miterlimit:6.5999999;stroke-opacity:.7" cx="40.7" cy="16.8" rx=".6" ry=".7"/>
  <ellipse style="fill:#28bf27;stroke:#09160a;stroke-width:.1;stroke-miterlimit:6.5999999;stroke-opacity:.7" cx="40.7" cy="19.2" rx=".6" ry=".7"/>
  <ellipse style="fill:#28bf27;stroke:#09160a;stroke-width:.1;stroke-miterlimit:6.5999999;stroke-opacity:.7" cx="46.3" cy="11.9" rx=".6" ry=".7"/>
  <ellipse style="fill:#28bf27;stroke:#09160a;stroke-width:.1;stroke-miterlimit:6.5999999;stroke-opacity:.7" cx="46.3" cy="14.3" rx=".6" ry=".7"/>
  <ellipse style="fill:#28bf27;stroke:#09160a;stroke-width:.1;stroke-miterlimit:6.5999999;stroke-opacity:.7" cx="46.3" cy="16.8" rx=".6" ry=".7"/>
  <ellipse style="fill:#28bf27;stroke:#09160a;stroke-width:.1;stroke-miterlimit:6.5999999;stroke-opacity:.7" cx="46.3" cy="19.2" rx=".6" ry=".7"/>
  <ellipse style="fill:#28bf27;stroke:#09160a;stroke-width:.1;stroke-miterlimit:6.5999999;stroke-opacity:.7" cx="44.6" cy="11.9" rx=".6" ry=".7"/>
  <ellipse style="fill:#28bf27;stroke:#09160a;stroke-width:.1;stroke-miterlimit:6.5999999;stroke-opacity:.7" cx="44.6" cy="14.3" rx=".6" ry=".7"/>
  <ellipse style="fill:#28bf27;stroke:#09160a;stroke-width:.1;stroke-miterlimit:6.5999999;stroke-opacity:.7" cx="44.6" cy="16.8" rx=".6" ry=".7"/>
  <ellipse style="fill:#28bf27;stroke:#09160a;stroke-width:.1;stroke-miterlimit:6.5999999;stroke-opacity:.7" cx="44.6" cy="19.2" rx=".6" ry=".7"/>
  <path class="port port-02" style="fill:#fdfdf1;stroke:#000;stroke-width:.40000001" d="M48.4 15.3v4.6h3.5v-.5h.4v.5h3.4v-4.6h-3.4v.5h-.4v-.5z"/>
  <path class="port port-26" style="fill:#fdfdf1;stroke:#000;stroke-width:.40000001" d="M177 15.3v4.6h3.5v-.5h.4v.5h3.5v-4.6H181v.5h-.4v-.5z"/>
  <path class="port port-04" style="fill:#fdfdf1;stroke:#000;stroke-width:.40000001" d="M56 15.3v4.6h3.5v-.5h.5v.5h3.4v-4.6H60v.5h-.5v-.5z"/>
  <path class="port port-28" style="fill:#fdfdf1;stroke:#000;stroke-width:.40000001" d="M185 15.3v4.6h3.4v-.5h.4v.5h3.5v-4.6h-3.5v.5h-.4v-.5z"/>
  <path class="port port-01" style="fill:#fdfdf1;stroke:#000;stroke-width:.40000001" d="M48.4 9.3V14h3.5v-.6h.4v.6h3.4V9.3h-3.4v.5h-.4v-.5Z"/>
  <path class="port port-25" style="fill:#fdfdf1;stroke:#000;stroke-width:.40000001" d="M177 9.3V14h3.5v-.6h.4v.6h3.5V9.3H181v.5h-.4v-.5Z"/>
  <path class="port port-03" style="fill:#fdfdf1;stroke:#000;stroke-width:.40000001" d="M56 9.3V14h3.5v-.6h.5v.6h3.4V9.3H60v.5h-.5v-.5Z"/>
  <path class="port port-27" style="fill:#fdfdf1;stroke:#000;stroke-width:.40000001" d="M185 9.3V14h3.4v-.6h.4v.6h3.5V9.3h-3.5v.5h-.4v-.5Z"/>
  <path class="port port-06" style="fill:#fdfdf1;stroke:#000;stroke-width:.40000001" d="M63.4 15.3v4.6H67v-.5h.4v.5h3.5v-4.6h-3.5v.5H67v-.5z"/>
  <path class="port port-08" style="fill:#fdfdf1;stroke:#000;stroke-width:.40000001" d="M71.1 15.3v4.6h3.5v-.5h.4v.5h3.5v-4.6H75v.5h-.4v-.5z"/>
  <path class="port port-05" style="fill:#fdfdf1;stroke:#000;stroke-width:.40000001" d="M63.4 9.3V14H67v-.6h.4v.6h3.5V9.3h-3.5v.5H67v-.5Z"/>
  <path class="port port-07" style="fill:#fdfdf1;stroke:#000;stroke-width:.40000001" d="M71.1 9.3V14h3.5v-.6h.4v.6h3.5V9.3H75v.5h-.4v-.5Z"/>
  <path class="port port-10" style="fill:#fdfdf1;stroke:#000;stroke-width:.40000001" d="M82.2 15.3v4.6h3.5v-.5h.4v.5h3.5v-4.6H86v.5h-.4v-.5z"/>
  <path class="port port-12" style="fill:#fdfdf1;stroke:#000;stroke-width:.40000001" d="M89.9 15.3v4.6h3.5v-.5h.4v.5h3.4v-4.6h-3.4v.5h-.4v-.5z"/>
  <path class="port port-09" style="fill:#fdfdf1;stroke:#000;stroke-width:.40000001" d="M82.2 9.3V14h3.5v-.6h.4v.6h3.5V9.3H86v.5h-.4v-.5Z"/>
  <path class="port port-11" style="fill:#fdfdf1;stroke:#000;stroke-width:.40000001" d="M89.9 9.3V14h3.5v-.6h.4v.6h3.4V9.3h-3.4v.5h-.4v-.5Z"/>
  <path class="port port-14" style="fill:#fdfdf1;stroke:#000;stroke-width:.40000001" d="M97.2 15.3v4.6h3.5v-.5h.4v.5h3.5v-4.6h-3.5v.5h-.4v-.5z"/>
  <path class="port port-16" style="fill:#fdfdf1;stroke:#000;stroke-width:.40000001" d="M105 15.3v4.6h3.4v-.5h.4v.5h3.5v-4.6h-3.5v.5h-.4v-.5z"/>
  <path class="port port-13" style="fill:#fdfdf1;stroke:#000;stroke-width:.40000001" d="M97.2 9.3V14h3.5v-.6h.4v.6h3.5V9.3h-3.5v.5h-.4v-.5Z"/>
  <path class="port port-15" style="fill:#fdfdf1;stroke:#000;stroke-width:.40000001" d="M105 9.3V14h3.4v-.6h.4v.6h3.5V9.3h-3.5v.5h-.4v-.5Z"/>
  <path class="port port-18" style="fill:#fdfdf1;stroke:#000;stroke-width:.40000001" d="M116.1 15.2v4.7h3.5v-.6h.4v.6h3.5v-4.7H120v.5h-.4v-.5z"/>
  <path class="port port-20" style="fill:#fdfdf1;stroke:#000;stroke-width:.40000001" d="M123.8 15.2v4.7h3.5v-.6h.4v.6h3.5v-4.7h-3.5v.5h-.4v-.5z"/>
  <path class="port port-17" style="fill:#fdfdf1;stroke:#000;stroke-width:.40000001" d="M116.1 9.2v4.7h3.5v-.6h.4v.6h3.5V9.2H120v.5h-.4v-.5Z"/>
  <path class="port port-19" style="fill:#fdfdf1;stroke:#000;stroke-width:.40000001" d="M123.8 9.2v4.7h3.5v-.6h.4v.6h3.5V9.2h-3.5v.5h-.4v-.5Z"/>
  <path class="port port-22" style="fill:#fdfdf1;stroke:#000;stroke-width:.40000001" d="M131.2 15.2v4.7h3.4v-.6h.4v.6h3.5v-4.7H135v.5h-.4v-.5z"/>
  <path class="port port-24" style="fill:#fdfdf1;stroke:#000;stroke-width:.40000001" d="M138.8 15.2v4.7h3.5v-.6h.4v.6h3.5v-4.7h-3.5v.5h-.4v-.5z"/>
  <path class="port port-21" style="fill:#fdfdf1;stroke:#000;stroke-width:.40000001" d="M131.2 9.2v4.7h3.4v-.6h.4v.6h3.5V9.2H135v.5h-.4v-.5Z"/>
  <path class="port port-23" style="fill:#fdfdf1;stroke:#000;stroke-width:.40000001" d="M138.8 9.2v4.7h3.5v-.6h.4v.6h3.5V9.2h-3.5v.5h-.4v-.5Z"/>
  <path class="port port-25" style="fill:#fdfdf1;stroke:#000;stroke-width:.40000001" d="M159.9 8.6v1H158V14h7V9.5h-1.7v-1z"/>
  <path class="port port-26" style="fill:#fdfdf1;stroke:#000;stroke-width:.40000001" d="M163.5 20.3v-.9h1.7V15h-7v4.4h1.7v1z"/>
  <path class="port port-27" style="fill:#fdfdf1;stroke:#000;stroke-width:.40000001" d="M167.5 8.6v1h-1.7V14h7V9.5h-1.7v-1z"/>
  <path class="port port-28" style="fill:#fdfdf1;stroke:#000;stroke-width:.40000001" d="M171.1 20.3v-.9h1.7V15h-7v4.4h1.8v1z"/>
  <path style="fill:#fdfdf1;stroke:#000;stroke-width:.40000001" d="M28.9 9.1v.9H27v4.4h7V10h-1.7V9Z"/>
  <path style="fill:#fdfdf1;stroke:#000;stroke-width:.40000001" d="M32.5 20.8v-1h1.7v-4.3h-7v4.3h1.7v1z"/>
  <text xml:space="preserve" style="font-style:normal;font-weight:400;font-size:5.14090538px;line-height:1.25;font-family:sans-serif;letter-spacing:0;word-spacing:0;fill:#000;fill-opacity:1;stroke:none;stroke-width:.26458329" x="3.2" y="6.064" transform="scale(.94892 1.05383)"><tspan x="3.2" y="6.064" style="stroke-width:.26458329"><tspan style="fill:#00f;stroke-width:.26458329">ubi</tspan><tspan style="fill:red;stroke-width:.26458329">Q</tspan><tspan style="fill:#00f;stroke-width:.26458329">uoss</tspan></tspan></text>
</svg>