<svg xmlns="http://www.w3.org/2000/svg" width="75mm" height="75mm" viewBox="0 0 75 75">
  <g transform="translate(0 -222)">
    <rect style="fill:#e6e6e6;fill-opacity:1;stroke:#000;stroke-width:1;stroke-miterlimit:4;stroke-dasharray:none;stroke-opacity:.99672134;paint-order:stroke fill markers" width="72.6" height="72.6" x="1.2" y="223.3" rx="11.4"/>
    <path style="opacity:1;fill:#0ff;fill-opacity:.9213115;stroke:#1d3107;stroke-width:.20022509;stroke-linecap:square;stroke-linejoin:miter;stroke-miterlimit:4;stroke-dasharray:none;stroke-dashoffset:0;stroke-opacity:.99344261;paint-order:normal" transform="matrix(.99042 -.1381 .07143 .99745 0 0)" d="M3.7 283.6h3v1.4h-3z"/>
    <text xml:space="preserve" style="font-style:normal;font-variant:normal;font-weight:400;font-stretch:condensed;font-size:10.58333302px;line-height:1.25;font-family:'Agency FB';-inkscape-font-specification:'Agency FB, Condensed';font-variant-ligatures:normal;font-variant-caps:normal;font-variant-numeric:normal;text-align:start;letter-spacing:0;word-spacing:0;writing-mode:lr-tb;text-anchor:start;fill:#000;fill-opacity:1;stroke:none;stroke-width:.26458332" x="48.6" y="11"/>
    <text xml:space="preserve" style="font-style:normal;font-variant:normal;font-weight:400;font-stretch:normal;font-size:3.52767825px;line-height:1.25;font-family:sans-serif;-inkscape-font-specification:'sans-serif, Normal';font-variant-ligatures:normal;font-variant-caps:normal;font-variant-numeric:normal;font-feature-settings:normal;text-align:start;letter-spacing:0;word-spacing:0;writing-mode:lr-tb;text-anchor:start;fill:#000;fill-opacity:1;stroke:none;stroke-width:.26458332" x="20.6" y="244"><tspan x="20.6" y="244" style="font-style:normal;font-variant:normal;font-weight:400;font-stretch:condensed;font-size:1.17589271px;font-family:'Agency FB';-inkscape-font-specification:'Agency FB, Condensed';font-variant-ligatures:normal;font-variant-caps:normal;font-variant-numeric:normal;font-feature-settings:normal;text-align:start;writing-mode:lr-tb;text-anchor:start;stroke-width:.26458332">학교무선환경구축 도입및 설치 사업</tspan></text>
    <text xml:space="preserve" style="font-style:normal;font-variant:normal;font-weight:400;font-stretch:condensed;font-size:1.17589271px;line-height:1.25;font-family:'Agency FB';-inkscape-font-specification:'Agency FB, Condensed';font-variant-ligatures:normal;font-variant-caps:normal;font-variant-numeric:normal;font-feature-settings:normal;text-align:start;letter-spacing:0;word-spacing:0;writing-mode:lr-tb;text-anchor:start;fill:#000;fill-opacity:1;stroke:none;stroke-width:.26458332" x="20.6" y="248.8"><tspan x="20.6" y="248.8" style="font-style:normal;font-variant:normal;font-weight:400;font-stretch:condensed;font-size:1.17589271px;font-family:'Agency FB';-inkscape-font-specification:'Agency FB, Condensed';font-variant-ligatures:normal;font-variant-caps:normal;font-variant-numeric:normal;font-feature-settings:normal;text-align:start;writing-mode:lr-tb;text-anchor:start;stroke-width:.26458332">제조사 : (주)다보링크 </tspan></text>
    <text xml:space="preserve" style="font-style:normal;font-variant:normal;font-weight:400;font-stretch:condensed;font-size:1.17589271px;line-height:1.25;font-family:'Agency FB';-inkscape-font-specification:'Agency FB, Condensed';font-variant-ligatures:normal;font-variant-caps:normal;font-variant-numeric:normal;font-feature-settings:normal;text-align:start;letter-spacing:0;word-spacing:0;writing-mode:lr-tb;text-anchor:start;fill:#000;fill-opacity:1;stroke:none;stroke-width:.26458332" x="20.6" y="246.5"><tspan x="20.6" y="246.5" style="font-style:normal;font-variant:normal;font-weight:400;font-stretch:condensed;font-size:1.17589271px;font-family:'Agency FB';-inkscape-font-specification:'Agency FB, Condensed';font-variant-ligatures:normal;font-variant-caps:normal;font-variant-numeric:normal;font-feature-settings:normal;text-align:start;writing-mode:lr-tb;text-anchor:start;stroke-width:.26458332">모델명 : DVW-640</tspan></text>
    <text xml:space="preserve" style="font-style:normal;font-variant:normal;font-weight:400;font-stretch:condensed;font-size:1.17589271px;line-height:1.25;font-family:'Agency FB';-inkscape-font-specification:'Agency FB, Condensed';font-variant-ligatures:normal;font-variant-caps:normal;font-variant-numeric:normal;font-feature-settings:normal;text-align:start;letter-spacing:0;word-spacing:0;writing-mode:lr-tb;text-anchor:start;fill:#000;fill-opacity:1;stroke:none;stroke-width:.26458332" x="20.6" y="250.9"><tspan x="20.6" y="250.9" style="font-style:normal;font-variant:normal;font-weight:400;font-stretch:condensed;font-size:1.17589271px;font-family:'Agency FB';-inkscape-font-specification:'Agency FB, Condensed';font-variant-ligatures:normal;font-variant-caps:normal;font-variant-numeric:normal;font-feature-settings:normal;text-align:start;writing-mode:lr-tb;text-anchor:start;stroke-width:.26458332">도입년월 : 2021년 6월(유지보수 5년)</tspan></text>
    <text xml:space="preserve" style="font-style:normal;font-variant:normal;font-weight:400;font-stretch:condensed;font-size:1.17589271px;line-height:1.25;font-family:'Agency FB';-inkscape-font-specification:'Agency FB, Condensed';font-variant-ligatures:normal;font-variant-caps:normal;font-variant-numeric:normal;font-feature-settings:normal;text-align:start;letter-spacing:0;word-spacing:0;writing-mode:lr-tb;text-anchor:start;fill:#000;fill-opacity:1;stroke:none;stroke-width:.26458332" x="20.6" y="253"><tspan x="20.6" y="253" style="font-style:normal;font-variant:normal;font-weight:400;font-stretch:condensed;font-size:1.17589271px;font-family:'Agency FB';-inkscape-font-specification:'Agency FB, Condensed';font-variant-ligatures:normal;font-variant-caps:normal;font-variant-numeric:normal;font-feature-settings:normal;text-align:start;writing-mode:lr-tb;text-anchor:start;stroke-width:.26458332">AP번호 :</tspan></text>
    <text xml:space="preserve" style="font-style:normal;font-variant:normal;font-weight:400;font-stretch:condensed;font-size:1.17589271px;line-height:1.25;font-family:'Agency FB';-inkscape-font-specification:'Agency FB, Condensed';font-variant-ligatures:normal;font-variant-caps:normal;font-variant-numeric:normal;font-feature-settings:normal;text-align:start;letter-spacing:0;word-spacing:0;writing-mode:lr-tb;text-anchor:start;fill:#000;fill-opacity:1;stroke:none;stroke-width:.26458332" x="40.4" y="247.7"><tspan x="40.4" y="247.7" style="stroke-width:.26458332">학교 무선인프라 지원센터</tspan></text>
    <text xml:space="preserve" style="font-style:normal;font-variant:normal;font-weight:400;font-stretch:condensed;font-size:2.51618028px;line-height:1.25;font-family:'Agency FB';-inkscape-font-specification:'Agency FB, Condensed';font-variant-ligatures:normal;font-variant-caps:normal;font-variant-numeric:normal;font-feature-settings:normal;text-align:start;letter-spacing:0;word-spacing:0;writing-mode:lr-tb;text-anchor:start;fill:#000;fill-opacity:1;stroke:none;stroke-width:.26458335" x="38.4" y="251" transform="scale(.99984 1.00016)"><tspan x="38.4" y="251" style="font-style:normal;font-variant:normal;font-weight:400;font-stretch:normal;font-size:3.52273941px;font-family:Arial;-inkscape-font-specification:'Arial, Normal';font-variant-ligatures:normal;font-variant-caps:normal;font-variant-numeric:normal;font-feature-settings:normal;text-align:start;writing-mode:lr-tb;text-anchor:start;stroke-width:.26458335">1588-5509</tspan></text>
    <ellipse style="opacity:1;fill:red;fill-opacity:.99090911;stroke:red;stroke-width:.99999994;stroke-linecap:square;stroke-linejoin:round;stroke-miterlimit:4;stroke-dasharray:none;stroke-dashoffset:0;stroke-opacity:1;paint-order:normal" cx="39.6" cy="247.3" rx=".6" ry=".5"/>
    <path style="fill:#fffdfd;fill-opacity:.99090911;stroke:#fff;stroke-width:6.45991039px;stroke-linecap:butt;stroke-linejoin:miter;stroke-opacity:1" d="M182.2 10.6c1.8-.1 3 1.2 2.6 2.3-.3 1.1-2.1 2-2 3.5 0 1.5 2 3.3 3.4 4.6 1.4 1.4 2.3 2.1 3.4 1.8 1.2-.3 2.7-1.6 4-1.8 1.1-.3 2 .5 2.7 1.3.8.7 1.4 1.4.2 2.5a21 21 0 0 1-6.2 3.2c-2 .5-2.6.2-5.2-2-2.5-2.3-6.9-6.3-8.8-8.7-2-2.4-1.4-3.2.1-4.2 1.5-1.1 4-2.5 5.8-2.5z" transform="matrix(.0376 0 0 .04462 32.5 246.4)"/>
    <path style="fill:none;stroke:#fff;stroke-width:7.96110487;stroke-linecap:butt;stroke-linejoin:miter;stroke-miterlimit:4;stroke-dasharray:none;stroke-opacity:1" d="M-244.8 89c3.9-2.8 7.8-5.6 12.3-7.5 4.4-1.9 9.4-2.8 14.9-3 5.4-.1 11.3.4 16.3 2.3 5 1.8 9 5 13.1 8.3" transform="matrix(.00944 .01057 -.00892 .00673 42.7 248.7)"/>
    <path style="fill:none;stroke:#fff;stroke-width:7.96110487;stroke-linecap:butt;stroke-linejoin:miter;stroke-miterlimit:4;stroke-dasharray:none;stroke-opacity:1" d="M-232 101.9c2.7-1.8 5.3-3.6 8.3-5a22 22 0 0 1 9.6-2.5 23.8 23.8 0 0 1 16.9 7.5" transform="matrix(.00944 .01057 -.00892 .00673 42.7 248.7)"/>
    <path style="fill:#f1b826;fill-opacity:.98431373;stroke:#f1b826;stroke-width:.99999994;stroke-linejoin:bevel;stroke-miterlimit:4;stroke-dasharray:none;stroke-opacity:.98431373;paint-order:stroke fill markers" d="M29.7 272.8h16.4v4.9H29.7z"/>
    <text xml:space="preserve" style="font-style:normal;font-weight:400;font-size:3.32461739px;line-height:1.25;font-family:sans-serif;letter-spacing:0;word-spacing:0;fill:#000;fill-opacity:1;stroke:none;stroke-width:.26458332" x="27.4" y="321" transform="scale(1.1619 .86066)"><tspan x="27.4" y="321" style="stroke-width:.26458332">AP-XX</tspan></text>
    <path style="fill:none;stroke:#000;stroke-width:.26458332px;stroke-linecap:butt;stroke-linejoin:miter;stroke-opacity:1" d="M11 237.5c6.2-6.2 16.2-1.1 25-1.1 9 0 21.5-5.5 27.7 1 5.2 5.6.7 14.7.7 22.3 0 7.2 4.2 16-.7 21.2-6.2 6.5-17 1.4-26 1.4-8.9 0-20.5 4.8-26.8-1.4-5.4-5.3-.5-14.2-.6-21.8 0-7-4.2-16.6.7-21.6z"/>
    <path style="fill:none;stroke:#000;stroke-width:.26458332px;stroke-linecap:butt;stroke-linejoin:miter;stroke-opacity:1" d="M12.5 239.2c5.8-5.7 15.3-1 23.5-1 8.5 0 20.3-5 26.2 1 5 5.2.7 13.5.7 20.6 0 6.6 4 14.7-.7 19.5-5.9 6-16 1.3-24.6 1.3-8.3 0-19.3 4.4-25.3-1.3-5-4.9-.5-13.1-.5-20.1 0-6.5-4-15.3.7-20z"/>
    <path style="opacity:1;fill:#f95;fill-opacity:.9213115;stroke:#1d3107;stroke-width:.20032823;stroke-linecap:square;stroke-linejoin:miter;stroke-miterlimit:4;stroke-dasharray:none;stroke-dashoffset:0;stroke-opacity:.99344261;paint-order:normal" transform="matrix(.995 -.09984 .01906 .99982 0 0)" d="M23.7 284h3v1.4h-3z"/>
    <path style="opacity:1;fill:#000;fill-opacity:.9213115;stroke:#1d3107;stroke-width:.20010602;stroke-linecap:square;stroke-linejoin:miter;stroke-miterlimit:4;stroke-dasharray:none;stroke-dashoffset:0;stroke-opacity:.99344261;paint-order:normal" transform="matrix(.99713 -.07571 .02974 .99956 0 0)" d="M25.5 283h3v1.4h-3z"/>
    <path style="opacity:1;fill:#000;fill-opacity:.9213115;stroke:#1d3107;stroke-width:.20004281;stroke-linecap:square;stroke-linejoin:miter;stroke-miterlimit:4;stroke-dasharray:none;stroke-dashoffset:0;stroke-opacity:.99344261;paint-order:normal" transform="matrix(.99446 .10516 -.07602 .9971 0 0)" d="M60.9 275.2h3v1.4h-3z"/>
    <path style="opacity:1;fill:#0ff;fill-opacity:.9213115;stroke:#1d3107;stroke-width:.20012087;stroke-linecap:square;stroke-linejoin:miter;stroke-miterlimit:4;stroke-dasharray:none;stroke-dashoffset:0;stroke-opacity:.99344261;paint-order:normal" transform="matrix(.989 .14794 -.09917 .99507 0 0)" d="M72.6 272.2h3v1.4h-3z"/>
    <path style="opacity:1;fill:#0ff;fill-opacity:.9213115;stroke:#1d3107;stroke-width:.2;stroke-linecap:square;stroke-linejoin:miter;stroke-miterlimit:4;stroke-dasharray:none;stroke-dashoffset:0;stroke-opacity:.99344261;paint-order:normal" transform="rotate(8.1)" d="M88.3 272.5h3v1.4h-3z"/>
    <text xml:space="preserve" style="font-style:normal;font-weight:400;font-size:4.29206276px;line-height:1.25;font-family:sans-serif;letter-spacing:0;word-spacing:0;fill:#000;fill-opacity:1;stroke:none;stroke-width:.26458332" x="26.3" y="259.2"><tspan x="26.3" y="259.2" style="font-style:normal;font-variant:normal;font-weight:700;font-stretch:normal;font-size:4.29206276px;font-family:sans-serif;-inkscape-font-specification:'sans-serif, Bold';font-variant-ligatures:normal;font-variant-caps:normal;font-variant-numeric:normal;font-feature-settings:normal;text-align:start;writing-mode:lr-tb;text-anchor:start;stroke-width:.26458332"><tspan style="fill:#00f;stroke-width:.26458332">Smart</tspan><tspan style="font-style:normal;font-variant:normal;font-weight:400;font-stretch:normal;font-size:4.29206276px;font-family:sans-serif;-inkscape-font-specification:'sans-serif, Normal';font-variant-ligatures:normal;font-variant-caps:normal;font-variant-numeric:normal;font-feature-settings:normal;text-align:start;writing-mode:lr-tb;text-anchor:start;stroke-width:.26458332">A</tspan></tspan></text>
    <rect style="fill:#000;fill-opacity:1;stroke:#0b1eff;stroke-width:.49999997;stroke-linejoin:bevel;stroke-miterlimit:4;stroke-dasharray:none;stroke-opacity:.02295083;paint-order:stroke fill markers" width="10.5" height="2.7" x="32.4" y="266.1" rx=".9"/>
    <path style="fill:#fff;stroke:#000;stroke-width:.26458332px;stroke-linecap:butt;stroke-linejoin:miter;stroke-opacity:1" d="m36.3 266.4.5-.2h2s.3 0 .5.2l.2.3v1.6s0 .2-.2.3c-.1.2-.3.2-.3.2h-3.2c.2-.1.3 0 .4-.3V266.6l.1-.2z"/>
    <text xml:space="preserve" style="font-style:normal;font-weight:400;font-size:2.17408538px;line-height:1.25;font-family:sans-serif;letter-spacing:0;word-spacing:0;fill:#fff;fill-opacity:1;stroke:none;stroke-width:.26458332" x="32.7" y="271.8" transform="scale(1.01307 .9871)"><tspan x="32.7" y="271.8" style="fill:#fff;stroke-width:.26458332">wi</tspan></text>
    <text xml:space="preserve" style="font-style:normal;font-weight:400;font-size:2.17408538px;line-height:1.25;font-family:sans-serif;letter-spacing:0;word-spacing:0;fill:#000;fill-opacity:1;stroke:none;stroke-width:.26458332" x="36.4" y="271.9" transform="scale(1.01307 .9871)"><tspan x="36.4" y="271.9" style="stroke-width:.26458332">Fi</tspan></text>
    <text xml:space="preserve" style="font-style:normal;font-weight:400;font-size:2.17408538px;line-height:1.25;font-family:sans-serif;letter-spacing:0;word-spacing:0;fill:#fff;fill-opacity:1;stroke:none;stroke-width:.26458332" x="39.9" y="271.9" transform="scale(1.01307 .9871)"><tspan x="39.9" y="271.9" style="fill:#fff;stroke-width:.26458332">6</tspan></text>
    <text xml:space="preserve" style="font-style:normal;font-weight:400;font-size:1.56466866px;line-height:1.25;font-family:sans-serif;letter-spacing:0;word-spacing:0;fill:#000;fill-opacity:1;stroke:none;stroke-width:.26458332" x="32.9" y="270.5"><tspan x="32.9" y="270.5" style="font-style:normal;font-variant:normal;font-weight:700;font-stretch:normal;font-size:1.56466866px;font-family:sans-serif;-inkscape-font-specification:'sans-serif, Bold';font-variant-ligatures:normal;font-variant-caps:normal;font-variant-numeric:normal;font-feature-settings:normal;text-align:start;writing-mode:lr-tb;text-anchor:start;stroke-width:.26458332">CERTIFIED</tspan></text>
    <path style="fill:none;stroke:#0b1eff;stroke-width:16.07036018;stroke-linecap:butt;stroke-linejoin:miter;stroke-miterlimit:4;stroke-dasharray:none;stroke-opacity:1" d="M-244.8 89c3.9-2.8 7.8-5.6 12.3-7.5 4.4-1.9 9.4-2.8 14.9-3 5.4-.1 11.3.4 16.3 2.3 5 1.8 9 5 13.1 8.3" transform="matrix(.02545 .02448 -.0194 .01939 50 259)"/>
    <path style="fill:none;stroke:#0b1eff;stroke-width:16.07036018;stroke-linecap:butt;stroke-linejoin:miter;stroke-miterlimit:4;stroke-dasharray:none;stroke-opacity:1" d="M-232 101.9c2.7-1.8 5.3-3.6 8.3-5a22 22 0 0 1 9.6-2.5 23.8 23.8 0 0 1 16.9 7.5" transform="matrix(.02545 .02448 -.0194 .01939 49.8 259)"/>
    <path style="fill:none;stroke:#000;stroke-width:.5;stroke-linecap:butt;stroke-linejoin:miter;stroke-miterlimit:4;stroke-dasharray:none;stroke-opacity:1" d="M42 257v2.2"/>
    <path style="fill:none;stroke:#000;stroke-width:.5;stroke-linecap:butt;stroke-linejoin:miter;stroke-miterlimit:4;stroke-dasharray:none;stroke-opacity:1" d="M44.3 256.7s-1 0-1 .2c-.2.2-.1.3-.2.5v1.8"/>
    <path style="fill:#00f;fill-opacity:1;stroke:#0b1eff;stroke-width:0;stroke-linejoin:bevel;stroke-miterlimit:4;stroke-dasharray:none;stroke-opacity:1;paint-order:stroke fill markers" d="M42.3 256.2a.3.3 0 0 1-.3.4.3.3 0 0 1-.4-.4.3.3 0 0 1 .4-.3.3.3 0 0 1 .3.3"/>
  </g>
</svg>