
<svg
   xmlns:dc="http://purl.org/dc/elements/1.1/"
   xmlns:cc="http://creativecommons.org/ns#"
   xmlns:rdf="http://www.w3.org/1999/02/22-rdf-syntax-ns#"
   xmlns:svg="http://www.w3.org/2000/svg"
   xmlns="http://www.w3.org/2000/svg"
   xmlns:sodipodi="http://sodipodi.sourceforge.net/DTD/sodipodi-0.dtd"
   xmlns:inkscape="http://www.inkscape.org/namespaces/inkscape"
   width="120mm"
   height="80mm"
   viewBox="0 0 120 80"
   version="1.1"
   id="svg886"
   inkscape:version="0.92.5 (2060ec1f9f, 2020-04-08)"
   sodipodi:docname="network_icon.svg">
  <defs
     id="defs880" />
  <sodipodi:namedview
     id="base"
     pagecolor="#ffffff"
     bordercolor="#666666"
     borderopacity="1.0"
     inkscape:pageopacity="0.0"
     inkscape:pageshadow="2"
     inkscape:zoom="1"
     inkscape:cx="21.937169"
     inkscape:cy="234.71294"
     inkscape:document-units="mm"
     inkscape:current-layer="layer1"
     showgrid="false"
     inkscape:snap-nodes="false"
     inkscape:window-width="1920"
     inkscape:window-height="1017"
     inkscape:window-x="1912"
     inkscape:window-y="-8"
     inkscape:window-maximized="1" />
  <metadata
     id="metadata883">
    <rdf:RDF>
      <cc:Work
         rdf:about="">
        <dc:format>image/svg+xml</dc:format>
        <dc:type
           rdf:resource="http://purl.org/dc/dcmitype/StillImage" />
        <dc:title />
      </cc:Work>
    </rdf:RDF>
  </metadata>
  <g
     inkscape:label="Layer 1"
     inkscape:groupmode="layer"
     id="layer1"
     transform="translate(0,-217)">
    <path
       style="fill:#000000;fill-opacity:0;stroke:#e2e8fb;stroke-width:3;stroke-linecap:butt;stroke-linejoin:miter;stroke-miterlimit:4;stroke-dasharray:none;stroke-opacity:1"
       d="m 77.683547,246.29581 -1.668012,7.76094"
       id="path1518-3"
       inkscape:connector-curvature="0"
       sodipodi:nodetypes="cc" />
    <path
       style="opacity:1;fill:#818cf8;fill-opacity:1;stroke:none;stroke-width:1;stroke-linejoin:bevel;stroke-miterlimit:4;stroke-dasharray:none;stroke-dashoffset:0;stroke-opacity:1;paint-order:stroke fill markers"
       id="path1445-12"
       sodipodi:type="arc"
       sodipodi:cx="72.649117"
       sodipodi:cy="264.04636"
       sodipodi:rx="4.6717548"
       sodipodi:ry="4.7971945"
       sodipodi:start="0"
       sodipodi:end="6.2803579"
       sodipodi:open="true"
       d="m 77.320871,264.04636 a 4.6717548,4.7971945 0 0 1 -4.668452,4.79719 4.6717548,4.7971945 0 0 1 -4.675053,-4.79041 4.6717548,4.7971945 0 0 1 4.661844,-4.80397 4.6717548,4.7971945 0 0 1 4.681643,4.78362" />
    <path
       style="opacity:1;fill:#c7d3fe;fill-opacity:1;stroke:none;stroke-width:1;stroke-linejoin:bevel;stroke-miterlimit:4;stroke-dasharray:none;stroke-dashoffset:0;stroke-opacity:1;paint-order:stroke fill markers"
       id="path1445-13"
       sodipodi:type="arc"
       sodipodi:cx="78.440681"
       sodipodi:cy="242.72598"
       sodipodi:rx="4.2593718"
       sodipodi:ry="4.3737388"
       sodipodi:start="0"
       sodipodi:end="6.2803579"
       sodipodi:open="true"
       d="m 82.700053,242.72598 a 4.2593718,4.3737388 0 0 1 -4.256361,4.37374 4.2593718,4.3737388 0 0 1 -4.262378,-4.36755 4.2593718,4.3737388 0 0 1 4.250335,-4.37992 4.2593718,4.3737388 0 0 1 4.268387,4.36137" />
    <path
       style="opacity:1;fill:#000000;fill-opacity:0;stroke:#dfe5fe;stroke-width:5;stroke-linejoin:bevel;stroke-miterlimit:4;stroke-dasharray:none;stroke-dashoffset:0;stroke-opacity:1;paint-order:stroke fill markers"
       id="path1504"
       sodipodi:type="arc"
       sodipodi:cx="72.69738"
       sodipodi:cy="263.94757"
       sodipodi:rx="10.59877"
       sodipodi:ry="10.204636"
       sodipodi:start="0"
       sodipodi:end="6.2803579"
       sodipodi:open="true"
       d="M 83.29615,263.94757 A 10.59877,10.204636 0 0 1 72.704872,274.1522 10.59877,10.204636 0 0 1 62.098621,263.962 10.59877,10.204636 0 0 1 72.674905,253.74296 10.59877,10.204636 0 0 1 83.296108,263.91872" />
    <path
       style="fill:#000000;fill-opacity:0;stroke:#e2e8fb;stroke-width:3;stroke-linecap:butt;stroke-linejoin:miter;stroke-miterlimit:4;stroke-dasharray:none;stroke-opacity:1"
       d="m 46.715407,246.97822 18.112099,10.5151"
       id="path1518"
       inkscape:connector-curvature="0" />
    <path
       style="opacity:1;fill:#818cf8;fill-opacity:1;stroke:none;stroke-width:1;stroke-linejoin:bevel;stroke-miterlimit:4;stroke-dasharray:none;stroke-dashoffset:0;stroke-opacity:1;paint-order:stroke fill markers"
       id="path1445"
       sodipodi:type="arc"
       sodipodi:cx="45.587757"
       sodipodi:cy="246.26826"
       sodipodi:rx="5.9946713"
       sodipodi:ry="6.155632"
       sodipodi:start="0"
       sodipodi:end="6.2803579"
       sodipodi:open="true"
       d="m 51.582428,246.26826 a 5.9946713,6.155632 0 0 1 -5.990434,6.15564 5.9946713,6.155632 0 0 1 -5.998902,-6.14693 5.9946713,6.155632 0 0 1 5.981953,-6.16432 5.9946713,6.155632 0 0 1 6.007359,6.13821" />
    <path
       style="fill:#000000;fill-opacity:0;stroke:#e2e8fb;stroke-width:3;stroke-linecap:butt;stroke-linejoin:miter;stroke-miterlimit:4;stroke-dasharray:none;stroke-opacity:1"
       d="M 111.50908,243.52842 81.662187,258.83555"
       id="path1518-8"
       inkscape:connector-curvature="0" />
    <path
       style="fill:#000000;fill-opacity:0;stroke:#e2e8fb;stroke-width:3;stroke-linecap:butt;stroke-linejoin:miter;stroke-miterlimit:4;stroke-dasharray:none;stroke-opacity:1"
       d="M 63.243453,269.233 36.835588,283.13192"
       id="path1518-8-6"
       inkscape:connector-curvature="0" />
    <path
       style="opacity:1;fill:#c7d3fe;fill-opacity:1;stroke:none;stroke-width:1;stroke-linejoin:bevel;stroke-miterlimit:4;stroke-dasharray:none;stroke-dashoffset:0;stroke-opacity:1;paint-order:stroke fill markers"
       id="path1445-13-6"
       sodipodi:type="arc"
       sodipodi:cx="30.571722"
       sodipodi:cy="286.33386"
       sodipodi:rx="9.1497622"
       sodipodi:ry="9.3954391"
       sodipodi:start="0"
       sodipodi:end="6.2803579"
       sodipodi:open="true"
       d="m 39.721484,286.33386 a 9.1497622,9.3954391 0 0 1 -9.143294,9.39544 9.1497622,9.3954391 0 0 1 -9.156221,-9.38216 9.1497622,9.3954391 0 0 1 9.13035,-9.4087 9.1497622,9.3954391 0 0 1 9.169129,9.36886" />
    <path
       style="fill:#000000;fill-opacity:0;stroke:#e2e8fb;stroke-width:3;stroke-linecap:butt;stroke-linejoin:miter;stroke-miterlimit:4;stroke-dasharray:none;stroke-opacity:1"
       d="M 81.678117,268.62711 103.7106,282.00998"
       id="path1518-4"
       inkscape:connector-curvature="0" />
    <path
       style="opacity:1;fill:#818cf8;fill-opacity:1;stroke:none;stroke-width:1;stroke-linejoin:bevel;stroke-miterlimit:4;stroke-dasharray:none;stroke-dashoffset:0;stroke-opacity:1;paint-order:stroke fill markers"
       id="path1445-8"
       sodipodi:type="arc"
       sodipodi:cx="106.63811"
       sodipodi:cy="283.25607"
       sodipodi:rx="5.9946713"
       sodipodi:ry="6.1556325"
       sodipodi:start="0"
       sodipodi:end="6.2803579"
       sodipodi:open="true"
       d="m 112.63278,283.25607 a 5.9946713,6.1556325 0 0 1 -5.99044,6.15563 5.9946713,6.1556325 0 0 1 -5.9989,-6.14692 5.9946713,6.1556325 0 0 1 5.98196,-6.16433 5.9946713,6.1556325 0 0 1 6.00735,6.13822" />
    <path
       style="fill:none;stroke:#e2e8fb;stroke-width:4;stroke-linecap:butt;stroke-linejoin:miter;stroke-miterlimit:4;stroke-dasharray:none;stroke-opacity:1"
       d="m 20.800583,241.98174 c 0,0 11.945286,-17.69566 39.464974,-20.19267 29.36927,-2.66484 48.234973,20.19267 48.234973,20.19267"
       id="path1582"
       inkscape:connector-curvature="0"
       sodipodi:nodetypes="csc" />
    <path
       style="fill:#dfe5ff;fill-opacity:1;stroke:#e2e8fb;stroke-width:7;stroke-linecap:butt;stroke-linejoin:miter;stroke-miterlimit:4;stroke-dasharray:none;stroke-opacity:1"
       d="m 9.057016,227.73107 13.381201,14.01779"
       id="path1593"
       inkscape:connector-curvature="0" />
    <path
       style="opacity:1;fill:#818cf8;fill-opacity:1;stroke:none;stroke-width:1;stroke-linejoin:bevel;stroke-miterlimit:4;stroke-dasharray:none;stroke-dashoffset:0;stroke-opacity:1;paint-order:stroke fill markers"
       id="path1445-1"
       sodipodi:type="arc"
       sodipodi:cx="107.88559"
       sodipodi:cy="245.64732"
       sodipodi:rx="5.9946713"
       sodipodi:ry="6.1556325"
       sodipodi:start="0"
       sodipodi:end="6.2803579"
       sodipodi:open="true"
       d="m 113.88026,245.64732 a 5.9946713,6.1556325 0 0 1 -5.99043,6.15563 5.9946713,6.1556325 0 0 1 -5.99891,-6.14692 5.9946713,6.1556325 0 0 1 5.98196,-6.16433 5.9946713,6.1556325 0 0 1 6.00736,6.13822" />
  </g>
</svg>
