<svg xmlns="http://www.w3.org/2000/svg" xmlns:xlink="http://www.w3.org/1999/xlink" width="75mm" height="75mm" viewBox="0 0 75 75">
  <defs>
    <linearGradient id="b">
      <stop style="stop-color:#dedede;stop-opacity:1" offset="0"/>
      <stop style="stop-color:#dedede;stop-opacity:0" offset="1"/>
    </linearGradient>
    <linearGradient id="a">
      <stop style="stop-color:#fffdfd;stop-opacity:1" offset="0"/>
      <stop style="stop-color:#fffdfd;stop-opacity:0" offset="1"/>
    </linearGradient>
    <linearGradient xlink:href="#a" id="d" x1="179.8" y1="74.5" x2="178.6" y2="92.9" gradientUnits="userSpaceOnUse" gradientTransform="matrix(.40432 0 0 .40432 -5 199.3)"/>
    <linearGradient xlink:href="#b" id="c" x1="135.1" y1="131.5" x2="174.8" y2="61.9" gradientUnits="userSpaceOnUse" gradientTransform="matrix(.40432 0 0 .40432 -5 199.3)"/>
  </defs>
  <g transform="translate(0 -222)">
    <rect style="fill:url(#c);fill-opacity:1;stroke:#000;stroke-width:1;stroke-miterlimit:4;stroke-dasharray:none;stroke-opacity:.99672134;paint-order:stroke fill markers" width="72.4" height="72.4" x="1.2" y="223.2" rx="6.5"/>
    <rect style="fill:#dedede;fill-opacity:1;stroke:#000;stroke-width:1;stroke-miterlimit:4;stroke-dasharray:none;stroke-opacity:.99672134;paint-order:stroke fill markers" width="35" height="35.4" x="19.9" y="241.7" rx="3.1"/>
    <path style="fill:none;stroke:#000;stroke-width:.19999999;stroke-linecap:butt;stroke-linejoin:miter;stroke-miterlimit:4;stroke-dasharray:none;stroke-opacity:1" d="M6.6 227.7c-.7.5-1.1 1.3-1.1 2.2 0 1.3.1 2.6.6 3.9.8 2 1.7 4.4 3.5 5.7 1.4 1 3.3 1.3 5 1 1-.2 1.9-.8 2.4-1.6.8-1.3 1-3 .6-4.5-.6-2.3-2.6-4.2-4.6-5.6a9.6 9.6 0 0 0-4-1.7c-1-.2-1.6 0-2.4.6z"/>
    <path style="fill:url(#d);fill-opacity:1;stroke:#000;stroke-width:.19999999;stroke-linecap:butt;stroke-linejoin:miter;stroke-miterlimit:4;stroke-dasharray:none;stroke-opacity:1" d="M68.3 227.7c-.7-.5-1.5-.8-2.4-.5-1.3.3-2.6.8-3.6 1.6-1.8 1.3-3.9 2.8-4.7 4.8-.6 1.6-.4 3.6.4 5.2.4.8 1.2 1.6 2.2 1.8 1.4.5 3.2.3 4.5-.5 2-1.3 3.3-3.7 4.2-6 .5-1.3.7-2.8.6-4.3-.1-1-.4-1.5-1.2-2z"/>
    <path style="fill:#dedede;fill-opacity:1;stroke:#000;stroke-width:.19999999;stroke-linecap:butt;stroke-linejoin:miter;stroke-miterlimit:4;stroke-dasharray:none;stroke-opacity:1" d="M6.1 291.6c.6.7 1.3 1.1 2.2 1.1 1.3 0 2.7-.1 4-.6 2-.8 4.4-1.7 5.7-3.5 1-1.4 1.3-3.3 1-5-.3-1-.9-1.9-1.7-2.4-1.3-.8-3-1-4.5-.6-2.3.6-4.1 2.7-5.6 4.6a9.6 9.6 0 0 0-1.7 4c-.1 1 0 1.6.6 2.4z"/>
    <path style="fill:#d9d9d9;fill-opacity:1;stroke:#000;stroke-width:.19999999;stroke-linecap:butt;stroke-linejoin:miter;stroke-miterlimit:4;stroke-dasharray:none;stroke-opacity:1" d="M68.4 292.2c.6-.6 1.1-1.3 1.1-2.2 0-1.3-.1-2.7-.6-4-.8-2-1.7-4.4-3.5-5.7a6.6 6.6 0 0 0-5-1c-1 .2-1.9.8-2.4 1.6-.8 1.3-1 3-.6 4.5.6 2.4 2.6 4.2 4.6 5.6 1.2 1 2.6 1.5 4 1.7 1 .2 1.6 0 2.4-.5z"/>
    <path style="fill:none;stroke:#000;stroke-width:7.0316448;stroke-linecap:butt;stroke-linejoin:miter;stroke-miterlimit:4;stroke-dasharray:none;stroke-opacity:1" d="M-257.6 78.4c5.3-3.8 10.6-7.5 17.2-10.5a59.5 59.5 0 0 1 46.5-.8c6.8 2.9 11.6 6.8 16.4 10.7" transform="matrix(.32267 0 0 .25072 107.5 232)"/>
    <path style="fill:none;stroke:#000;stroke-width:7.0316448;stroke-linecap:butt;stroke-linejoin:miter;stroke-miterlimit:4;stroke-dasharray:none;stroke-opacity:1" d="M-244.8 89c3.9-2.8 7.8-5.6 12.3-7.5 4.4-1.9 9.4-2.8 14.9-3 5.4-.1 11.3.4 16.3 2.3 5 1.8 9 5 13.1 8.3" transform="matrix(.32267 0 0 .25072 107.3 232.4)"/>
    <path style="fill:none;stroke:#000;stroke-width:7.0316448;stroke-linecap:butt;stroke-linejoin:miter;stroke-miterlimit:4;stroke-dasharray:none;stroke-opacity:1" d="M-232 101.9c2.7-1.8 5.3-3.6 8.3-5a22 22 0 0 1 9.6-2.5 23.8 23.8 0 0 1 16.9 7.5" transform="matrix(.32267 0 0 .25072 106.6 232.5)"/>
    <ellipse style="opacity:1;fill:#000;fill-opacity:.99090911;stroke:#000;stroke-width:2;stroke-linecap:square;stroke-linejoin:round;stroke-miterlimit:4;stroke-dasharray:none;stroke-dashoffset:0;stroke-opacity:1;paint-order:normal" cx="37.5" cy="261.4" rx="1.2" ry=".8"/>
    <path style="opacity:1;fill:red;fill-opacity:.99090911;stroke:red;stroke-width:.2;stroke-linecap:square;stroke-linejoin:miter;stroke-miterlimit:4;stroke-dasharray:none;stroke-dashoffset:0;stroke-opacity:1;paint-order:normal" d="M28.9 268.9h1.5v1.8h-1.5z"/>
    <text xml:space="preserve" style="font-style:normal;font-variant:normal;font-weight:400;font-stretch:condensed;font-size:4.27903128px;line-height:1.25;font-family:'Agency FB';-inkscape-font-specification:'Agency FB, Condensed';font-variant-ligatures:normal;font-variant-caps:normal;font-variant-numeric:normal;text-align:start;letter-spacing:0;word-spacing:0;writing-mode:lr-tb;text-anchor:start;fill:#000;fill-opacity:1;stroke:none;stroke-width:.26458329" x="33.4" y="269.3"><tspan x="33.4" y="269.3" style="font-style:normal;font-variant:normal;font-weight:700;font-stretch:normal;font-size:2.8526876px;font-family:'Book Antiqua';-inkscape-font-specification:'Book Antiqua, Bold';font-variant-ligatures:normal;font-variant-caps:normal;font-variant-numeric:normal;font-feature-settings:normal;text-align:start;writing-mode:lr-tb;text-anchor:start;stroke-width:.26458329">L-TECH</tspan></text>
    <path style="fill:none;stroke:#00f;stroke-width:1.06229946;stroke-linecap:butt;stroke-linejoin:miter;stroke-miterlimit:4;stroke-dasharray:none;stroke-opacity:.99939665" d="M-250.2 279.9h21.4" transform="matrix(.19229 0 0 .18434 77 215.7)"/>
    <path style="fill:none;stroke:#00f;stroke-width:1.13764894;stroke-linecap:butt;stroke-linejoin:miter;stroke-miterlimit:4;stroke-dasharray:none;stroke-opacity:.99939665" d="M-236.3 279.9v23" transform="matrix(.17955 0 0 .17213 73.4 220.1)"/>
    <path style="fill:none;stroke:#00f;stroke-width:1.15125883;stroke-linecap:butt;stroke-linejoin:miter;stroke-miterlimit:4;stroke-dasharray:none;stroke-opacity:.99939665" d="M-236.3 279.9v23" transform="matrix(.17743 0 0 .1701 74.1 220.7)"/>
    <path transform="matrix(.10275 0 0 .0985 54.6 240.8)" style="fill:none;stroke:#00f;stroke-width:1.9880631;stroke-linecap:butt;stroke-linejoin:miter;stroke-miterlimit:4;stroke-dasharray:none;stroke-opacity:.99939665" d="M-250.2 279.9h21.4"/>
    <path style="fill:none;stroke:#00f;stroke-width:1.02569187;stroke-linecap:butt;stroke-linejoin:miter;stroke-miterlimit:4;stroke-dasharray:none;stroke-opacity:.99939665" d="M-246.7 277.5v5.6" transform="matrix(.19915 0 0 .19092 78.1 214.3)"/>
    <path style="fill:none;stroke:#00f;stroke-width:1.01290342;stroke-linecap:butt;stroke-linejoin:miter;stroke-miterlimit:4;stroke-dasharray:none;stroke-opacity:.99939665" d="M-226.1 277v6.1" transform="matrix(.20166 0 0 .19333 78.5 213.7)"/>
    <path style="fill:none;stroke:#00f;stroke-width:1.06229949;stroke-linecap:butt;stroke-linejoin:miter;stroke-miterlimit:4;stroke-dasharray:none;stroke-opacity:.99939665" d="M-236.3 305.6h6.7" transform="matrix(.19229 0 0 .18434 76.4 215.8)"/>
    <path transform="matrix(.03846 0 0 .03687 41.7 258)" style="fill:none;stroke:#00f;stroke-width:5.31149843;stroke-linecap:butt;stroke-linejoin:miter;stroke-miterlimit:4;stroke-dasharray:none;stroke-opacity:.99939665" d="M-250.2 279.9h22.8"/>
    <text xml:space="preserve" style="font-style:normal;font-variant:normal;font-weight:400;font-stretch:normal;font-size:1.46481633px;line-height:1.25;font-family:'Baskerville Old Face';-inkscape-font-specification:'Baskerville Old Face, Normal';font-variant-ligatures:normal;font-variant-caps:normal;font-variant-numeric:normal;font-feature-settings:normal;text-align:start;letter-spacing:0;word-spacing:0;writing-mode:lr-tb;text-anchor:start;fill:#000;fill-opacity:1;stroke:none;stroke-width:.26458332" x="36.2" y="252.8" transform="scale(.92925 1.07613)"><tspan x="36.2" y="252.8" style="font-style:normal;font-variant:normal;font-weight:400;font-stretch:normal;font-size:1.46481633px;font-family:'Baskerville Old Face';-inkscape-font-specification:'Baskerville Old Face, Normal';font-variant-ligatures:normal;font-variant-caps:normal;font-variant-numeric:normal;font-feature-settings:normal;text-align:start;writing-mode:lr-tb;text-anchor:start;stroke-width:.26458332">CORPORATION</tspan></text>
    <path style="opacity:1;fill:#000;fill-opacity:.99090911;stroke:#080808;stroke-width:.99999988;stroke-linecap:square;stroke-linejoin:miter;stroke-miterlimit:4;stroke-dasharray:none;stroke-dashoffset:0;stroke-opacity:1;paint-order:normal" d="M28.2 290.4h1.2v1.4h-1.2z"/>
    <path style="opacity:1;fill:#000;fill-opacity:.99090911;stroke:#080808;stroke-width:.99999988;stroke-linecap:square;stroke-linejoin:miter;stroke-miterlimit:4;stroke-dasharray:none;stroke-dashoffset:0;stroke-opacity:1;paint-order:normal" d="M32.6 290.4h1.2v1.4h-1.2z"/>
    <path style="opacity:1;fill:#000;fill-opacity:.99090911;stroke:#080808;stroke-width:.99999988;stroke-linecap:square;stroke-linejoin:miter;stroke-miterlimit:4;stroke-dasharray:none;stroke-dashoffset:0;stroke-opacity:1;paint-order:normal" d="M40.1 290.4h1.2v1.4h-1.2z"/>
    <path style="opacity:1;fill:#000;fill-opacity:.99090911;stroke:#080808;stroke-width:.99999988;stroke-linecap:square;stroke-linejoin:miter;stroke-miterlimit:4;stroke-dasharray:none;stroke-dashoffset:0;stroke-opacity:1;paint-order:normal" d="M43.8 290.4H45v1.4h-1.2z"/>
    <path style="opacity:1;fill:#000;fill-opacity:.99090911;stroke:#080808;stroke-width:.99999988;stroke-linecap:square;stroke-linejoin:miter;stroke-miterlimit:4;stroke-dasharray:none;stroke-dashoffset:0;stroke-opacity:1;paint-order:normal" d="M47.1 290.4h1.2v1.4h-1.2z"/>
    <text xml:space="preserve" style="font-style:normal;font-variant:normal;font-weight:400;font-stretch:condensed;font-size:10.58333302px;line-height:1.25;font-family:'Agency FB';-inkscape-font-specification:'Agency FB, Condensed';font-variant-ligatures:normal;font-variant-caps:normal;font-variant-numeric:normal;text-align:start;letter-spacing:0;word-spacing:0;writing-mode:lr-tb;text-anchor:start;fill:#000;fill-opacity:1;stroke:none;stroke-width:.26458332" x="48.6" y="11"/>
    <text xml:space="preserve" style="font-style:normal;font-variant:normal;font-weight:400;font-stretch:normal;font-size:3.51696777px;line-height:1.25;font-family:sans-serif;-inkscape-font-specification:'sans-serif, Normal';font-variant-ligatures:normal;font-variant-caps:normal;font-variant-numeric:normal;font-feature-settings:normal;text-align:start;letter-spacing:0;word-spacing:0;writing-mode:lr-tb;text-anchor:start;fill:#000;fill-opacity:1;stroke:none;stroke-width:.26458329" x="20.5" y="230"><tspan x="20.5" y="230" style="font-style:normal;font-variant:normal;font-weight:400;font-stretch:condensed;font-size:1.17232251px;font-family:'Agency FB';-inkscape-font-specification:'Agency FB, Condensed';font-variant-ligatures:normal;font-variant-caps:normal;font-variant-numeric:normal;font-feature-settings:normal;text-align:start;writing-mode:lr-tb;text-anchor:start;stroke-width:.26458329">학교무선환경구축 도입및 설치 사업</tspan></text>
    <text xml:space="preserve" style="font-style:normal;font-variant:normal;font-weight:400;font-stretch:condensed;font-size:1.17232251px;line-height:1.25;font-family:'Agency FB';-inkscape-font-specification:'Agency FB, Condensed';font-variant-ligatures:normal;font-variant-caps:normal;font-variant-numeric:normal;font-feature-settings:normal;text-align:start;letter-spacing:0;word-spacing:0;writing-mode:lr-tb;text-anchor:start;fill:#000;fill-opacity:1;stroke:none;stroke-width:.26458329" x="20.5" y="234.8"><tspan x="20.5" y="234.8" style="font-style:normal;font-variant:normal;font-weight:400;font-stretch:condensed;font-size:1.17232251px;font-family:'Agency FB';-inkscape-font-specification:'Agency FB, Condensed';font-variant-ligatures:normal;font-variant-caps:normal;font-variant-numeric:normal;font-feature-settings:normal;text-align:start;writing-mode:lr-tb;text-anchor:start;stroke-width:.26458329">제조사 : 엘텍(주)</tspan></text>
    <text xml:space="preserve" style="font-style:normal;font-variant:normal;font-weight:400;font-stretch:condensed;font-size:1.17232251px;line-height:1.25;font-family:'Agency FB';-inkscape-font-specification:'Agency FB, Condensed';font-variant-ligatures:normal;font-variant-caps:normal;font-variant-numeric:normal;font-feature-settings:normal;text-align:start;letter-spacing:0;word-spacing:0;writing-mode:lr-tb;text-anchor:start;fill:#000;fill-opacity:1;stroke:none;stroke-width:.26458329" x="20.5" y="232.5"><tspan x="20.5" y="232.5" style="font-style:normal;font-variant:normal;font-weight:400;font-stretch:condensed;font-size:1.17232251px;font-family:'Agency FB';-inkscape-font-specification:'Agency FB, Condensed';font-variant-ligatures:normal;font-variant-caps:normal;font-variant-numeric:normal;font-feature-settings:normal;text-align:start;writing-mode:lr-tb;text-anchor:start;stroke-width:.26458329">모델명 : H83AX-P</tspan></text>
    <text xml:space="preserve" style="font-style:normal;font-variant:normal;font-weight:400;font-stretch:condensed;font-size:1.17232251px;line-height:1.25;font-family:'Agency FB';-inkscape-font-specification:'Agency FB, Condensed';font-variant-ligatures:normal;font-variant-caps:normal;font-variant-numeric:normal;font-feature-settings:normal;text-align:start;letter-spacing:0;word-spacing:0;writing-mode:lr-tb;text-anchor:start;fill:#000;fill-opacity:1;stroke:none;stroke-width:.26458329" x="20.5" y="236.9"><tspan x="20.5" y="236.9" style="font-style:normal;font-variant:normal;font-weight:400;font-stretch:condensed;font-size:1.17232251px;font-family:'Agency FB';-inkscape-font-specification:'Agency FB, Condensed';font-variant-ligatures:normal;font-variant-caps:normal;font-variant-numeric:normal;font-feature-settings:normal;text-align:start;writing-mode:lr-tb;text-anchor:start;stroke-width:.26458329">도입년월 : 2021년 6월(유지보수 5년)</tspan></text>
    <text xml:space="preserve" style="font-style:normal;font-variant:normal;font-weight:400;font-stretch:condensed;font-size:1.17232251px;line-height:1.25;font-family:'Agency FB';-inkscape-font-specification:'Agency FB, Condensed';font-variant-ligatures:normal;font-variant-caps:normal;font-variant-numeric:normal;font-feature-settings:normal;text-align:start;letter-spacing:0;word-spacing:0;writing-mode:lr-tb;text-anchor:start;fill:#000;fill-opacity:1;stroke:none;stroke-width:.26458329" x="20.6" y="238.9"><tspan x="20.6" y="238.9" style="font-style:normal;font-variant:normal;font-weight:400;font-stretch:condensed;font-size:1.17232251px;font-family:'Agency FB';-inkscape-font-specification:'Agency FB, Condensed';font-variant-ligatures:normal;font-variant-caps:normal;font-variant-numeric:normal;font-feature-settings:normal;text-align:start;writing-mode:lr-tb;text-anchor:start;stroke-width:.26458329">AP번호 :</tspan></text>
    <text xml:space="preserve" style="font-style:normal;font-variant:normal;font-weight:400;font-stretch:condensed;font-size:1.17232251px;line-height:1.25;font-family:'Agency FB';-inkscape-font-specification:'Agency FB, Condensed';font-variant-ligatures:normal;font-variant-caps:normal;font-variant-numeric:normal;font-feature-settings:normal;text-align:start;letter-spacing:0;word-spacing:0;writing-mode:lr-tb;text-anchor:start;fill:#000;fill-opacity:1;stroke:none;stroke-width:.26458329" x="40.3" y="233.7"><tspan x="40.3" y="233.7" style="stroke-width:.26458329">학교 무선인프라 지원센터</tspan></text>
    <text xml:space="preserve" style="font-style:normal;font-variant:normal;font-weight:400;font-stretch:condensed;font-size:2.50854087px;line-height:1.25;font-family:'Agency FB';-inkscape-font-specification:'Agency FB, Condensed';font-variant-ligatures:normal;font-variant-caps:normal;font-variant-numeric:normal;font-feature-settings:normal;text-align:start;letter-spacing:0;word-spacing:0;writing-mode:lr-tb;text-anchor:start;fill:#000;fill-opacity:1;stroke:none;stroke-width:.26458335" x="38.3" y="236.9" transform="scale(.99984 1.00016)"><tspan x="38.3" y="236.9" style="font-style:normal;font-variant:normal;font-weight:400;font-stretch:normal;font-size:3.51204395px;font-family:Arial;-inkscape-font-specification:'Arial, Normal';font-variant-ligatures:normal;font-variant-caps:normal;font-variant-numeric:normal;font-feature-settings:normal;text-align:start;writing-mode:lr-tb;text-anchor:start;stroke-width:.26458335">1588-5509</tspan></text>
    <ellipse style="opacity:1;fill:red;fill-opacity:.99090911;stroke:red;stroke-width:.99999988;stroke-linecap:square;stroke-linejoin:round;stroke-miterlimit:4;stroke-dasharray:none;stroke-dashoffset:0;stroke-opacity:1;paint-order:normal" cx="39.4" cy="233.3" rx=".6" ry=".5"/>
    <path style="fill:#fffdfd;fill-opacity:.99090911;stroke:#fff;stroke-width:6.47958326px;stroke-linecap:butt;stroke-linejoin:miter;stroke-opacity:1" d="M182.2 10.6c1.8-.1 3 1.2 2.6 2.3-.3 1.1-2.1 2-2 3.5 0 1.5 2 3.3 3.4 4.6 1.4 1.4 2.3 2.1 3.4 1.8 1.2-.3 2.7-1.6 4-1.8 1.1-.3 2 .5 2.7 1.3.8.7 1.4 1.4.2 2.5a21 21 0 0 1-6.2 3.2c-2 .5-2.6.2-5.2-2-2.5-2.3-6.9-6.3-8.8-8.7-2-2.4-1.4-3.2.1-4.2 1.5-1.1 4-2.5 5.8-2.5z" transform="matrix(.03748 0 0 .04449 32.4 232.4)"/>
    <path style="fill:none;stroke:#fff;stroke-width:7.98534918;stroke-linecap:butt;stroke-linejoin:miter;stroke-miterlimit:4;stroke-dasharray:none;stroke-opacity:1" d="M-244.8 89c3.9-2.8 7.8-5.6 12.3-7.5 4.4-1.9 9.4-2.8 14.9-3 5.4-.1 11.3.4 16.3 2.3 5 1.8 9 5 13.1 8.3" transform="matrix(.0094 .01054 -.0089 .00671 42.6 234.7)"/>
    <path style="fill:none;stroke:#fff;stroke-width:7.98534918;stroke-linecap:butt;stroke-linejoin:miter;stroke-miterlimit:4;stroke-dasharray:none;stroke-opacity:1" d="M-232 101.9c2.7-1.8 5.3-3.6 8.3-5a22 22 0 0 1 9.6-2.5 23.8 23.8 0 0 1 16.9 7.5" transform="matrix(.0094 .01054 -.0089 .00671 42.6 234.7)"/>
    <path style="fill:#f1b826;fill-opacity:.98431373;stroke:#f1b826;stroke-width:1;stroke-linejoin:bevel;stroke-miterlimit:4;stroke-dasharray:none;stroke-opacity:.98431373;paint-order:stroke fill markers" d="M28.4 273.6h15.7v2.7H28.4z"/>
    <text xml:space="preserve" style="font-style:normal;font-weight:400;font-size:3.3145237px;line-height:1.25;font-family:sans-serif;letter-spacing:0;word-spacing:0;fill:#000;fill-opacity:1;stroke:none;stroke-width:.26458332" x="26.3" y="320.6" transform="scale(1.1619 .86066)"><tspan x="26.3" y="320.6" style="stroke-width:.26458332">AP-XX</tspan></text>
    <path style="fill:#00f;fill-opacity:1;stroke:#00f;stroke-width:.2;stroke-linejoin:bevel;stroke-miterlimit:4;stroke-dasharray:none;stroke-opacity:1;paint-order:stroke fill markers" d="M29.2 272.1h-.7a1 1 0 0 1-.5-.2l-.3-.3c-.1-.3 0-.8 0-.8l-.1-2.4v-1.2h.8v4.1h2.2v.8h-1.4z"/>
  </g>
</svg>