<svg xmlns="http://www.w3.org/2000/svg" xmlns:xlink="http://www.w3.org/1999/xlink" width="85mm" height="22mm" viewBox="0 0 85 22">
  <defs>
    <linearGradient id="c">
      <stop style="stop-color:#333b4f;stop-opacity:1" offset="0"/>
      <stop offset=".4" style="stop-color:#333b4f;stop-opacity:.6745098"/>
      <stop style="stop-color:#333b4f;stop-opacity:0" offset="1"/>
    </linearGradient>
    <linearGradient id="b">
      <stop style="stop-color:#333b4f;stop-opacity:1" offset="0"/>
      <stop offset=".5" style="stop-color:#333b4f;stop-opacity:.71372549"/>
      <stop offset=".7" style="stop-color:#333b4f;stop-opacity:.45882353"/>
      <stop style="stop-color:#333b4f;stop-opacity:0" offset="1"/>
    </linearGradient>
    <linearGradient id="a">
      <stop style="stop-color:#333b4f;stop-opacity:1" offset="0"/>
      <stop offset=".4" style="stop-color:#333b4f;stop-opacity:.92941176"/>
      <stop offset=".8" style="stop-color:#333b4f;stop-opacity:.45098039"/>
      <stop style="stop-color:#333b4f;stop-opacity:0" offset="1"/>
    </linearGradient>
    <linearGradient xlink:href="#a" id="d" x1="-3.2" y1="295.8" x2="92" y2="277.5" gradientUnits="userSpaceOnUse"/>
    <linearGradient xlink:href="#b" id="e" x1="60.8" y1="267" x2="76.4" y2="298.6" gradientUnits="userSpaceOnUse"/>
    <linearGradient xlink:href="#c" id="f" x1="92.9" y1="288.2" x2="34.5" y2="277.5" gradientUnits="userSpaceOnUse"/>
  </defs>
  <g transform="translate(0 -275)" style="display:inline">
    <rect style="opacity:1;fill:url(#d);fill-opacity:1;stroke:none;stroke-width:.49999997;stroke-linecap:round;stroke-linejoin:round;stroke-miterlimit:6.5999999;stroke-dasharray:none;stroke-dashoffset:0;stroke-opacity:1;paint-order:normal" width="64.9" height="12.9" x="1.3" y="283.1" ry=".4" rx=".4"/>
    <path style="fill:url(#e);fill-opacity:1;stroke:none;stroke-width:.26458332px;stroke-linecap:butt;stroke-linejoin:miter;stroke-opacity:1" d="m1.1 283.2 24.6-7H84L66.2 283"/>
    <path style="fill:url(#f);fill-opacity:1;stroke:none;stroke-width:.26458332px;stroke-linecap:butt;stroke-linejoin:miter;stroke-opacity:1" d="M66.2 283v13L84 288l-.2-11.8z"/>
    <path style="display:inline;opacity:1;fill:#fdfdf1;fill-opacity:.96649487;stroke:#000;stroke-width:.2;" d="M6 292.1v-.4h.7V290H3.8v1.7h.8v.4z"/>
    <path d="M9.2 287.3v.4h-.7v1.7h2.9v-1.7h-.8v-.4z"   style="fill:#fdfdf1;stroke:#000;stroke-width:.2;"/>
    <path d="M10.7 292.1v-.3h.7V290h-3v1.8h.8v.3z"      style="fill:#fdfdf1;stroke:#000;stroke-width:.2;"/>
    <path d="M12.3 287.3v.4h-.7v1.7h2.9v-1.7h-.7v-.4z"  style="fill:#fdfdf1;stroke:#000;stroke-width:.2;"/>
    <path d="M13.8 292.1v-.3h.7V290h-2.9v1.8h.7v.3z"    style="fill:#fdfdf1;stroke:#000;stroke-width:.2;"/>
    <path d="M15.4 287.3v.4h-.7v1.7h3v-1.7h-.8v-.4z"    style="fill:#fdfdf1;stroke:#000;stroke-width:.2;"/>
    <path d="M17 292.1v-.3h.6V290h-2.9v1.8h.8v.3z"      style="fill:#fdfdf1;stroke:#000;stroke-width:.2;"/>
    <path d="M18.6 287.3v.4h-.7v1.7h2.9v-1.7H20v-.4z"   style="fill:#fdfdf1;stroke:#000;stroke-width:.2;"/>
    <path d="M20 292.1v-.3h.8V290h-3v1.8h.8v.3z"        style="fill:#fdfdf1;stroke:#000;stroke-width:.2;"/>
    <path d="M22.4 287.3v.4h-.7v1.7h2.9v-1.7h-.8v-.4z"  style="fill:#fdfdf1;stroke:#000;stroke-width:.2;"/>
    <path d="M23.8 292.1v-.3h.7V290h-2.8v1.8h.7v.3z"    style="fill:#fdfdf1;stroke:#000;stroke-width:.2;"/>
    <path d="M25.5 287.3v.4h-.7v1.7h2.9v-1.7H27v-.4z"   style="fill:#fdfdf1;stroke:#000;stroke-width:.2;"/>
    <path d="M27 292.1v-.3h.7V290h-2.9v1.8h.7v.3z"      style="fill:#fdfdf1;stroke:#000;stroke-width:.2;"/>
    <path d="M28.9 287.3v.4h-.7v1.7h2.9v-1.7h-.7v-.4z"  style="fill:#fdfdf1;stroke:#000;stroke-width:.2;"/>
    <path d="M30.4 292.1v-.3h.7V290h-2.9v1.8h.7v.3z"    style="fill:#fdfdf1;stroke:#000;stroke-width:.2;"/>
    <path d="M32 287.3v.4h-.7v1.7h3v-1.7h-.8v-.4z"      style="fill:#fdfdf1;stroke:#000;stroke-width:.2;"/>
    <path d="M33.5 292.1v-.3h.7V290h-2.9v1.8h.8v.3z"    style="fill:#fdfdf1;stroke:#000;stroke-width:.2;"/>
    <path d="M35.9 287.3v.4h-.7v1.7H38v-1.7h-.8v-.4z"   style="fill:#fdfdf1;stroke:#000;stroke-width:.2;"/>
    <path d="M37.4 292.1v-.3h.7V290h-3v1.8h.8v.3z"      style="fill:#fdfdf1;stroke:#000;stroke-width:.2;"/>
    <path d="M39 287.3v.4h-.7v1.7H41v-1.7h-.7v-.4z"     style="fill:#fdfdf1;stroke:#000;stroke-width:.2;"/>
    <path d="M40.4 292.1v-.3h.7V290h-2.8v1.8h.7v.3z"    style="fill:#fdfdf1;stroke:#000;stroke-width:.2;"/>
    <path d="M42.1 287.3v.4h-.7v1.7h2.9v-1.7h-.7v-.4z"  style="fill:#fdfdf1;stroke:#000;stroke-width:.2;"/>
    <path d="M43.6 292.1v-.3h.7V290h-2.9v1.8h.7v.3z"    style="fill:#fdfdf1;stroke:#000;stroke-width:.2;"/>
    <path d="M45.3 287.3v.4h-.7v1.7h2.9v-1.7h-.7v-.4z"  style="fill:#fdfdf1;stroke:#000;stroke-width:.2;"/>
    <path d="M46.8 292.1v-.3h.7V290h-2.9v1.8h.7v.3z"    style="fill:#fdfdf1;stroke:#000;stroke-width:.2;"/>
    <path style="display:inline;fill:#fdfdf1;stroke:#000;stroke-width:.2;" d="M50.9 290v1.8h1.4v-.3h.2v.3h1.4v-1.9h-1.4v.2h-.2v-.2z"/>
    <path style="display:inline;fill:#fdfdf1;stroke:#000;stroke-width:.2;" d="M54 290v1.8h1.5v-.3h.2v.3H57v-1.9h-1.4v.2h-.2v-.2z"/>
    <path style="display:inline;fill:#fdfdf1;stroke:#000;stroke-width:.2;" d="M50.9 287.6v1.8h1.4v-.2h.2v.2h1.4v-1.8h-1.4v.2h-.2v-.2z"/>
    <path style="display:inline;fill:#fdfdf1;stroke:#000;stroke-width:.2;" d="M54 287.6v1.8h1.5v-.2h.2v.2H57v-1.8h-1.4v.2h-.2v-.2z"/>
    <path style="display:inline;fill:#fdfdf1;stroke:#000;stroke-width:.2;" d="M58.3 289.8v1.9h1.4v-.2h.2v.2h1.4v-1.9h-1.4v.3h-.2v-.3z"/>
    <path style="display:inline;fill:#fdfdf1;stroke:#000;stroke-width:.2;" d="M61.5 289.8v1.9h1.4v-.2h.2v.2h1.4v-1.9h-1.4v.3h-.2v-.3z"/>
    <path style="display:inline;fill:#fdfdf1;stroke:#000;stroke-width:.2;" d="M58.3 287.5v1.8h1.4v-.2h.2v.2h1.4v-1.8h-1.4v.2h-.2v-.2z"/>
    <path style="display:inline;fill:#fdfdf1;stroke:#000;stroke-width:.2;" d="M61.5 287.5v1.8h1.4v-.2h.2v.2h1.4v-1.8h-1.4v.2h-.2v-.2z"/>
    <path d="M4.5 287.4v.3h-.7v1.7h3v-1.7H6v-.3z" style="display:inline;opacity:1;fill:#fdfdf1;stroke:#000;stroke-width:.2;"/>
  </g>
</svg>