
<svg xmlns="http://www.w3.org/2000/svg" xmlns:xlink="http://www.w3.org/1999/xlink" width="85mm" height="22mm" viewBox="0 0 85 22">
  <defs>
    <linearGradient id="a">
      <stop style="stop-color:#ccc;stop-opacity:1" offset="0"/>
      <stop style="stop-color:#ccc;stop-opacity:0" offset="1"/>
    </linearGradient>
    <linearGradient xlink:href="#a" id="d" x1="87.7" y1="287.3" x2="52.1" y2="271.4" gradientUnits="userSpaceOnUse"/>
    <linearGradient xlink:href="#a" id="b" x1="40.5" y1="287.4" x2="76.3" y2="276.2" gradientUnits="userSpaceOnUse"/>
    <linearGradient xlink:href="#a" id="c" x1="61.7" y1="270.8" x2="67.6" y2="300.4" gradientUnits="userSpaceOnUse"/>
  </defs>
  <g transform="translate(0 -275)" style="display:inline">
    <rect style="opacity:1;fill:url(#b);fill-opacity:1;stroke:#110505;stroke-width:.2;stroke-linecap:round;stroke-linejoin:round;stroke-miterlimit:6.5999999;stroke-dasharray:none;stroke-dashoffset:0;stroke-opacity:1;paint-order:normal" width="64.9" height="12.9" x="1.3" y="283.1" ry=".4" rx=".4"/>
    <path style="fill:url(#c);fill-opacity:1;stroke:#110505;stroke-width:.2;stroke-linecap:butt;stroke-linejoin:miter;stroke-miterlimit:6.5999999;stroke-dasharray:none;stroke-opacity:1" d="m1.5 283 24.2-6.9H84L66.3 283"/>
    <path style="fill:url(#d);fill-opacity:1;stroke:#110505;stroke-width:.2;stroke-linecap:butt;stroke-linejoin:miter;stroke-opacity:1;stroke-miterlimit:6.5999999;stroke-dasharray:none" d="M66.2 283v13L84 288l-.2-11.8z"/>
    <path d="M56.6 290v1.6h1.2v-.2h.2v.2h1.2v-1.5H58v.1h-.2v-.1z" style="opacity:1;fill:#fff;fill-opacity:.79215686;stroke:#000;stroke-width:.2;stroke-linecap:round;stroke-linejoin:round;stroke-miterlimit:6.5999999;stroke-dasharray:none;stroke-dashoffset:0;stroke-opacity:.97938143;paint-order:normal"/>
    <path d="M59.3 290v1.6h1.3v-.2h.1v.2H62v-1.5h-1.3v.1h-.1v-.1z" style="opacity:1;fill:#fff;fill-opacity:.79215686;stroke:#000;stroke-width:.2;stroke-linecap:round;stroke-linejoin:round;stroke-miterlimit:6.5999999;stroke-dasharray:none;stroke-dashoffset:0;stroke-opacity:.97938143;paint-order:normal"/>
    <path d="M22.8 287.8v.3h-.6v1.4h2.5v-1.4h-.6v-.3z" style="opacity:1;fill:#fff;fill-opacity:.79215686;stroke:#000;stroke-width:.2;stroke-linecap:round;stroke-linejoin:round;stroke-miterlimit:6.5999999;stroke-dasharray:none;stroke-dashoffset:0;stroke-opacity:.97938143;paint-order:normal"/>
    <path d="M24.1 291.8v-.3h.6v-1.4h-2.5v1.4h.7v.3z" style="opacity:1;fill:#fff;fill-opacity:.79215686;stroke:#000;stroke-width:.2;stroke-linecap:round;stroke-linejoin:round;stroke-miterlimit:6.5999999;stroke-dasharray:none;stroke-dashoffset:0;stroke-opacity:.97938143;paint-order:normal"/>
    <path d="M25.6 287.8v.3H25v1.4h2.5v-1.4h-.7v-.3z" style="opacity:1;fill:#fff;fill-opacity:.79215686;stroke:#000;stroke-width:.2;stroke-linecap:round;stroke-linejoin:round;stroke-miterlimit:6.5999999;stroke-dasharray:none;stroke-dashoffset:0;stroke-opacity:.97938143;paint-order:normal"/>
    <path d="M26.9 291.8v-.3h.6v-1.4H25v1.4h.6v.3z" style="opacity:1;fill:#fff;fill-opacity:.79215686;stroke:#000;stroke-width:.2;stroke-linecap:round;stroke-linejoin:round;stroke-miterlimit:6.5999999;stroke-dasharray:none;stroke-dashoffset:0;stroke-opacity:.97938143;paint-order:normal"/>
    <path d="M28.3 287.8v.3h-.6v1.4h2.5v-1.4h-.6v-.3z" style="opacity:1;fill:#fff;fill-opacity:.79215686;stroke:#000;stroke-width:.2;stroke-linecap:round;stroke-linejoin:round;stroke-miterlimit:6.5999999;stroke-dasharray:none;stroke-dashoffset:0;stroke-opacity:.97938143;paint-order:normal"/>
    <path d="M29.6 291.8v-.3h.6v-1.4h-2.5v1.4h.6v.3z" style="opacity:1;fill:#fff;fill-opacity:.79215686;stroke:#000;stroke-width:.2;stroke-linecap:round;stroke-linejoin:round;stroke-miterlimit:6.5999999;stroke-dasharray:none;stroke-dashoffset:0;stroke-opacity:.97938143;paint-order:normal"/>
    <path d="M31 287.8v.3h-.6v1.4H33v-1.4h-.6v-.3z" style="opacity:1;fill:#fff;fill-opacity:.79215686;stroke:#000;stroke-width:.2;stroke-linecap:round;stroke-linejoin:round;stroke-miterlimit:6.5999999;stroke-dasharray:none;stroke-dashoffset:0;stroke-opacity:.97938143;paint-order:normal"/>
    <path d="M32.3 291.8v-.3h.6v-1.4h-2.5v1.4h.6v.3z" style="opacity:1;fill:#fff;fill-opacity:.79215686;stroke:#000;stroke-width:.2;stroke-linecap:round;stroke-linejoin:round;stroke-miterlimit:6.5999999;stroke-dasharray:none;stroke-dashoffset:0;stroke-opacity:.97938143;paint-order:normal"/>
    <path d="M33.7 287.8v.3h-.6v1.4h2.5v-1.4H35v-.3z" style="opacity:1;fill:#fff;fill-opacity:.79215686;stroke:#000;stroke-width:.2;stroke-linecap:round;stroke-linejoin:round;stroke-miterlimit:6.5999999;stroke-dasharray:none;stroke-dashoffset:0;stroke-opacity:.97938143;paint-order:normal"/>
    <path d="M35 291.8v-.3h.6v-1.4h-2.5v1.4h.7v.3z" style="opacity:1;fill:#fff;fill-opacity:.79215686;stroke:#000;stroke-width:.2;stroke-linecap:round;stroke-linejoin:round;stroke-miterlimit:6.5999999;stroke-dasharray:none;stroke-dashoffset:0;stroke-opacity:.97938143;paint-order:normal"/>
    <path d="M36.5 287.8v.3h-.6v1.4h2.5v-1.4h-.7v-.3z" style="opacity:1;fill:#fff;fill-opacity:.79215686;stroke:#000;stroke-width:.2;stroke-linecap:round;stroke-linejoin:round;stroke-miterlimit:6.5999999;stroke-dasharray:none;stroke-dashoffset:0;stroke-opacity:.97938143;paint-order:normal"/>
    <path d="M37.8 291.8v-.3h.6v-1.4h-2.5v1.4h.6v.3z" style="opacity:1;fill:#fff;fill-opacity:.79215686;stroke:#000;stroke-width:.2;stroke-linecap:round;stroke-linejoin:round;stroke-miterlimit:6.5999999;stroke-dasharray:none;stroke-dashoffset:0;stroke-opacity:.97938143;paint-order:normal"/>
    <path d="M40 287.8v.3h-.6v1.4h2.5v-1.4h-.6v-.3z" style="opacity:1;fill:#fff;fill-opacity:.79215686;stroke:#000;stroke-width:.2;stroke-linecap:round;stroke-linejoin:round;stroke-miterlimit:6.5999999;stroke-dasharray:none;stroke-dashoffset:0;stroke-opacity:.97938143;paint-order:normal"/>
    <path d="M41.3 291.8v-.3h.6v-1.4h-2.5v1.4h.6v.3z" style="opacity:1;fill:#fff;fill-opacity:.79215686;stroke:#000;stroke-width:.2;stroke-linecap:round;stroke-linejoin:round;stroke-miterlimit:6.5999999;stroke-dasharray:none;stroke-dashoffset:0;stroke-opacity:.97938143;paint-order:normal"/>
    <path d="M42.7 287.8v.3h-.6v1.4h2.5v-1.4H44v-.3z" style="opacity:1;fill:#fff;fill-opacity:.79215686;stroke:#000;stroke-width:.2;stroke-linecap:round;stroke-linejoin:round;stroke-miterlimit:6.5999999;stroke-dasharray:none;stroke-dashoffset:0;stroke-opacity:.97938143;paint-order:normal"/>
    <path d="M44 291.8v-.3h.6v-1.4h-2.5v1.4h.6v.3z" style="opacity:1;fill:#fff;fill-opacity:.79215686;stroke:#000;stroke-width:.2;stroke-linecap:round;stroke-linejoin:round;stroke-miterlimit:6.5999999;stroke-dasharray:none;stroke-dashoffset:0;stroke-opacity:.97938143;paint-order:normal"/>
    <path d="M45.5 287.8v.3h-.6v1.4h2.5v-1.4h-.6v-.3z" style="opacity:1;fill:#fff;fill-opacity:.79215686;stroke:#000;stroke-width:.2;stroke-linecap:round;stroke-linejoin:round;stroke-miterlimit:6.5999999;stroke-dasharray:none;stroke-dashoffset:0;stroke-opacity:.97938143;paint-order:normal"/>
    <path d="M46.8 291.8v-.3h.6v-1.4H45v1.4h.6v.3z" style="opacity:1;fill:#fff;fill-opacity:.79215686;stroke:#000;stroke-width:.2;stroke-linecap:round;stroke-linejoin:round;stroke-miterlimit:6.5999999;stroke-dasharray:none;stroke-dashoffset:0;stroke-opacity:.97938143;paint-order:normal"/>
    <path d="M48.2 287.8v.3h-.6v1.4H50v-1.4h-.7v-.3z" style="opacity:1;fill:#fff;fill-opacity:.79215686;stroke:#000;stroke-width:.2;stroke-linecap:round;stroke-linejoin:round;stroke-miterlimit:6.5999999;stroke-dasharray:none;stroke-dashoffset:0;stroke-opacity:.97938143;paint-order:normal"/>
    <path d="M49.5 291.8v-.3h.6v-1.4h-2.5v1.4h.6v.3z" style="opacity:1;fill:#fff;fill-opacity:.79215686;stroke:#000;stroke-width:.2;stroke-linecap:round;stroke-linejoin:round;stroke-miterlimit:6.5999999;stroke-dasharray:none;stroke-dashoffset:0;stroke-opacity:.97938143;paint-order:normal"/>
    <path d="M51 287.8v.3h-.7v1.4h2.5v-1.4h-.6v-.3z" style="opacity:1;fill:#fff;fill-opacity:.79215686;stroke:#000;stroke-width:.2;stroke-linecap:round;stroke-linejoin:round;stroke-miterlimit:6.5999999;stroke-dasharray:none;stroke-dashoffset:0;stroke-opacity:.97938143;paint-order:normal"/>
    <path d="M52.2 291.8v-.3h.6v-1.4h-2.5v1.4h.6v.3z" style="opacity:1;fill:#fff;fill-opacity:.79215686;stroke:#000;stroke-width:.2;stroke-linecap:round;stroke-linejoin:round;stroke-miterlimit:6.5999999;stroke-dasharray:none;stroke-dashoffset:0;stroke-opacity:.97938143;paint-order:normal"/>
    <path d="M53.7 287.8v.3H53v1.4h2.5v-1.4H55v-.3z" style="opacity:1;fill:#fff;fill-opacity:.79215686;stroke:#000;stroke-width:.2;stroke-linecap:round;stroke-linejoin:round;stroke-miterlimit:6.5999999;stroke-dasharray:none;stroke-dashoffset:0;stroke-opacity:.97938143;paint-order:normal"/>
    <path d="M55 291.8v-.3h.6v-1.4h-2.5v1.4h.6v.3z" style="opacity:1;fill:#fff;fill-opacity:.79215686;stroke:#000;stroke-width:.2;stroke-linecap:round;stroke-linejoin:round;stroke-miterlimit:6.5999999;stroke-dasharray:none;stroke-dashoffset:0;stroke-opacity:.97938143;paint-order:normal"/>
    <path d="M56.6 288v1.6h1.2v-.2h.2v.2h1.2v-1.5H58v.1h-.2v-.1z" style="opacity:1;fill:#fff;fill-opacity:.79215686;stroke:#000;stroke-width:.2;stroke-linecap:round;stroke-linejoin:round;stroke-miterlimit:6.5999999;stroke-dasharray:none;stroke-dashoffset:0;stroke-opacity:.97938143;paint-order:normal"/>
    <path d="M59.3 288v1.6h1.3v-.2h.1v.2H62v-1.5h-1.3v.1h-.1v-.1z" style="opacity:1;fill:#fff;fill-opacity:.79215686;stroke:#000;stroke-width:.2;stroke-linecap:round;stroke-linejoin:round;stroke-miterlimit:6.5999999;stroke-dasharray:none;stroke-dashoffset:0;stroke-opacity:.97938143;paint-order:normal"/>
    <path d="M15.7 290v1.6h1.2v-.2h.2v.2h1.2v-1.5h-1.2v.2h-.2v-.2z" style="opacity:1;fill:#fff;fill-opacity:.79215686;stroke:#000;stroke-width:.2;stroke-linecap:round;stroke-linejoin:round;stroke-miterlimit:6.5999999;stroke-dasharray:none;stroke-dashoffset:0;stroke-opacity:.97938143;paint-order:normal"/>
    <path d="M18.4 290v1.6h1.3v-.2h.1v.2h1.3v-1.5h-1.3v.2h-.1v-.2z" style="opacity:1;fill:#fff;fill-opacity:.79215686;stroke:#000;stroke-width:.2;stroke-linecap:round;stroke-linejoin:round;stroke-miterlimit:6.5999999;stroke-dasharray:none;stroke-dashoffset:0;stroke-opacity:.97938143;paint-order:normal"/>
    <path d="M15.7 288.1v1.5h1.2v-.2h.2v.2h1.2v-1.5h-1.2v.2h-.2v-.2z" style="opacity:1;fill:#fff;fill-opacity:.79215686;stroke:#000;stroke-width:.2;stroke-linecap:round;stroke-linejoin:round;stroke-miterlimit:6.5999999;stroke-dasharray:none;stroke-dashoffset:0;stroke-opacity:.97938143;paint-order:normal"/>
    <path d="M18.4 288.1v1.5h1.3v-.2h.1v.2h1.3v-1.5h-1.3v.2h-.1v-.2z" style="opacity:1;fill:#fff;fill-opacity:.79215686;stroke:#000;stroke-width:.2;stroke-linecap:round;stroke-linejoin:round;stroke-miterlimit:6.5999999;stroke-dasharray:none;stroke-dashoffset:0;stroke-opacity:.97938143;paint-order:normal"/>
    <path d="M12.5 290v.4H12v1.4h2.5v-1.4h-.6v-.3z" style="opacity:1;fill:#fff;fill-opacity:.79215686;stroke:#000;stroke-width:.2;stroke-linecap:round;stroke-linejoin:round;stroke-miterlimit:6.5999999;stroke-dasharray:none;stroke-dashoffset:0;stroke-opacity:.97938143;paint-order:normal"/>
    <path d="M8.5 290v.4H8v1.4h2.5v-1.4h-.6v-.3z" style="opacity:1;fill:#fff;fill-opacity:.79215686;stroke:#000;stroke-width:.2;stroke-linecap:round;stroke-linejoin:round;stroke-miterlimit:6.5999999;stroke-dasharray:none;stroke-dashoffset:0;stroke-opacity:.97938143;paint-order:normal"/>
    <rect ry=".1" rx="0" y="290.7" x="3.6" height="1.3" width="2.9" style="opacity:1;fill:#fff;fill-opacity:.79215686;stroke:#090a0e;stroke-width:.2;stroke-linecap:round;stroke-linejoin:round;stroke-miterlimit:6.5999999;stroke-dasharray:none;stroke-dashoffset:0;stroke-opacity:1;paint-order:normal"/>
    <rect ry="0" rx="0" y="291" x="4.2" height=".4" width="1.9" style="fill:#666;fill-opacity:.79215686;stroke-width:.2;stroke-miterlimit:6.5999999;stroke-dasharray:none"/>
  </g>
</svg>