
<svg xmlns="http://www.w3.org/2000/svg" xmlns:xlink="http://www.w3.org/1999/xlink" width="85mm" height="22mm" viewBox="0 0 85 22">
  <defs>
    <linearGradient id="c">
      <stop style="stop-color:#0060bc;stop-opacity:1" offset="0"/>
      <stop style="stop-color:#0060bc;stop-opacity:0" offset="1"/>
    </linearGradient>
    <linearGradient id="b">
      <stop style="stop-color:#20a7ee;stop-opacity:1" offset="0"/>
      <stop style="stop-color:#20a7ee;stop-opacity:0" offset="1"/>
    </linearGradient>
    <linearGradient id="a">
      <stop style="stop-color:#20a7ee;stop-opacity:1" offset="0"/>
      <stop style="stop-color:#20a7ee;stop-opacity:0" offset="1"/>
    </linearGradient>
    <linearGradient xlink:href="#a" id="f" x1="-.6" y1="311.2" x2="75.4" y2="306.7" gradientUnits="userSpaceOnUse" gradientTransform="matrix(1.0103 0 0 1.0434 2.8 -35.5)"/>
    <linearGradient xlink:href="#c" id="e" gradientUnits="userSpaceOnUse" gradientTransform="matrix(.72187 0 0 .67988 -1.6 94)" x1="115.4" y1="289.5" x2="74.9" y2="286.1"/>
    <linearGradient xlink:href="#c" id="d" x1="64.4" y1="273.2" x2="64.8" y2="297.9" gradientUnits="userSpaceOnUse"/>
  </defs>
  <g transform="translate(0 -275)" style="display:inline">
    <path style="fill:url(#d);fill-opacity:1;stroke:none;stroke-width:.26458332px;stroke-linecap:butt;stroke-linejoin:miter;stroke-opacity:1" d="m1.1 283 24.6-6.9 58.3.2-17.8 6.7"/>
    <path style="fill:url(#e);fill-opacity:1;stroke:none;stroke-width:.26458332px;stroke-linecap:butt;stroke-linejoin:miter;stroke-opacity:1" d="M66 283v12.4l18-7.9v-11.2z"/>
    <rect style="opacity:1;fill:url(#f);fill-opacity:1;stroke:none;stroke-width:.49999988;stroke-linecap:round;stroke-linejoin:round;stroke-miterlimit:6.5999999;stroke-dasharray:none;stroke-dashoffset:0;stroke-opacity:1;paint-order:normal" width="64.9" height="12.6" x="1.4" y="283" ry=".4" rx=".4"/>
    <path style="opacity:1;fill:#666f93;fill-opacity:1;stroke:#090a0e;stroke-width:0;stroke-linecap:round;stroke-linejoin:round;stroke-miterlimit:6.5999999;stroke-dasharray:none;stroke-dashoffset:0;stroke-opacity:1;paint-order:normal" d="M33.3 282.9v3.6c0 .2 0 .4.2.4s.3-.2.3-.4v-3.6z"/>
    <path style="opacity:1;fill:#666f93;fill-opacity:1;stroke:#090a0e;stroke-width:0;stroke-linecap:round;stroke-linejoin:round;stroke-miterlimit:6.5999999;stroke-dasharray:none;stroke-dashoffset:0;stroke-opacity:1;paint-order:normal" d="M35 282.9v3.6c0 .2.2.4.3.4.2 0 .3-.2.3-.4v-3.6z"/>
    <path style="opacity:1;fill:#666f93;fill-opacity:1;stroke:#090a0e;stroke-width:0;stroke-linecap:round;stroke-linejoin:round;stroke-miterlimit:6.5999999;stroke-dasharray:none;stroke-dashoffset:0;stroke-opacity:1;paint-order:normal" d="M36.9 282.9v3.6c0 .2 0 .4.2.4s.3-.2.3-.4v-3.6z"/>
    <path style="opacity:1;fill:#666f93;fill-opacity:1;stroke:#090a0e;stroke-width:0;stroke-linecap:round;stroke-linejoin:round;stroke-miterlimit:6.5999999;stroke-dasharray:none;stroke-dashoffset:0;stroke-opacity:1;paint-order:normal" d="M38.7 282.9v3.6c0 .2 0 .4.3.4l.2-.4v-3.6z"/>
    <path style="opacity:1;fill:#666f93;fill-opacity:1;stroke:#090a0e;stroke-width:0;stroke-linecap:round;stroke-linejoin:round;stroke-miterlimit:6.5999999;stroke-dasharray:none;stroke-dashoffset:0;stroke-opacity:1;paint-order:normal" d="M40.5 282.9v3.6c0 .2.1.4.3.4l.2-.4v-3.6z"/>
    <path style="opacity:1;fill:#666f93;fill-opacity:1;stroke:#090a0e;stroke-width:0;stroke-linecap:round;stroke-linejoin:round;stroke-miterlimit:6.5999999;stroke-dasharray:none;stroke-dashoffset:0;stroke-opacity:1;paint-order:normal" d="M42.3 282.9v3.6c0 .2.1.4.3.4l.2-.4v-3.6z"/>
    <path style="opacity:1;fill:#666f93;fill-opacity:1;stroke:#090a0e;stroke-width:0;stroke-linecap:round;stroke-linejoin:round;stroke-miterlimit:6.5999999;stroke-dasharray:none;stroke-dashoffset:0;stroke-opacity:1;paint-order:normal" d="M44.1 282.9v3.6c0 .2.1.4.3.4.1 0 .3-.2.3-.4v-3.6z"/>
    <path style="opacity:1;fill:#666f93;fill-opacity:1;stroke:#090a0e;stroke-width:0;stroke-linecap:round;stroke-linejoin:round;stroke-miterlimit:6.5999999;stroke-dasharray:none;stroke-dashoffset:0;stroke-opacity:1;paint-order:normal" d="m46 282.9-.1.4v3.2c0 .2.1.4.3.4.1 0 .3-.2.3-.4v-3.6z"/>
    <path style="opacity:1;fill:#666f93;fill-opacity:1;stroke:#090a0e;stroke-width:0;stroke-linecap:round;stroke-linejoin:round;stroke-miterlimit:6.5999999;stroke-dasharray:none;stroke-dashoffset:0;stroke-opacity:1;paint-order:normal" d="M47.7 282.9v3.6c0 .2.1.4.3.4.1 0 .3-.2.3-.4v-3.6z"/>
    <path style="opacity:1;fill:#666f93;fill-opacity:1;stroke:#090a0e;stroke-width:0;stroke-linecap:round;stroke-linejoin:round;stroke-miterlimit:6.5999999;stroke-dasharray:none;stroke-dashoffset:0;stroke-opacity:1;paint-order:normal" d="M50.4 282.9v3.6c0 .2.1.4.3.4.2 0 .3-.2.3-.4v-3.6z"/>
    <path style="opacity:1;fill:#666f93;fill-opacity:1;stroke:#090a0e;stroke-width:0;stroke-linecap:round;stroke-linejoin:round;stroke-miterlimit:6.5999999;stroke-dasharray:none;stroke-dashoffset:0;stroke-opacity:1;paint-order:normal" d="M52.2 282.9v3.6c0 .2.2.4.3.4.2 0 .3-.2.3-.4v-3.6z"/>
    <path style="opacity:1;fill:#666f93;fill-opacity:1;stroke:#090a0e;stroke-width:0;stroke-linecap:round;stroke-linejoin:round;stroke-miterlimit:6.5999999;stroke-dasharray:none;stroke-dashoffset:0;stroke-opacity:1;paint-order:normal" d="M54 282.9v3.6c0 .2.2.4.3.4.2 0 .3-.2.3-.4v-3.6z"/>
    <path style="opacity:1;fill:#666f93;fill-opacity:1;stroke:#090a0e;stroke-width:0;stroke-linecap:round;stroke-linejoin:round;stroke-miterlimit:6.5999999;stroke-dasharray:none;stroke-dashoffset:0;stroke-opacity:1;paint-order:normal" d="M55.9 282.9v3.6c0 .2 0 .4.2.4s.3-.2.3-.4v-3.6z"/>
    <path style="opacity:1;fill:#666f93;fill-opacity:1;stroke:#090a0e;stroke-width:0;stroke-linecap:round;stroke-linejoin:round;stroke-miterlimit:6.5999999;stroke-dasharray:none;stroke-dashoffset:0;stroke-opacity:1;paint-order:normal" d="M57.7 282.9v3.6c0 .2 0 .4.2.4s.3-.2.3-.4v-3.6z"/>
    <path style="opacity:1;fill:#666f93;fill-opacity:1;stroke:#090a0e;stroke-width:0;stroke-linecap:round;stroke-linejoin:round;stroke-miterlimit:6.5999999;stroke-dasharray:none;stroke-dashoffset:0;stroke-opacity:1;paint-order:normal" d="M59.5 282.9v3.6c0 .2 0 .4.2.4s.3-.2.3-.4v-3.6z"/>
    <path style="opacity:1;fill:#666f93;fill-opacity:1;stroke:#090a0e;stroke-width:0;stroke-linecap:round;stroke-linejoin:round;stroke-miterlimit:6.5999999;stroke-dasharray:none;stroke-dashoffset:0;stroke-opacity:1;paint-order:normal" d="M61.3 282.9v3.6c0 .2 0 .4.2.4s.3-.2.3-.4v-3.6z"/>
    <path style="opacity:1;fill:#666f93;fill-opacity:1;stroke:#090a0e;stroke-width:0;stroke-linecap:round;stroke-linejoin:round;stroke-miterlimit:6.5999999;stroke-dasharray:none;stroke-dashoffset:0;stroke-opacity:1;paint-order:normal" d="M63 282.9v3.6c0 .2.2.4.4.4l.2-.4v-3.6z"/>
    <path style="opacity:1;fill:#666f93;fill-opacity:1;stroke:#090a0e;stroke-width:0;stroke-linecap:round;stroke-linejoin:round;stroke-miterlimit:6.5999999;stroke-dasharray:none;stroke-dashoffset:0;stroke-opacity:1;paint-order:normal" d="M64.9 282.9v3.6c0 .2.1.4.3.4l.2-.4v-3.6z"/>
    <path style="opacity:1;fill:#a2e2ce;fill-opacity:.52061857;stroke:#090a0e;stroke-width:0;stroke-linecap:round;stroke-linejoin:round;stroke-miterlimit:6.5999999;stroke-dasharray:none;stroke-dashoffset:0;stroke-opacity:1;paint-order:normal" d="m56.3 268.2-27.3 28 35.8.1 10.4-10.5-.2-11.6 5.3-6.3-24 .3s0 0 0 0z" transform="matrix(.28404 0 0 .4418 .7 164.6)"/>
    <rect style="opacity:1;fill:#ffe680;fill-opacity:.98969074;stroke:#090a0e;stroke-width:0;stroke-linecap:round;stroke-linejoin:round;stroke-miterlimit:6.5999999;stroke-dasharray:none;stroke-dashoffset:0;stroke-opacity:1;paint-order:normal" width="10.2" height="5" x="6.7" y="287.2" rx="0" ry=".4"/>
    <path style="opacity:1;fill:#fdfdf1;fill-opacity:.96649487;stroke:#000;stroke-width:.39999995;stroke-linecap:round;stroke-linejoin:round;stroke-miterlimit:6.5999999;stroke-dasharray:none;stroke-dashoffset:0;stroke-opacity:.97938143;paint-order:normal" d="M26.1 290.4v.4h-.6v2.2H28v-2.2h-.6v-.4z"/>
    <path style="opacity:1;fill:#fdfdf1;fill-opacity:.96649487;stroke:#000;stroke-width:.39999995;stroke-linecap:round;stroke-linejoin:round;stroke-miterlimit:6.5999999;stroke-dasharray:none;stroke-dashoffset:0;stroke-opacity:.97938143;paint-order:normal" d="M28.8 290.4v.4h-.6v2.2h2.4v-2.2H30v-.4z"/>
    <path style="opacity:1;fill:#fdfdf1;fill-opacity:.96649487;stroke:#000;stroke-width:.39999995;stroke-linecap:round;stroke-linejoin:round;stroke-miterlimit:6.5999999;stroke-dasharray:none;stroke-dashoffset:0;stroke-opacity:.97938143;paint-order:normal" d="M31.4 290.4v.4h-.6v2.2h2.5v-2.2h-.7v-.4z"/>
    <path style="opacity:1;fill:#fdfdf1;fill-opacity:.96649487;stroke:#000;stroke-width:.39999995;stroke-linecap:round;stroke-linejoin:round;stroke-miterlimit:6.5999999;stroke-dasharray:none;stroke-dashoffset:0;stroke-opacity:.97938143;paint-order:normal" d="M34 290.4v.4h-.5v2.2h2.4v-2.2h-.6v-.4z"/>
    <path style="opacity:1;fill:#fdfdf1;fill-opacity:.96649487;stroke:#000;stroke-width:.39999995;stroke-linecap:round;stroke-linejoin:round;stroke-miterlimit:6.5999999;stroke-dasharray:none;stroke-dashoffset:0;stroke-opacity:.97938143;paint-order:normal" d="M39.4 290.4v.4h-.6v2.2h2.5v-2.2h-.7v-.4z"/>
    <path style="opacity:1;fill:#fdfdf1;fill-opacity:.96649487;stroke:#000;stroke-width:.39999995;stroke-linecap:round;stroke-linejoin:round;stroke-miterlimit:6.5999999;stroke-dasharray:none;stroke-dashoffset:0;stroke-opacity:.97938143;paint-order:normal" d="M42 290.4v.4h-.5v2.2h2.4v-2.2h-.6v-.4z"/>
    <path style="opacity:1;fill:#fdfdf1;fill-opacity:.96649487;stroke:#000;stroke-width:.39999995;stroke-linecap:round;stroke-linejoin:round;stroke-miterlimit:6.5999999;stroke-dasharray:none;stroke-dashoffset:0;stroke-opacity:.97938143;paint-order:normal" d="M44.7 290.4v.4h-.6v2.2h2.4v-2.2H46v-.4z"/>
    <path style="opacity:1;fill:#fdfdf1;fill-opacity:.96649487;stroke:#000;stroke-width:.39999995;stroke-linecap:round;stroke-linejoin:round;stroke-miterlimit:6.5999999;stroke-dasharray:none;stroke-dashoffset:0;stroke-opacity:.97938143;paint-order:normal" d="M47.3 290.4v.4h-.6v2.2h2.5v-2.2h-.6v-.4z"/>
    <path style="opacity:1;fill:#fdfdf1;fill-opacity:.96649487;stroke:#000;stroke-width:.39999995;stroke-linecap:round;stroke-linejoin:round;stroke-miterlimit:6.5999999;stroke-dasharray:none;stroke-dashoffset:0;stroke-opacity:.97938143;paint-order:normal" d="M51.6 290.5v2.3h1.2v-.3h.1v.3h1.2v-2.3h-1.2v.3h-.1v-.3z"/>
    <path style="opacity:1;fill:#fdfdf1;fill-opacity:.96649487;stroke:#000;stroke-width:.39999995;stroke-linecap:round;stroke-linejoin:round;stroke-miterlimit:6.5999999;stroke-dasharray:none;stroke-dashoffset:0;stroke-opacity:.97938143;paint-order:normal" d="M54.3 290.5v2.3h1.2v-.3h.1v.3h1.2v-2.3h-1.2v.3h-.1v-.3z"/>
    <a transform="matrix(.34566 0 0 .48724 -12.4 150.5)" style="stroke-width:2.43668771">
      <path d="M200.9 287.3v4.7h3.5v-.6h.4v.6h3.5v-4.7h-3.5v.5h-.4v-.5z" style="opacity:1;fill:#fdfdf1;fill-opacity:.96649487;stroke:#000;stroke-width:.97467536;stroke-linecap:round;stroke-linejoin:round;stroke-miterlimit:6.5999999;stroke-dasharray:none;stroke-dashoffset:0;stroke-opacity:.97938143;paint-order:normal"/>
    </a>
    <path style="opacity:1;fill:#fdfdf1;fill-opacity:.96649487;stroke:#000;stroke-width:.39999995;stroke-linecap:round;stroke-linejoin:round;stroke-miterlimit:6.5999999;stroke-dasharray:none;stroke-dashoffset:0;stroke-opacity:.97938143;paint-order:normal" d="M59.7 290.5v2.3H61v-.3h.2v.3h1.2v-2.3H61v.3h-.2v-.3z"/>
    <path d="M23.4 292.5c0 .6-.5 1.1-1 1.1s-1-.5-1-1c0-.7.5-1.1 1-1.1s1 .4 1 1z" style="fill:#ccc;fill-opacity:1;fill-rule:nonzero;stroke:none;stroke-width:.26458332"/>
    <path d="M23.5 292.8c0 .2 0 .4-.2.4l-.2-.4c0-.1 0-.3.2-.3l.2.3z" style="fill:none;stroke:none;stroke-width:.26458332"/>
    <path d="M23.4 289.7c0 .6-.5 1-1 1a1 1 0 1 1 0-1.9c.5 0 1 .4 1 1z" style="fill:#06f620;fill-opacity:1;fill-rule:nonzero;stroke:none;stroke-width:.26458332"/>
    <path d="M23.5 290.3c0 .2 0 .4-.2.4l-.2-.4c0-.2 0-.3.2-.3.1 0 .2.1.2.3z" style="fill:none;stroke:none;stroke-width:.26458332"/>
  </g>
</svg>