
<svg xmlns="http://www.w3.org/2000/svg" xmlns:xlink="http://www.w3.org/1999/xlink" width="85mm" height="22mm" viewBox="0 0 85 22">
  <defs>
    <linearGradient id="b">
      <stop style="stop-color:#000;stop-opacity:.71212119" offset="0"/>
      <stop offset=".3" style="stop-color:#000;stop-opacity:.68235294"/>
      <stop style="stop-color:#000;stop-opacity:0" offset="1"/>
    </linearGradient>
    <linearGradient id="a">
      <stop style="stop-color:#000;stop-opacity:1" offset="0"/>
      <stop style="stop-color:#000;stop-opacity:0" offset="1"/>
    </linearGradient>
    <linearGradient xlink:href="#a" id="d" x1="86" y1="244.1" x2="95.2" y2="298.1" gradientUnits="userSpaceOnUse" gradientTransform="matrix(.71135 0 0 .70815 -.4 86.2)"/>
    <linearGradient xlink:href="#a" id="e" x1="145.8" y1="294.1" x2="78" y2="274.8" gradientUnits="userSpaceOnUse" gradientTransform="matrix(.71135 0 0 .70815 -.4 86.2)"/>
    <linearGradient xlink:href="#b" id="c" x1="-46.6" y1="321.7" x2="120.9" y2="260.7" gradientUnits="userSpaceOnUse" gradientTransform="matrix(.71135 0 0 .70815 -.4 86.2)"/>
  </defs>
  <g transform="translate(0 -275)" style="display:inline">
    <rect style="opacity:1;fill:url(#c);fill-opacity:1;stroke:none;stroke-width:.49999997;stroke-linecap:round;stroke-linejoin:round;stroke-miterlimit:6.5999999;stroke-dasharray:none;stroke-dashoffset:0;stroke-opacity:.69346732;paint-order:normal" width="64.9" height="12.9" x="1.3" y="283.1" ry=".4" rx=".4"/>
    <path style="fill:url(#d);fill-opacity:1;stroke:none;stroke-width:.26458332px;stroke-linecap:butt;stroke-linejoin:miter;stroke-opacity:1" d="m1.1 283.2 24.6-7H84L66.2 283"/>
    <path style="fill:url(#e);fill-opacity:1;stroke:none;stroke-width:.26458332px;stroke-linecap:butt;stroke-linejoin:miter;stroke-opacity:1" d="M66.2 283v13L84 288l-.2-11.8z"/>
    <ellipse style="opacity:1;fill:#23b522;fill-opacity:1;stroke:#09160a;stroke-width:0;stroke-linecap:round;stroke-linejoin:round;stroke-miterlimit:6.5999999;stroke-dasharray:none;stroke-dashoffset:0;stroke-opacity:.69346732;paint-order:normal" cx="50.2" cy="287.9" rx=".4" ry=".3"/>
    <ellipse style="opacity:1;fill:#23b522;fill-opacity:1;stroke:#09160a;stroke-width:0;stroke-linecap:round;stroke-linejoin:round;stroke-miterlimit:6.5999999;stroke-dasharray:none;stroke-dashoffset:0;stroke-opacity:.69346732;paint-order:normal" cx="50.2" cy="289.1" rx=".4" ry=".3"/>
    <ellipse style="opacity:1;fill:#23b522;fill-opacity:1;stroke:#09160a;stroke-width:0;stroke-linecap:round;stroke-linejoin:round;stroke-miterlimit:6.5999999;stroke-dasharray:none;stroke-dashoffset:0;stroke-opacity:.69346732;paint-order:normal" cx="50.2" cy="290.4" rx=".4" ry=".3"/>
    <rect style="opacity:1;fill:none;fill-opacity:1;stroke:#09160a;stroke-width:.2;stroke-linecap:round;stroke-linejoin:round;stroke-miterlimit:6.5999999;stroke-dasharray:none;stroke-dashoffset:0;stroke-opacity:.69346732;paint-order:normal" width="9.7" height="5.3" x="49" y="287.2" rx=".2" ry=".2"/>
    <path style="opacity:1;fill:#fdfdf1;fill-opacity:.96649487;stroke:#000;stroke-width:.2;stroke-linecap:round;stroke-linejoin:round;stroke-miterlimit:6.5999999;stroke-dasharray:none;stroke-dashoffset:0;stroke-opacity:.97938143;paint-order:normal" d="M6.6 292.3v-.4h.7v-1.7H4.6v1.7h.7v.4z"/>
    <path d="M9.8 287.5v.4h-.7v1.7H12v-1.7h-.7v-.4z" style="opacity:1;fill:#fdfdf1;fill-opacity:.96649487;stroke:#000;stroke-width:.2;stroke-linecap:round;stroke-linejoin:round;stroke-miterlimit:6.5999999;stroke-dasharray:none;stroke-dashoffset:0;stroke-opacity:.97938143;paint-order:normal"/>
    <path d="M11.3 292.3v-.4h.7v-1.7H9.1v1.7h.7v.4z" style="opacity:1;fill:#fdfdf1;fill-opacity:.96649487;stroke:#000;stroke-width:.2;stroke-linecap:round;stroke-linejoin:round;stroke-miterlimit:6.5999999;stroke-dasharray:none;stroke-dashoffset:0;stroke-opacity:.97938143;paint-order:normal"/>
    <path d="M13 287.5v.4h-.8v1.7h3v-1.7h-.8v-.4z" style="opacity:1;fill:#fdfdf1;fill-opacity:.96649487;stroke:#000;stroke-width:.2;stroke-linecap:round;stroke-linejoin:round;stroke-miterlimit:6.5999999;stroke-dasharray:none;stroke-dashoffset:0;stroke-opacity:.97938143;paint-order:normal"/>
    <path d="M14.4 292.3v-.4h.7v-1.7h-2.9v1.7h.8v.4z" style="opacity:1;fill:#fdfdf1;fill-opacity:.96649487;stroke:#000;stroke-width:.2;stroke-linecap:round;stroke-linejoin:round;stroke-miterlimit:6.5999999;stroke-dasharray:none;stroke-dashoffset:0;stroke-opacity:.97938143;paint-order:normal"/>
    <path d="M16 287.5v.4h-.6v1.7h2.9v-1.7h-.8v-.4z" style="opacity:1;fill:#fdfdf1;fill-opacity:.96649487;stroke:#000;stroke-width:.2;stroke-linecap:round;stroke-linejoin:round;stroke-miterlimit:6.5999999;stroke-dasharray:none;stroke-dashoffset:0;stroke-opacity:.97938143;paint-order:normal"/>
    <path d="M17.6 292.3v-.4h.7v-1.7h-3v1.7h.8v.4z" style="opacity:1;fill:#fdfdf1;fill-opacity:.96649487;stroke:#000;stroke-width:.2;stroke-linecap:round;stroke-linejoin:round;stroke-miterlimit:6.5999999;stroke-dasharray:none;stroke-dashoffset:0;stroke-opacity:.97938143;paint-order:normal"/>
    <path d="M19.2 287.5v.4h-.7v1.7h2.9v-1.7h-.7v-.4z" style="opacity:1;fill:#fdfdf1;fill-opacity:.96649487;stroke:#000;stroke-width:.2;stroke-linecap:round;stroke-linejoin:round;stroke-miterlimit:6.5999999;stroke-dasharray:none;stroke-dashoffset:0;stroke-opacity:.97938143;paint-order:normal"/>
    <path d="M20.7 292.3v-.4h.7v-1.7h-2.9v1.7h.7v.4z" style="opacity:1;fill:#fdfdf1;fill-opacity:.96649487;stroke:#000;stroke-width:.2;stroke-linecap:round;stroke-linejoin:round;stroke-miterlimit:6.5999999;stroke-dasharray:none;stroke-dashoffset:0;stroke-opacity:.97938143;paint-order:normal"/>
    <path d="M23 287.5v.4h-.7v1.7h2.9v-1.7h-.7v-.4z" style="opacity:1;fill:#fdfdf1;fill-opacity:.96649487;stroke:#000;stroke-width:.2;stroke-linecap:round;stroke-linejoin:round;stroke-miterlimit:6.5999999;stroke-dasharray:none;stroke-dashoffset:0;stroke-opacity:.97938143;paint-order:normal"/>
    <path d="M24.5 292.3v-.4h.7v-1.7h-2.9v1.7h.7v.4z" style="opacity:1;fill:#fdfdf1;fill-opacity:.96649487;stroke:#000;stroke-width:.2;stroke-linecap:round;stroke-linejoin:round;stroke-miterlimit:6.5999999;stroke-dasharray:none;stroke-dashoffset:0;stroke-opacity:.97938143;paint-order:normal"/>
    <path d="M26.1 287.5v.4h-.7v1.7h3v-1.7h-.8v-.4z" style="opacity:1;fill:#fdfdf1;fill-opacity:.96649487;stroke:#000;stroke-width:.2;stroke-linecap:round;stroke-linejoin:round;stroke-miterlimit:6.5999999;stroke-dasharray:none;stroke-dashoffset:0;stroke-opacity:.97938143;paint-order:normal"/>
    <path d="M27.6 292.3v-.4h.7v-1.7h-2.9v1.7h.8v.4z" style="opacity:1;fill:#fdfdf1;fill-opacity:.96649487;stroke:#000;stroke-width:.2;stroke-linecap:round;stroke-linejoin:round;stroke-miterlimit:6.5999999;stroke-dasharray:none;stroke-dashoffset:0;stroke-opacity:.97938143;paint-order:normal"/>
    <path d="M29.5 287.5v.4h-.7v1.7h3v-1.7H31v-.4z" style="opacity:1;fill:#fdfdf1;fill-opacity:.96649487;stroke:#000;stroke-width:.2;stroke-linecap:round;stroke-linejoin:round;stroke-miterlimit:6.5999999;stroke-dasharray:none;stroke-dashoffset:0;stroke-opacity:.97938143;paint-order:normal"/>
    <path d="M31 292.3v-.4h.7v-1.7h-2.9v1.7h.8v.4z" style="opacity:1;fill:#fdfdf1;fill-opacity:.96649487;stroke:#000;stroke-width:.2;stroke-linecap:round;stroke-linejoin:round;stroke-miterlimit:6.5999999;stroke-dasharray:none;stroke-dashoffset:0;stroke-opacity:.97938143;paint-order:normal"/>
    <path d="M32.7 287.5v.4H32v1.7h2.9v-1.7H34v-.4z" style="opacity:1;fill:#fdfdf1;fill-opacity:.96649487;stroke:#000;stroke-width:.2;stroke-linecap:round;stroke-linejoin:round;stroke-miterlimit:6.5999999;stroke-dasharray:none;stroke-dashoffset:0;stroke-opacity:.97938143;paint-order:normal"/>
    <path d="M34.2 292.3v-.4h.7v-1.7h-3v1.7h.8v.4z" style="opacity:1;fill:#fdfdf1;fill-opacity:.96649487;stroke:#000;stroke-width:.2;stroke-linecap:round;stroke-linejoin:round;stroke-miterlimit:6.5999999;stroke-dasharray:none;stroke-dashoffset:0;stroke-opacity:.97938143;paint-order:normal"/>
    <path d="M36.5 287.5v.4h-.7v1.7h3v-1.7H38v-.4z" style="opacity:1;fill:#fdfdf1;fill-opacity:.96649487;stroke:#000;stroke-width:.2;stroke-linecap:round;stroke-linejoin:round;stroke-miterlimit:6.5999999;stroke-dasharray:none;stroke-dashoffset:0;stroke-opacity:.97938143;paint-order:normal"/>
    <path d="M38 292.3v-.4h.7v-1.7h-2.9v1.7h.7v.4z" style="opacity:1;fill:#fdfdf1;fill-opacity:.96649487;stroke:#000;stroke-width:.2;stroke-linecap:round;stroke-linejoin:round;stroke-miterlimit:6.5999999;stroke-dasharray:none;stroke-dashoffset:0;stroke-opacity:.97938143;paint-order:normal"/>
    <path d="M39.6 287.5v.4h-.7v1.7h2.9v-1.7H41v-.4z" style="opacity:1;fill:#fdfdf1;fill-opacity:.96649487;stroke:#000;stroke-width:.2;stroke-linecap:round;stroke-linejoin:round;stroke-miterlimit:6.5999999;stroke-dasharray:none;stroke-dashoffset:0;stroke-opacity:.97938143;paint-order:normal"/>
    <path d="M41 292.3v-.4h.8v-1.7h-2.9v1.7h.7v.4z" style="opacity:1;fill:#fdfdf1;fill-opacity:.96649487;stroke:#000;stroke-width:.2;stroke-linecap:round;stroke-linejoin:round;stroke-miterlimit:6.5999999;stroke-dasharray:none;stroke-dashoffset:0;stroke-opacity:.97938143;paint-order:normal"/>
    <path d="M42.7 287.5v.4H42v1.7h3v-1.7h-.8v-.4z" style="opacity:1;fill:#fdfdf1;fill-opacity:.96649487;stroke:#000;stroke-width:.2;stroke-linecap:round;stroke-linejoin:round;stroke-miterlimit:6.5999999;stroke-dasharray:none;stroke-dashoffset:0;stroke-opacity:.97938143;paint-order:normal"/>
    <path d="M44.2 292.3v-.4h.7v-1.7H42v1.7h.8v.4z" style="opacity:1;fill:#fdfdf1;fill-opacity:.96649487;stroke:#000;stroke-width:.2;stroke-linecap:round;stroke-linejoin:round;stroke-miterlimit:6.5999999;stroke-dasharray:none;stroke-dashoffset:0;stroke-opacity:.97938143;paint-order:normal"/>
    <path d="M46 287.5v.4h-.8v1.7h3v-1.7h-.8v-.4z" style="opacity:1;fill:#fdfdf1;fill-opacity:.96649487;stroke:#000;stroke-width:.2;stroke-linecap:round;stroke-linejoin:round;stroke-miterlimit:6.5999999;stroke-dasharray:none;stroke-dashoffset:0;stroke-opacity:.97938143;paint-order:normal"/>
    <path d="M47.4 292.3v-.4h.7v-1.7h-2.9v1.7h.8v.4z" style="opacity:1;fill:#fdfdf1;fill-opacity:.96649487;stroke:#000;stroke-width:.2;stroke-linecap:round;stroke-linejoin:round;stroke-miterlimit:6.5999999;stroke-dasharray:none;stroke-dashoffset:0;stroke-opacity:.97938143;paint-order:normal"/>
    <ellipse style="display:inline;opacity:1;fill:#23b522;fill-opacity:1;stroke:#09160a;stroke-width:0;stroke-linecap:round;stroke-linejoin:round;stroke-miterlimit:6.5999999;stroke-dasharray:none;stroke-dashoffset:0;stroke-opacity:.69346732;paint-order:normal" cx="50.3" cy="291.6" rx=".4" ry=".3"/>
    <path style="opacity:1;fill:#fdfdf1;fill-opacity:.96649487;stroke:#000;stroke-width:.2;stroke-linecap:round;stroke-linejoin:round;stroke-miterlimit:6.5999999;stroke-dasharray:none;stroke-dashoffset:0;stroke-opacity:.97938143;paint-order:normal" d="M51.5 290v2H53v-.3h.2v.2h1.4v-1.8h-1.4v.2H53v-.2z"/>
    <path style="opacity:1;fill:#fdfdf1;fill-opacity:.96649487;stroke:#000;stroke-width:.2;stroke-linecap:round;stroke-linejoin:round;stroke-miterlimit:6.5999999;stroke-dasharray:none;stroke-dashoffset:0;stroke-opacity:.97938143;paint-order:normal" d="M54.7 290v2h1.5v-.3h.1v.2h1.5v-1.8h-1.5v.2h-.1v-.2z"/>
    <path style="opacity:1;fill:#fdfdf1;fill-opacity:.96649487;stroke:#000;stroke-width:.2;stroke-linecap:round;stroke-linejoin:round;stroke-miterlimit:6.5999999;stroke-dasharray:none;stroke-dashoffset:0;stroke-opacity:.97938143;paint-order:normal" d="M51.5 287.7v1.9H53v-.3h.2v.3h1.4v-1.9h-1.4v.2H53v-.2z"/>
    <path style="opacity:1;fill:#fdfdf1;fill-opacity:.96649487;stroke:#000;stroke-width:.2;stroke-linecap:round;stroke-linejoin:round;stroke-miterlimit:6.5999999;stroke-dasharray:none;stroke-dashoffset:0;stroke-opacity:.97938143;paint-order:normal" d="M54.7 287.7v1.9h1.5v-.3h.1v.3h1.5v-1.9h-1.5v.2h-.1v-.2z"/>
  </g>
</svg>