
<svg xmlns="http://www.w3.org/2000/svg" xmlns:xlink="http://www.w3.org/1999/xlink" width="85mm" height="22mm" viewBox="0 0 85 22">
  <defs>
    <linearGradient id="b">
      <stop style="stop-color:#000;stop-opacity:.71212119" offset="0"/>
      <stop offset=".3" style="stop-color:#000;stop-opacity:.68235294"/>
      <stop style="stop-color:#000;stop-opacity:0" offset="1"/>
    </linearGradient>
    <linearGradient id="a">
      <stop style="stop-color:#000;stop-opacity:1" offset="0"/>
      <stop style="stop-color:#000;stop-opacity:0" offset="1"/>
    </linearGradient>
    <linearGradient xlink:href="#a" id="d" x1="86" y1="244.1" x2="95.2" y2="298.1" gradientUnits="userSpaceOnUse" gradientTransform="matrix(.71135 0 0 .70815 -.4 86.2)"/>
    <linearGradient xlink:href="#a" id="e" x1="145.8" y1="294.1" x2="78" y2="274.8" gradientUnits="userSpaceOnUse" gradientTransform="matrix(.71135 0 0 .70815 -.4 86.2)"/>
    <linearGradient xlink:href="#b" id="c" x1="-46.6" y1="321.7" x2="120.9" y2="260.7" gradientUnits="userSpaceOnUse" gradientTransform="matrix(.71135 0 0 .70815 -.4 86.2)"/>
  </defs>
  <g transform="translate(0 -275)" style="display:inline">
    <rect style="opacity:1;fill:url(#c);fill-opacity:1;stroke:none;stroke-width:.49999997;stroke-linecap:round;stroke-linejoin:round;stroke-miterlimit:6.5999999;stroke-dasharray:none;stroke-dashoffset:0;stroke-opacity:.69346732;paint-order:normal" width="64.9" height="12.9" x="1.3" y="283.1" ry=".4" rx=".4"/>
    <path style="fill:url(#d);fill-opacity:1;stroke:none;stroke-width:.26458332px;stroke-linecap:butt;stroke-linejoin:miter;stroke-opacity:1" d="m1.1 283.2 24.6-7H84L66.2 283"/>
    <path style="fill:url(#e);fill-opacity:1;stroke:none;stroke-width:.26458332px;stroke-linecap:butt;stroke-linejoin:miter;stroke-opacity:1" d="M66.2 283v13L84 288l-.2-11.8z"/>
    <ellipse style="opacity:1;fill:#23b522;fill-opacity:1;stroke:#09160a;stroke-width:0;stroke-linecap:round;stroke-linejoin:round;stroke-miterlimit:6.5999999;stroke-dasharray:none;stroke-dashoffset:0;stroke-opacity:.69346732;paint-order:normal" cx="50.2" cy="288.8" rx=".4" ry=".3"/>
    <ellipse style="opacity:1;fill:#23b522;fill-opacity:1;stroke:#09160a;stroke-width:0;stroke-linecap:round;stroke-linejoin:round;stroke-miterlimit:6.5999999;stroke-dasharray:none;stroke-dashoffset:0;stroke-opacity:.69346732;paint-order:normal" cx="50.2" cy="290.1" rx=".4" ry=".3"/>
    <ellipse style="opacity:1;fill:#23b522;fill-opacity:1;stroke:#09160a;stroke-width:0;stroke-linecap:round;stroke-linejoin:round;stroke-miterlimit:6.5999999;stroke-dasharray:none;stroke-dashoffset:0;stroke-opacity:.69346732;paint-order:normal" cx="50.2" cy="291.4" rx=".4" ry=".3"/>
    <rect style="opacity:1;fill:none;fill-opacity:1;stroke:#09160a;stroke-width:.19999999;stroke-linecap:round;stroke-linejoin:round;stroke-miterlimit:6.5999999;stroke-dasharray:none;stroke-dashoffset:0;stroke-opacity:.69346732;paint-order:normal" width="16.6" height="5.3" x="49" y="287.2" rx=".3" ry=".2"/>
    <path style="opacity:1;fill:#fdfdf1;fill-opacity:.96649487;stroke:#000;stroke-width:.2;stroke-linecap:round;stroke-linejoin:round;stroke-miterlimit:6.5999999;stroke-dasharray:none;stroke-dashoffset:0;stroke-opacity:.97938143;paint-order:normal" d="M10.1 290.1v1.9h1.4v-.3h.1v.3H13V290h-1.3v.2h-.1v-.2z"/>
    <path style="opacity:1;fill:#fdfdf1;fill-opacity:.96649487;stroke:#000;stroke-width:.2;stroke-linecap:round;stroke-linejoin:round;stroke-miterlimit:6.5999999;stroke-dasharray:none;stroke-dashoffset:0;stroke-opacity:.97938143;paint-order:normal" d="M59.1 290.1v1.9h1.4v-.3h.1v.3H62V290h-1.3v.2h-.1v-.2z"/>
    <path style="opacity:1;fill:#fdfdf1;fill-opacity:.96649487;stroke:#000;stroke-width:.2;stroke-linecap:round;stroke-linejoin:round;stroke-miterlimit:6.5999999;stroke-dasharray:none;stroke-dashoffset:0;stroke-opacity:.97938143;paint-order:normal" d="M13 290.1v1.9h1.4v-.3h.1v.3H16V290h-1.4v.2h-.1v-.2z"/>
    <path style="opacity:1;fill:#fdfdf1;fill-opacity:.96649487;stroke:#000;stroke-width:.2;stroke-linecap:round;stroke-linejoin:round;stroke-miterlimit:6.5999999;stroke-dasharray:none;stroke-dashoffset:0;stroke-opacity:.97938143;paint-order:normal" d="M62.1 290.1v1.9h1.4v-.3h.1v.3H65V290h-1.3v.2h-.1v-.2z"/>
    <path style="opacity:1;fill:#fdfdf1;fill-opacity:.96649487;stroke:#000;stroke-width:.2;stroke-linecap:round;stroke-linejoin:round;stroke-miterlimit:6.5999999;stroke-dasharray:none;stroke-dashoffset:0;stroke-opacity:.97938143;paint-order:normal" d="M10.1 287.8v1.8h1.4v-.2h.1v.2H13v-1.8h-1.3v.2h-.1v-.2z"/>
    <path style="opacity:1;fill:#fdfdf1;fill-opacity:.96649487;stroke:#000;stroke-width:.2;stroke-linecap:round;stroke-linejoin:round;stroke-miterlimit:6.5999999;stroke-dasharray:none;stroke-dashoffset:0;stroke-opacity:.97938143;paint-order:normal" d="M59.1 287.8v1.8h1.4v-.2h.1v.2H62v-1.8h-1.3v.2h-.1v-.2z"/>
    <path style="opacity:1;fill:#fdfdf1;fill-opacity:.96649487;stroke:#000;stroke-width:.2;stroke-linecap:round;stroke-linejoin:round;stroke-miterlimit:6.5999999;stroke-dasharray:none;stroke-dashoffset:0;stroke-opacity:.97938143;paint-order:normal" d="M13 287.8v1.8h1.4v-.2h.1v.2H16v-1.8h-1.4v.2h-.1v-.2z"/>
    <path style="opacity:1;fill:#fdfdf1;fill-opacity:.96649487;stroke:#000;stroke-width:.2;stroke-linecap:round;stroke-linejoin:round;stroke-miterlimit:6.5999999;stroke-dasharray:none;stroke-dashoffset:0;stroke-opacity:.97938143;paint-order:normal" d="M62.1 287.8v1.8h1.4v-.2h.1v.2H65v-1.8h-1.3v.2h-.1v-.2z"/>
    <path style="opacity:1;fill:#fdfdf1;fill-opacity:.96649487;stroke:#000;stroke-width:.2;stroke-linecap:round;stroke-linejoin:round;stroke-miterlimit:6.5999999;stroke-dasharray:none;stroke-dashoffset:0;stroke-opacity:.97938143;paint-order:normal" d="M15.9 290.1v1.9h1.3v-.3h.1v.3h1.4V290h-1.4v.2h-.1v-.2z"/>
    <path style="opacity:1;fill:#fdfdf1;fill-opacity:.96649487;stroke:#000;stroke-width:.2;stroke-linecap:round;stroke-linejoin:round;stroke-miterlimit:6.5999999;stroke-dasharray:none;stroke-dashoffset:0;stroke-opacity:.97938143;paint-order:normal" d="M18.8 290.1v1.9H20v-.3h.2v.3h1.3V290h-1.3v.2H20v-.2z"/>
    <path style="opacity:1;fill:#fdfdf1;fill-opacity:.96649487;stroke:#000;stroke-width:.2;stroke-linecap:round;stroke-linejoin:round;stroke-miterlimit:6.5999999;stroke-dasharray:none;stroke-dashoffset:0;stroke-opacity:.97938143;paint-order:normal" d="M15.9 287.8v1.8h1.3v-.2h.1v.2h1.4v-1.8h-1.4v.2h-.1v-.2z"/>
    <path style="opacity:1;fill:#fdfdf1;fill-opacity:.96649487;stroke:#000;stroke-width:.2;stroke-linecap:round;stroke-linejoin:round;stroke-miterlimit:6.5999999;stroke-dasharray:none;stroke-dashoffset:0;stroke-opacity:.97938143;paint-order:normal" d="M18.8 287.8v1.8H20v-.2h.2v.2h1.3v-1.8h-1.3v.2H20v-.2z"/>
    <path style="opacity:1;fill:#fdfdf1;fill-opacity:.96649487;stroke:#000;stroke-width:.2;stroke-linecap:round;stroke-linejoin:round;stroke-miterlimit:6.5999999;stroke-dasharray:none;stroke-dashoffset:0;stroke-opacity:.97938143;paint-order:normal" d="M23 290.1v1.9h1.3v-.3h.2v.3h1.3V290h-1.3v.2h-.2v-.2z"/>
    <path style="opacity:1;fill:#fdfdf1;fill-opacity:.96649487;stroke:#000;stroke-width:.2;stroke-linecap:round;stroke-linejoin:round;stroke-miterlimit:6.5999999;stroke-dasharray:none;stroke-dashoffset:0;stroke-opacity:.97938143;paint-order:normal" d="M26 290.1v1.9h1.3v-.3h.1v.3h1.3V290h-1.3v.2h-.1v-.2z"/>
    <path style="opacity:1;fill:#fdfdf1;fill-opacity:.96649487;stroke:#000;stroke-width:.2;stroke-linecap:round;stroke-linejoin:round;stroke-miterlimit:6.5999999;stroke-dasharray:none;stroke-dashoffset:0;stroke-opacity:.97938143;paint-order:normal" d="M23 287.8v1.8h1.3v-.2h.2v.2h1.3v-1.8h-1.3v.2h-.2v-.2z"/>
    <path style="opacity:1;fill:#fdfdf1;fill-opacity:.96649487;stroke:#000;stroke-width:.2;stroke-linecap:round;stroke-linejoin:round;stroke-miterlimit:6.5999999;stroke-dasharray:none;stroke-dashoffset:0;stroke-opacity:.97938143;paint-order:normal" d="M26 287.8v1.8h1.3v-.2h.1v.2h1.3v-1.8h-1.3v.2h-.1v-.2z"/>
    <path style="opacity:1;fill:#fdfdf1;fill-opacity:.96649487;stroke:#000;stroke-width:.2;stroke-linecap:round;stroke-linejoin:round;stroke-miterlimit:6.5999999;stroke-dasharray:none;stroke-dashoffset:0;stroke-opacity:.97938143;paint-order:normal" d="M28.7 290.1v1.9h1.4v-.3h.1v.3h1.3V290h-1.3v.2h-.1v-.2z"/>
    <path style="opacity:1;fill:#fdfdf1;fill-opacity:.96649487;stroke:#000;stroke-width:.2;stroke-linecap:round;stroke-linejoin:round;stroke-miterlimit:6.5999999;stroke-dasharray:none;stroke-dashoffset:0;stroke-opacity:.97938143;paint-order:normal" d="M31.7 290.1v1.9H33v-.3h.1v.3h1.4V290H33v.2H33v-.2z"/>
    <path style="opacity:1;fill:#fdfdf1;fill-opacity:.96649487;stroke:#000;stroke-width:.2;stroke-linecap:round;stroke-linejoin:round;stroke-miterlimit:6.5999999;stroke-dasharray:none;stroke-dashoffset:0;stroke-opacity:.97938143;paint-order:normal" d="M28.7 287.8v1.8h1.4v-.2h.1v.2h1.3v-1.8h-1.3v.2h-.1v-.2z"/>
    <path style="opacity:1;fill:#fdfdf1;fill-opacity:.96649487;stroke:#000;stroke-width:.2;stroke-linecap:round;stroke-linejoin:round;stroke-miterlimit:6.5999999;stroke-dasharray:none;stroke-dashoffset:0;stroke-opacity:.97938143;paint-order:normal" d="M31.7 287.8v1.8H33v-.2h.1v.2h1.4v-1.8H33v.2H33v-.2z"/>
    <path style="opacity:1;fill:#fdfdf1;fill-opacity:.96649487;stroke:#000;stroke-width:.2;stroke-linecap:round;stroke-linejoin:round;stroke-miterlimit:6.5999999;stroke-dasharray:none;stroke-dashoffset:0;stroke-opacity:.97938143;paint-order:normal" d="M36 290.1v1.9h1.2v-.3h.2v.3h1.3V290h-1.3v.2h-.2v-.2z"/>
    <path style="opacity:1;fill:#fdfdf1;fill-opacity:.96649487;stroke:#000;stroke-width:.2;stroke-linecap:round;stroke-linejoin:round;stroke-miterlimit:6.5999999;stroke-dasharray:none;stroke-dashoffset:0;stroke-opacity:.97938143;paint-order:normal" d="M38.8 290.1v1.9h1.4v-.3h.1v.3h1.4V290h-1.4v.2h-.1v-.2z"/>
    <path style="opacity:1;fill:#fdfdf1;fill-opacity:.96649487;stroke:#000;stroke-width:.2;stroke-linecap:round;stroke-linejoin:round;stroke-miterlimit:6.5999999;stroke-dasharray:none;stroke-dashoffset:0;stroke-opacity:.97938143;paint-order:normal" d="M36 287.8v1.8h1.2v-.2h.2v.2h1.3v-1.8h-1.3v.2h-.2v-.2z"/>
    <path style="opacity:1;fill:#fdfdf1;fill-opacity:.96649487;stroke:#000;stroke-width:.2;stroke-linecap:round;stroke-linejoin:round;stroke-miterlimit:6.5999999;stroke-dasharray:none;stroke-dashoffset:0;stroke-opacity:.97938143;paint-order:normal" d="M38.8 287.8v1.8h1.4v-.2h.1v.2h1.4v-1.8h-1.4v.2h-.1v-.2z"/>
    <path style="opacity:1;fill:#fdfdf1;fill-opacity:.96649487;stroke:#000;stroke-width:.2;stroke-linecap:round;stroke-linejoin:round;stroke-miterlimit:6.5999999;stroke-dasharray:none;stroke-dashoffset:0;stroke-opacity:.97938143;paint-order:normal" d="M41.7 290.1v1.9H43v-.3h.1v.3h1.4V290H43v.2H43v-.2z"/>
    <path style="opacity:1;fill:#fdfdf1;fill-opacity:.96649487;stroke:#000;stroke-width:.2;stroke-linecap:round;stroke-linejoin:round;stroke-miterlimit:6.5999999;stroke-dasharray:none;stroke-dashoffset:0;stroke-opacity:.97938143;paint-order:normal" d="M44.6 290.1v1.9h1.3v-.3h.2v.3h1.3V290H46v.2h-.2v-.2z"/>
    <path style="opacity:1;fill:#fdfdf1;fill-opacity:.96649487;stroke:#000;stroke-width:.2;stroke-linecap:round;stroke-linejoin:round;stroke-miterlimit:6.5999999;stroke-dasharray:none;stroke-dashoffset:0;stroke-opacity:.97938143;paint-order:normal" d="M41.7 287.8v1.8H43v-.2h.1v.2h1.4v-1.8H43v.2H43v-.2z"/>
    <path style="opacity:1;fill:#fdfdf1;fill-opacity:.96649487;stroke:#000;stroke-width:.2;stroke-linecap:round;stroke-linejoin:round;stroke-miterlimit:6.5999999;stroke-dasharray:none;stroke-dashoffset:0;stroke-opacity:.97938143;paint-order:normal" d="M44.6 287.8v1.8h1.3v-.2h.2v.2h1.3v-1.8H46v.2h-.2v-.2z"/>
    <path style="opacity:1;fill:#fdfdf1;fill-opacity:.96649487;stroke:#000;stroke-width:.2;stroke-linecap:round;stroke-linejoin:round;stroke-miterlimit:6.5999999;stroke-dasharray:none;stroke-dashoffset:0;stroke-opacity:.97938143;paint-order:normal" d="M52.6 287.5v.4h-.7v1.7h2.7V288H54v-.4z"/>
    <path style="opacity:1;fill:#fdfdf1;fill-opacity:.96649487;stroke:#000;stroke-width:.2;stroke-linecap:round;stroke-linejoin:round;stroke-miterlimit:6.5999999;stroke-dasharray:none;stroke-dashoffset:0;stroke-opacity:.97938143;paint-order:normal" d="M54 292.1v-.3h.6V290H52v1.8h.7v.3z"/>
    <path style="opacity:1;fill:#fdfdf1;fill-opacity:.96649487;stroke:#000;stroke-width:.2;stroke-linecap:round;stroke-linejoin:round;stroke-miterlimit:6.5999999;stroke-dasharray:none;stroke-dashoffset:0;stroke-opacity:.97938143;paint-order:normal" d="M55.5 287.5v.4h-.7v1.7h2.7V288h-.7v-.4z"/>
    <path style="opacity:1;fill:#fdfdf1;fill-opacity:.96649487;stroke:#000;stroke-width:.2;stroke-linecap:round;stroke-linejoin:round;stroke-miterlimit:6.5999999;stroke-dasharray:none;stroke-dashoffset:0;stroke-opacity:.97938143;paint-order:normal" d="M56.9 292.1v-.3h.6V290h-2.7v1.8h.7v.3z"/>
    <path style="opacity:1;fill:#fdfdf1;fill-opacity:.96649487;stroke:#000;stroke-width:.2;stroke-linecap:round;stroke-linejoin:round;stroke-miterlimit:6.5999999;stroke-dasharray:none;stroke-dashoffset:0;stroke-opacity:.97938143;paint-order:normal" d="M2.7 287.7v.4H2v1.7h2.7V288H4v-.4z"/>
    <path style="opacity:1;fill:#fdfdf1;fill-opacity:.96649487;stroke:#000;stroke-width:.2;stroke-linecap:round;stroke-linejoin:round;stroke-miterlimit:6.5999999;stroke-dasharray:none;stroke-dashoffset:0;stroke-opacity:.97938143;paint-order:normal" d="M4 292.3v-.4h.7v-1.7H2v1.7h.7v.4z"/>
    <ellipse style="display:inline;opacity:1;fill:#23b522;fill-opacity:1;stroke:#09160a;stroke-width:.2;stroke-linecap:round;stroke-linejoin:round;stroke-miterlimit:6.5999999;stroke-dasharray:none;stroke-dashoffset:0;stroke-opacity:.69346732;paint-order:normal" cx="5.8" cy="288.9" rx=".4" ry=".3"/>
    <ellipse style="display:inline;opacity:1;fill:#23b522;fill-opacity:1;stroke:#09160a;stroke-width:.2;stroke-linecap:round;stroke-linejoin:round;stroke-miterlimit:6.5999999;stroke-dasharray:none;stroke-dashoffset:0;stroke-opacity:.69346732;paint-order:normal" cx="5.8" cy="290.1" rx=".4" ry=".3"/>
    <ellipse style="display:inline;opacity:1;fill:#23b522;fill-opacity:1;stroke:#09160a;stroke-width:.2;stroke-linecap:round;stroke-linejoin:round;stroke-miterlimit:6.5999999;stroke-dasharray:none;stroke-dashoffset:0;stroke-opacity:.69346732;paint-order:normal" cx="5.8" cy="291.4" rx=".4" ry=".3"/>
    <ellipse style="display:inline;opacity:1;fill:#23b522;fill-opacity:1;stroke:#09160a;stroke-width:.2;stroke-linecap:round;stroke-linejoin:round;stroke-miterlimit:6.5999999;stroke-dasharray:none;stroke-dashoffset:0;stroke-opacity:.69346732;paint-order:normal" cx="7.4" cy="288.9" rx=".4" ry=".3"/>
    <ellipse style="display:inline;opacity:1;fill:#23b522;fill-opacity:1;stroke:#09160a;stroke-width:.2;stroke-linecap:round;stroke-linejoin:round;stroke-miterlimit:6.5999999;stroke-dasharray:none;stroke-dashoffset:0;stroke-opacity:.69346732;paint-order:normal" cx="7.4" cy="290.1" rx=".4" ry=".3"/>
    <ellipse style="display:inline;opacity:1;fill:#23b522;fill-opacity:1;stroke:#09160a;stroke-width:.2;stroke-linecap:round;stroke-linejoin:round;stroke-miterlimit:6.5999999;stroke-dasharray:none;stroke-dashoffset:0;stroke-opacity:.69346732;paint-order:normal" cx="7.4" cy="291.4" rx=".4" ry=".3"/>
    <ellipse style="display:inline;opacity:1;fill:#23b522;fill-opacity:1;stroke:#09160a;stroke-width:.2;stroke-linecap:round;stroke-linejoin:round;stroke-miterlimit:6.5999999;stroke-dasharray:none;stroke-dashoffset:0;stroke-opacity:.69346732;paint-order:normal" cx="9.1" cy="288.9" rx=".4" ry=".3"/>
    <ellipse style="display:inline;opacity:1;fill:#23b522;fill-opacity:1;stroke:#09160a;stroke-width:.2;stroke-linecap:round;stroke-linejoin:round;stroke-miterlimit:6.5999999;stroke-dasharray:none;stroke-dashoffset:0;stroke-opacity:.69346732;paint-order:normal" cx="9.1" cy="290.1" rx=".4" ry=".3"/>
    <ellipse style="display:inline;opacity:1;fill:#23b522;fill-opacity:1;stroke:#09160a;stroke-width:.2;stroke-linecap:round;stroke-linejoin:round;stroke-miterlimit:6.5999999;stroke-dasharray:none;stroke-dashoffset:0;stroke-opacity:.69346732;paint-order:normal" cx="9.1" cy="291.4" rx=".4" ry=".3"/>
  </g>
</svg>