<?xml version="1.0" encoding="UTF-8" standalone="no"?>
<!-- Created with Inkscape (http://www.inkscape.org/) -->

<svg
   xmlns:dc="http://purl.org/dc/elements/1.1/"
   xmlns:cc="http://creativecommons.org/ns#"
   xmlns:rdf="http://www.w3.org/1999/02/22-rdf-syntax-ns#"
   xmlns:svg="http://www.w3.org/2000/svg"
   xmlns="http://www.w3.org/2000/svg"
   xmlns:sodipodi="http://sodipodi.sourceforge.net/DTD/sodipodi-0.dtd"
   xmlns:inkscape="http://www.inkscape.org/namespaces/inkscape"
   width="229.5mm"
   height="29.5mm"
   viewBox="0 0 229.5 29.5"
   version="1.1"
   id="svg8"
   inkscape:version="0.92.5 (2060ec1f9f, 2020-04-08)"
   sodipodi:docname="UTM_v4.svg">
  <defs
     id="defs2">
    <inkscape:path-effect
       effect="bspline"
       id="path-effect5009"
       is_visible="true"
       weight="33.333333"
       steps="2"
       helper_size="0"
       apply_no_weight="true"
       apply_with_weight="true"
       only_selected="false" />
    <pattern
       y="0"
       x="0"
       height="6"
       width="6"
       patternUnits="userSpaceOnUse"
       id="EMFhbasepattern" />
  </defs>
  <sodipodi:namedview
     id="base"
     pagecolor="#ffffff"
     bordercolor="#666666"
     borderopacity="1.0"
     inkscape:pageopacity="0.0"
     inkscape:pageshadow="2"
     inkscape:zoom="0.96761905"
     inkscape:cx="424.25561"
     inkscape:cy="142.3515"
     inkscape:document-units="mm"
     inkscape:current-layer="layer1"
     showgrid="false"
     inkscape:window-width="1920"
     inkscape:window-height="1017"
     inkscape:window-x="1912"
     inkscape:window-y="-8"
     inkscape:window-maximized="1"
     inkscape:snap-text-baseline="true" />
  <metadata
     id="metadata5">
    <rdf:RDF>
      <cc:Work
         rdf:about="">
        <dc:format>image/svg+xml</dc:format>
        <dc:type
           rdf:resource="http://purl.org/dc/dcmitype/StillImage" />
        <dc:title></dc:title>
      </cc:Work>
    </rdf:RDF>
  </metadata>
  <g
     inkscape:label="Layer 1"
     inkscape:groupmode="layer"
     id="layer1"
     transform="translate(0,-267.5)">
    <rect
       style="opacity:1;fill:#20a7ee;fill-opacity:1;stroke:#09160a;stroke-width:0.5;stroke-linecap:round;stroke-linejoin:round;stroke-miterlimit:6.5999999;stroke-dasharray:none;stroke-dashoffset:0;stroke-opacity:0.69346732;paint-order:normal"
       id="rect4524"
       width="228.5"
       height="28.5"
       x="0.49912715"
       y="268.00204"
       ry="0.96289062"
       rx="1.2363281" />
    <path
       style="opacity:1;fill:#666f93;fill-opacity:1;stroke:#090a0e;stroke-width:0;stroke-linecap:round;stroke-linejoin:round;stroke-miterlimit:6.5999999;stroke-dasharray:none;stroke-dashoffset:0;stroke-opacity:1;paint-order:normal"
       d="m 112.73636,267.70337 c -0.0268,0 -0.0481,0.42929 -0.0481,0.96274 v 3.51761 0.30903 3.4432 c 0,0.554 0.44167,0.99994 0.99064,0.99994 0.54897,0 0.99115,-0.44594 0.99115,-0.99994 v -3.4432 -0.30903 -3.51761 c 0,-0.53345 -0.0218,-0.96274 -0.0486,-0.96274 z"
       id="rect4819-5"
       inkscape:connector-curvature="0" />
    <path
       style="opacity:1;fill:#666f93;fill-opacity:1;stroke:#090a0e;stroke-width:0;stroke-linecap:round;stroke-linejoin:round;stroke-miterlimit:6.5999999;stroke-dasharray:none;stroke-dashoffset:0;stroke-opacity:1;paint-order:normal"
       d="m 115.91832,267.70337 c -0.0268,0 -0.0481,0.42929 -0.0481,0.96274 v 3.51761 0.30903 3.4432 c 0,0.554 0.44167,0.99994 0.99064,0.99994 0.54896,0 0.99114,-0.44594 0.99114,-0.99994 v -3.4432 -0.30903 -3.51761 c 0,-0.53345 -0.0218,-0.96274 -0.0486,-0.96274 z"
       id="rect4819-5-2"
       inkscape:connector-curvature="0" />
    <path
       style="opacity:1;fill:#666f93;fill-opacity:1;stroke:#090a0e;stroke-width:0;stroke-linecap:round;stroke-linejoin:round;stroke-miterlimit:6.5999999;stroke-dasharray:none;stroke-dashoffset:0;stroke-opacity:1;paint-order:normal"
       d="m 119.10022,267.70337 c -0.0268,0 -0.0481,0.42929 -0.0481,0.96274 v 3.51761 0.30903 3.4432 c 0,0.554 0.44167,0.99994 0.99064,0.99994 0.54897,0 0.99115,-0.44594 0.99115,-0.99994 v -3.4432 -0.30903 -3.51761 c 0,-0.53345 -0.0218,-0.96274 -0.0486,-0.96274 z"
       id="rect4819-5-27"
       inkscape:connector-curvature="0" />
    <path
       style="opacity:1;fill:#666f93;fill-opacity:1;stroke:#090a0e;stroke-width:0;stroke-linecap:round;stroke-linejoin:round;stroke-miterlimit:6.5999999;stroke-dasharray:none;stroke-dashoffset:0;stroke-opacity:1;paint-order:normal"
       d="m 122.28212,267.70337 c -0.0268,0 -0.0481,0.42929 -0.0481,0.96274 v 3.51761 0.30903 3.4432 c 0,0.554 0.44167,0.99994 0.99064,0.99994 0.54897,0 0.99114,-0.44594 0.99114,-0.99994 v -3.4432 -0.30903 -3.51761 c 0,-0.53345 -0.0218,-0.96274 -0.0486,-0.96274 z"
       id="rect4819-5-0"
       inkscape:connector-curvature="0" />
    <path
       style="opacity:1;fill:#666f93;fill-opacity:1;stroke:#090a0e;stroke-width:0;stroke-linecap:round;stroke-linejoin:round;stroke-miterlimit:6.5999999;stroke-dasharray:none;stroke-dashoffset:0;stroke-opacity:1;paint-order:normal"
       d="m 125.46404,267.70337 c -0.0268,0 -0.0481,0.42929 -0.0481,0.96274 v 3.51761 0.30903 3.4432 c 0,0.554 0.44166,0.99994 0.99063,0.99994 0.54897,0 0.99115,-0.44594 0.99115,-0.99994 v -3.4432 -0.30903 -3.51761 c 0,-0.53345 -0.0218,-0.96274 -0.0486,-0.96274 z"
       id="rect4819-5-4"
       inkscape:connector-curvature="0" />
    <path
       style="opacity:1;fill:#666f93;fill-opacity:1;stroke:#090a0e;stroke-width:0;stroke-linecap:round;stroke-linejoin:round;stroke-miterlimit:6.5999999;stroke-dasharray:none;stroke-dashoffset:0;stroke-opacity:1;paint-order:normal"
       d="m 128.64594,267.70337 c -0.0268,0 -0.0481,0.42929 -0.0481,0.96274 v 3.51761 0.30903 3.4432 c 0,0.554 0.44167,0.99994 0.99064,0.99994 0.54897,0 0.99114,-0.44594 0.99114,-0.99994 v -3.4432 -0.30903 -3.51761 c 0,-0.53345 -0.0218,-0.96274 -0.0486,-0.96274 z"
       id="rect4819-5-01"
       inkscape:connector-curvature="0" />
    <path
       style="opacity:1;fill:#666f93;fill-opacity:1;stroke:#090a0e;stroke-width:0;stroke-linecap:round;stroke-linejoin:round;stroke-miterlimit:6.5999999;stroke-dasharray:none;stroke-dashoffset:0;stroke-opacity:1;paint-order:normal"
       d="m 131.82784,267.70337 c -0.0268,0 -0.0481,0.42929 -0.0481,0.96274 v 3.51761 0.30903 3.4432 c 0,0.554 0.44167,0.99994 0.99064,0.99994 0.54897,0 0.99114,-0.44594 0.99114,-0.99994 v -3.4432 -0.30903 -3.51761 c 0,-0.53345 -0.0218,-0.96274 -0.0486,-0.96274 z"
       id="rect4819-5-6"
       inkscape:connector-curvature="0" />
    <path
       style="opacity:1;fill:#666f93;fill-opacity:1;stroke:#090a0e;stroke-width:0;stroke-linecap:round;stroke-linejoin:round;stroke-miterlimit:6.5999999;stroke-dasharray:none;stroke-dashoffset:0;stroke-opacity:1;paint-order:normal"
       d="m 135.00975,267.70337 c -0.0268,0 -0.0481,0.42929 -0.0481,0.96274 v 3.51761 0.30903 3.4432 c 0,0.554 0.44167,0.99994 0.99064,0.99994 0.54896,0 0.99114,-0.44594 0.99114,-0.99994 v -3.4432 -0.30903 -3.51761 c 0,-0.53345 -0.0218,-0.96274 -0.0486,-0.96274 z"
       id="rect4819-5-2-9"
       inkscape:connector-curvature="0" />
    <path
       style="opacity:1;fill:#666f93;fill-opacity:1;stroke:#090a0e;stroke-width:0;stroke-linecap:round;stroke-linejoin:round;stroke-miterlimit:6.5999999;stroke-dasharray:none;stroke-dashoffset:0;stroke-opacity:1;paint-order:normal"
       d="m 138.19165,267.70337 c -0.0268,0 -0.0481,0.42929 -0.0481,0.96274 v 3.51761 0.30903 3.4432 c 0,0.554 0.44167,0.99994 0.99064,0.99994 0.54897,0 0.99115,-0.44594 0.99115,-0.99994 v -3.4432 -0.30903 -3.51761 c 0,-0.53345 -0.0218,-0.96274 -0.0486,-0.96274 z"
       id="rect4819-5-27-5"
       inkscape:connector-curvature="0" />
    <path
       style="opacity:1;fill:#666f93;fill-opacity:1;stroke:#090a0e;stroke-width:0;stroke-linecap:round;stroke-linejoin:round;stroke-miterlimit:6.5999999;stroke-dasharray:none;stroke-dashoffset:0;stroke-opacity:1;paint-order:normal"
       d="m 141.37356,267.70337 c -0.0268,0 -0.0481,0.42929 -0.0481,0.96274 v 3.51761 0.30903 3.4432 c 0,0.554 0.44167,0.99994 0.99064,0.99994 0.54897,0 0.99114,-0.44594 0.99114,-0.99994 v -3.4432 -0.30903 -3.51761 c 0,-0.53345 -0.0218,-0.96274 -0.0486,-0.96274 z"
       id="rect4819-5-0-7"
       inkscape:connector-curvature="0" />
    <path
       style="opacity:1;fill:#666f93;fill-opacity:1;stroke:#090a0e;stroke-width:0;stroke-linecap:round;stroke-linejoin:round;stroke-miterlimit:6.5999999;stroke-dasharray:none;stroke-dashoffset:0;stroke-opacity:1;paint-order:normal"
       d="m 144.55546,267.70337 c -0.0268,0 -0.0481,0.42929 -0.0481,0.96274 v 3.51761 0.30903 3.4432 c 0,0.554 0.44166,0.99994 0.99063,0.99994 0.54897,0 0.99115,-0.44594 0.99115,-0.99994 v -3.4432 -0.30903 -3.51761 c 0,-0.53345 -0.0218,-0.96274 -0.0486,-0.96274 z"
       id="rect4819-5-4-7"
       inkscape:connector-curvature="0" />
    <path
       style="opacity:1;fill:#666f93;fill-opacity:1;stroke:#090a0e;stroke-width:0;stroke-linecap:round;stroke-linejoin:round;stroke-miterlimit:6.5999999;stroke-dasharray:none;stroke-dashoffset:0;stroke-opacity:1;paint-order:normal"
       d="m 147.73737,267.70337 c -0.0268,0 -0.0481,0.42929 -0.0481,0.96274 v 3.51761 0.30903 3.4432 c 0,0.554 0.44167,0.99994 0.99064,0.99994 0.54897,0 0.99114,-0.44594 0.99114,-0.99994 v -3.4432 -0.30903 -3.51761 c 0,-0.53345 -0.0218,-0.96274 -0.0486,-0.96274 z"
       id="rect4819-5-01-2"
       inkscape:connector-curvature="0" />
    <path
       style="opacity:1;fill:#666f93;fill-opacity:1;stroke:#090a0e;stroke-width:0;stroke-linecap:round;stroke-linejoin:round;stroke-miterlimit:6.5999999;stroke-dasharray:none;stroke-dashoffset:0;stroke-opacity:1;paint-order:normal"
       d="m 150.91926,267.70337 c -0.0268,0 -0.0481,0.42929 -0.0481,0.96274 v 3.51761 0.30903 3.4432 c 0,0.554 0.44167,0.99994 0.99064,0.99994 0.54897,0 0.99114,-0.44594 0.99114,-0.99994 v -3.4432 -0.30903 -3.51761 c 0,-0.53345 -0.0218,-0.96274 -0.0486,-0.96274 z"
       id="rect4819-5-6-1"
       inkscape:connector-curvature="0" />
    <path
       style="opacity:1;fill:#666f93;fill-opacity:1;stroke:#090a0e;stroke-width:0;stroke-linecap:round;stroke-linejoin:round;stroke-miterlimit:6.5999999;stroke-dasharray:none;stroke-dashoffset:0;stroke-opacity:1;paint-order:normal"
       d="m 154.10118,267.70337 c -0.0268,0 -0.0481,0.42929 -0.0481,0.96274 v 3.51761 0.30903 3.4432 c 0,0.554 0.44167,0.99994 0.99064,0.99994 0.54896,0 0.99114,-0.44594 0.99114,-0.99994 v -3.4432 -0.30903 -3.51761 c 0,-0.53345 -0.0218,-0.96274 -0.0486,-0.96274 z"
       id="rect4819-5-2-9-1"
       inkscape:connector-curvature="0" />
    <path
       style="opacity:1;fill:#666f93;fill-opacity:1;stroke:#090a0e;stroke-width:0;stroke-linecap:round;stroke-linejoin:round;stroke-miterlimit:6.5999999;stroke-dasharray:none;stroke-dashoffset:0;stroke-opacity:1;paint-order:normal"
       d="m 157.28309,267.70337 c -0.0268,0 -0.0481,0.42929 -0.0481,0.96274 v 3.51761 0.30903 3.4432 c 0,0.554 0.44167,0.99994 0.99064,0.99994 0.54897,0 0.99115,-0.44594 0.99115,-0.99994 v -3.4432 -0.30903 -3.51761 c 0,-0.53345 -0.0218,-0.96274 -0.0486,-0.96274 z"
       id="rect4819-5-27-5-1"
       inkscape:connector-curvature="0" />
    <path
       style="opacity:1;fill:#666f93;fill-opacity:1;stroke:#090a0e;stroke-width:0;stroke-linecap:round;stroke-linejoin:round;stroke-miterlimit:6.5999999;stroke-dasharray:none;stroke-dashoffset:0;stroke-opacity:1;paint-order:normal"
       d="m 160.46499,267.70337 c -0.0268,0 -0.0481,0.42929 -0.0481,0.96274 v 3.51761 0.30903 3.4432 c 0,0.554 0.44167,0.99994 0.99064,0.99994 0.54897,0 0.99114,-0.44594 0.99114,-0.99994 v -3.4432 -0.30903 -3.51761 c 0,-0.53345 -0.0218,-0.96274 -0.0486,-0.96274 z"
       id="rect4819-5-0-7-2"
       inkscape:connector-curvature="0" />
    <path
       style="opacity:1;fill:#666f93;fill-opacity:1;stroke:#090a0e;stroke-width:0;stroke-linecap:round;stroke-linejoin:round;stroke-miterlimit:6.5999999;stroke-dasharray:none;stroke-dashoffset:0;stroke-opacity:1;paint-order:normal"
       d="m 163.64689,267.70337 c -0.0268,0 -0.0481,0.42929 -0.0481,0.96274 v 3.51761 0.30903 3.4432 c 0,0.554 0.44166,0.99994 0.99063,0.99994 0.54897,0 0.99115,-0.44594 0.99115,-0.99994 v -3.4432 -0.30903 -3.51761 c 0,-0.53345 -0.0218,-0.96274 -0.0486,-0.96274 z"
       id="rect4819-5-4-7-0"
       inkscape:connector-curvature="0" />
    <path
       style="opacity:1;fill:#666f93;fill-opacity:1;stroke:#090a0e;stroke-width:0;stroke-linecap:round;stroke-linejoin:round;stroke-miterlimit:6.5999999;stroke-dasharray:none;stroke-dashoffset:0;stroke-opacity:1;paint-order:normal"
       d="m 173.19261,267.70337 c -0.0268,0 -0.0481,0.42929 -0.0481,0.96274 v 3.51761 0.30903 3.4432 c 0,0.554 0.44167,0.99994 0.99064,0.99994 0.54896,0 0.99114,-0.44594 0.99114,-0.99994 v -3.4432 -0.30903 -3.51761 c 0,-0.53345 -0.0218,-0.96274 -0.0486,-0.96274 z"
       id="rect4819-5-2-9-5"
       inkscape:connector-curvature="0" />
    <path
       style="opacity:1;fill:#666f93;fill-opacity:1;stroke:#090a0e;stroke-width:0;stroke-linecap:round;stroke-linejoin:round;stroke-miterlimit:6.5999999;stroke-dasharray:none;stroke-dashoffset:0;stroke-opacity:1;paint-order:normal"
       d="m 176.3745,267.70337 c -0.0268,0 -0.0481,0.42929 -0.0481,0.96274 v 3.51761 0.30903 3.4432 c 0,0.554 0.44167,0.99994 0.99064,0.99994 0.54897,0 0.99115,-0.44594 0.99115,-0.99994 v -3.4432 -0.30903 -3.51761 c 0,-0.53345 -0.0218,-0.96274 -0.0486,-0.96274 z"
       id="rect4819-5-27-5-13"
       inkscape:connector-curvature="0" />
    <path
       style="opacity:1;fill:#666f93;fill-opacity:1;stroke:#090a0e;stroke-width:0;stroke-linecap:round;stroke-linejoin:round;stroke-miterlimit:6.5999999;stroke-dasharray:none;stroke-dashoffset:0;stroke-opacity:1;paint-order:normal"
       d="m 179.55642,267.70337 c -0.0268,0 -0.0481,0.42929 -0.0481,0.96274 v 3.51761 0.30903 3.4432 c 0,0.554 0.44167,0.99994 0.99064,0.99994 0.54897,0 0.99114,-0.44594 0.99114,-0.99994 v -3.4432 -0.30903 -3.51761 c 0,-0.53345 -0.0218,-0.96274 -0.0486,-0.96274 z"
       id="rect4819-5-0-7-9"
       inkscape:connector-curvature="0" />
    <path
       style="opacity:1;fill:#666f93;fill-opacity:1;stroke:#090a0e;stroke-width:0;stroke-linecap:round;stroke-linejoin:round;stroke-miterlimit:6.5999999;stroke-dasharray:none;stroke-dashoffset:0;stroke-opacity:1;paint-order:normal"
       d="m 182.73831,267.70337 c -0.0268,0 -0.0481,0.42929 -0.0481,0.96274 v 3.51761 0.30903 3.4432 c 0,0.554 0.44166,0.99994 0.99063,0.99994 0.54897,0 0.99115,-0.44594 0.99115,-0.99994 v -3.4432 -0.30903 -3.51761 c 0,-0.53345 -0.0218,-0.96274 -0.0486,-0.96274 z"
       id="rect4819-5-4-7-7"
       inkscape:connector-curvature="0" />
    <path
       style="opacity:1;fill:#666f93;fill-opacity:1;stroke:#090a0e;stroke-width:0;stroke-linecap:round;stroke-linejoin:round;stroke-miterlimit:6.5999999;stroke-dasharray:none;stroke-dashoffset:0;stroke-opacity:1;paint-order:normal"
       d="m 185.92022,267.70337 c -0.0268,0 -0.0481,0.42929 -0.0481,0.96274 v 3.51761 0.30903 3.4432 c 0,0.554 0.44167,0.99994 0.99064,0.99994 0.54897,0 0.99114,-0.44594 0.99114,-0.99994 v -3.4432 -0.30903 -3.51761 c 0,-0.53345 -0.0218,-0.96274 -0.0486,-0.96274 z"
       id="rect4819-5-01-2-2"
       inkscape:connector-curvature="0" />
    <path
       style="opacity:1;fill:#666f93;fill-opacity:1;stroke:#090a0e;stroke-width:0;stroke-linecap:round;stroke-linejoin:round;stroke-miterlimit:6.5999999;stroke-dasharray:none;stroke-dashoffset:0;stroke-opacity:1;paint-order:normal"
       d="m 189.10213,267.70337 c -0.0268,0 -0.0481,0.42929 -0.0481,0.96274 v 3.51761 0.30903 3.4432 c 0,0.554 0.44167,0.99994 0.99064,0.99994 0.54897,0 0.99114,-0.44594 0.99114,-0.99994 v -3.4432 -0.30903 -3.51761 c 0,-0.53345 -0.0218,-0.96274 -0.0486,-0.96274 z"
       id="rect4819-5-6-8"
       inkscape:connector-curvature="0" />
    <path
       style="opacity:1;fill:#666f93;fill-opacity:1;stroke:#090a0e;stroke-width:0;stroke-linecap:round;stroke-linejoin:round;stroke-miterlimit:6.5999999;stroke-dasharray:none;stroke-dashoffset:0;stroke-opacity:1;paint-order:normal"
       d="m 192.28404,267.70337 c -0.0268,0 -0.0481,0.42929 -0.0481,0.96274 v 3.51761 0.30903 3.4432 c 0,0.554 0.44167,0.99994 0.99064,0.99994 0.54896,0 0.99114,-0.44594 0.99114,-0.99994 v -3.4432 -0.30903 -3.51761 c 0,-0.53345 -0.0218,-0.96274 -0.0486,-0.96274 z"
       id="rect4819-5-2-9-9"
       inkscape:connector-curvature="0" />
    <path
       style="opacity:1;fill:#666f93;fill-opacity:1;stroke:#090a0e;stroke-width:0;stroke-linecap:round;stroke-linejoin:round;stroke-miterlimit:6.5999999;stroke-dasharray:none;stroke-dashoffset:0;stroke-opacity:1;paint-order:normal"
       d="m 195.46593,267.70337 c -0.0268,0 -0.0481,0.42929 -0.0481,0.96274 v 3.51761 0.30903 3.4432 c 0,0.554 0.44167,0.99994 0.99064,0.99994 0.54897,0 0.99115,-0.44594 0.99115,-0.99994 v -3.4432 -0.30903 -3.51761 c 0,-0.53345 -0.0218,-0.96274 -0.0486,-0.96274 z"
       id="rect4819-5-27-5-4"
       inkscape:connector-curvature="0" />
    <path
       style="opacity:1;fill:#666f93;fill-opacity:1;stroke:#090a0e;stroke-width:0;stroke-linecap:round;stroke-linejoin:round;stroke-miterlimit:6.5999999;stroke-dasharray:none;stroke-dashoffset:0;stroke-opacity:1;paint-order:normal"
       d="m 198.64784,267.70337 c -0.0268,0 -0.0481,0.42929 -0.0481,0.96274 v 3.51761 0.30903 3.4432 c 0,0.554 0.44167,0.99994 0.99064,0.99994 0.54897,0 0.99114,-0.44594 0.99114,-0.99994 v -3.4432 -0.30903 -3.51761 c 0,-0.53345 -0.0218,-0.96274 -0.0486,-0.96274 z"
       id="rect4819-5-0-7-93"
       inkscape:connector-curvature="0" />
    <path
       style="opacity:1;fill:#666f93;fill-opacity:1;stroke:#090a0e;stroke-width:0;stroke-linecap:round;stroke-linejoin:round;stroke-miterlimit:6.5999999;stroke-dasharray:none;stroke-dashoffset:0;stroke-opacity:1;paint-order:normal"
       d="m 201.82975,267.70337 c -0.0268,0 -0.0481,0.42929 -0.0481,0.96274 v 3.51761 0.30903 3.4432 c 0,0.554 0.44166,0.99994 0.99063,0.99994 0.54897,0 0.99115,-0.44594 0.99115,-0.99994 v -3.4432 -0.30903 -3.51761 c 0,-0.53345 -0.0218,-0.96274 -0.0486,-0.96274 z"
       id="rect4819-5-4-7-9"
       inkscape:connector-curvature="0" />
    <path
       style="opacity:1;fill:#666f93;fill-opacity:1;stroke:#090a0e;stroke-width:0;stroke-linecap:round;stroke-linejoin:round;stroke-miterlimit:6.5999999;stroke-dasharray:none;stroke-dashoffset:0;stroke-opacity:1;paint-order:normal"
       d="m 205.01166,267.70337 c -0.0268,0 -0.0481,0.42929 -0.0481,0.96274 v 3.51761 0.30903 3.4432 c 0,0.554 0.44167,0.99994 0.99064,0.99994 0.54897,0 0.99114,-0.44594 0.99114,-0.99994 v -3.4432 -0.30903 -3.51761 c 0,-0.53345 -0.0218,-0.96274 -0.0486,-0.96274 z"
       id="rect4819-5-01-2-08"
       inkscape:connector-curvature="0" />
    <path
       style="opacity:1;fill:#666f93;fill-opacity:1;stroke:#090a0e;stroke-width:0;stroke-linecap:round;stroke-linejoin:round;stroke-miterlimit:6.5999999;stroke-dasharray:none;stroke-dashoffset:0;stroke-opacity:1;paint-order:normal"
       d="m 208.19356,267.70337 c -0.0268,0 -0.0481,0.42929 -0.0481,0.96274 v 3.51761 0.30903 3.4432 c 0,0.554 0.44167,0.99994 0.99064,0.99994 0.54897,0 0.99114,-0.44594 0.99114,-0.99994 v -3.4432 -0.30903 -3.51761 c 0,-0.53345 -0.0218,-0.96274 -0.0486,-0.96274 z"
       id="rect4819-5-6-6"
       inkscape:connector-curvature="0" />
    <path
       style="opacity:1;fill:#666f93;fill-opacity:1;stroke:#090a0e;stroke-width:0;stroke-linecap:round;stroke-linejoin:round;stroke-miterlimit:6.5999999;stroke-dasharray:none;stroke-dashoffset:0;stroke-opacity:1;paint-order:normal"
       d="m 211.37545,267.70337 c -0.0268,0 -0.0481,0.42929 -0.0481,0.96274 v 3.51761 0.30903 3.4432 c 0,0.554 0.44167,0.99994 0.99064,0.99994 0.54896,0 0.99114,-0.44594 0.99114,-0.99994 v -3.4432 -0.30903 -3.51761 c 0,-0.53345 -0.0218,-0.96274 -0.0486,-0.96274 z"
       id="rect4819-5-2-9-0"
       inkscape:connector-curvature="0" />
    <path
       style="opacity:1;fill:#666f93;fill-opacity:1;stroke:#090a0e;stroke-width:0;stroke-linecap:round;stroke-linejoin:round;stroke-miterlimit:6.5999999;stroke-dasharray:none;stroke-dashoffset:0;stroke-opacity:1;paint-order:normal"
       d="m 214.55737,267.70337 c -0.0268,0 -0.0481,0.42929 -0.0481,0.96274 v 3.51761 0.30903 3.4432 c 0,0.554 0.44167,0.99994 0.99064,0.99994 0.54897,0 0.99115,-0.44594 0.99115,-0.99994 v -3.4432 -0.30903 -3.51761 c 0,-0.53345 -0.0218,-0.96274 -0.0486,-0.96274 z"
       id="rect4819-5-27-5-0"
       inkscape:connector-curvature="0" />
    <path
       style="opacity:1;fill:#666f93;fill-opacity:1;stroke:#090a0e;stroke-width:0;stroke-linecap:round;stroke-linejoin:round;stroke-miterlimit:6.5999999;stroke-dasharray:none;stroke-dashoffset:0;stroke-opacity:1;paint-order:normal"
       d="m 217.73928,267.70337 c -0.0268,0 -0.0481,0.42929 -0.0481,0.96274 v 3.51761 0.30903 3.4432 c 0,0.554 0.44167,0.99994 0.99064,0.99994 0.54897,0 0.99114,-0.44594 0.99114,-0.99994 v -3.4432 -0.30903 -3.51761 c 0,-0.53345 -0.0218,-0.96274 -0.0486,-0.96274 z"
       id="rect4819-5-0-7-3"
       inkscape:connector-curvature="0" />
    <path
       style="opacity:1;fill:#666f93;fill-opacity:1;stroke:#090a0e;stroke-width:0;stroke-linecap:round;stroke-linejoin:round;stroke-miterlimit:6.5999999;stroke-dasharray:none;stroke-dashoffset:0;stroke-opacity:1;paint-order:normal"
       d="m 220.92117,267.70337 c -0.0268,0 -0.0481,0.42929 -0.0481,0.96274 v 3.51761 0.30903 3.4432 c 0,0.554 0.44166,0.99994 0.99063,0.99994 0.54897,0 0.99115,-0.44594 0.99115,-0.99994 v -3.4432 -0.30903 -3.51761 c 0,-0.53345 -0.0218,-0.96274 -0.0486,-0.96274 z"
       id="rect4819-5-4-7-70"
       inkscape:connector-curvature="0" />
    <path
       style="opacity:1;fill:#666f93;fill-opacity:1;stroke:#090a0e;stroke-width:0;stroke-linecap:round;stroke-linejoin:round;stroke-miterlimit:6.5999999;stroke-dasharray:none;stroke-dashoffset:0;stroke-opacity:1;paint-order:normal"
       d="m 224.10307,267.70337 c -0.0268,0 -0.0481,0.42929 -0.0481,0.96274 v 3.51761 0.30903 3.4432 c 0,0.554 0.44167,0.99994 0.99064,0.99994 0.54897,0 0.99114,-0.44594 0.99114,-0.99994 v -3.4432 -0.30903 -3.51761 c 0,-0.53345 -0.0218,-0.96274 -0.0486,-0.96274 z"
       id="rect4819-5-01-2-24"
       inkscape:connector-curvature="0" />
    <path
       style="opacity:1;fill:#a2e2ce;fill-opacity:0.52061857;stroke:#090a0e;stroke-width:0;stroke-linecap:round;stroke-linejoin:round;stroke-miterlimit:6.5999999;stroke-dasharray:none;stroke-dashoffset:0;stroke-opacity:1;paint-order:normal"
       d="m 56.328124,268.15234 c 0,0 -27.34375,28.09571 -27.34375,28.09571 0,0 35.820312,0.0684 35.820312,0.0684 0,0 10.390627,-10.52734 10.390627,-10.52734 0,0 -0.205079,-11.62109 -0.205079,-11.62109 0,0 5.332032,-6.2207 5.332032,-6.2207 0,0 -23.994142,0.20507 -23.994142,0.20507 0,0 0,-5e-5 0,-5e-5 z"
       id="path5007"
       inkscape:connector-curvature="0"
       inkscape:path-effect="#path-effect5009"
       inkscape:original-d="m 56.328124,268.15234 c 0,0 -27.34375,28.09571 -27.34375,28.09571 0,0 35.820312,0.0684 35.820312,0.0684 0,0 10.390627,-10.52734 10.390627,-10.52734 0,0 -0.205079,-11.62109 -0.205079,-11.62109 0,0 5.332032,-6.2207 5.332032,-6.2207 0,0 -23.994142,0.20507 -23.994142,0.20507 z"
       transform="translate(-0.47851562,0.06835937)" />
    <rect
       style="opacity:1;fill:#9ba9c3;fill-opacity:0.98969074;stroke:#090a0e;stroke-width:0;stroke-linecap:round;stroke-linejoin:round;stroke-miterlimit:6.5999999;stroke-dasharray:none;stroke-dashoffset:0;stroke-opacity:1;paint-order:normal"
       id="rect5003"
       width="35.963009"
       height="11.214272"
       x="19.114418"
       y="277.47964"
       rx="0.048337258"
       ry="0.96289021" />
    <text
       xml:space="preserve"
       style="font-style:normal;font-variant:normal;font-weight:bold;font-stretch:normal;font-size:2.64636254px;line-height:1.25;font-family:'고딕체';-inkscape-font-specification:'고딕체, Bold';font-variant-ligatures:normal;font-variant-caps:normal;font-variant-numeric:normal;font-feature-settings:normal;text-align:start;letter-spacing:0px;word-spacing:0px;writing-mode:lr-tb;text-anchor:start;fill:#000000;fill-opacity:1;stroke:none;stroke-width:0.06598453"
       x="117.89806"
       y="273.0502"
       id="text56"
       transform="scale(0.96270399,1.0387409)"><tspan
         sodipodi:role="line"
         id="tspan54"
         x="117.89806"
         y="273.0502"
         style="font-style:normal;font-variant:normal;font-weight:bold;font-stretch:normal;font-size:2.64636254px;font-family:'고딕체';-inkscape-font-specification:'고딕체, Bold';font-variant-ligatures:normal;font-variant-caps:normal;font-variant-numeric:normal;font-feature-settings:normal;text-align:start;writing-mode:lr-tb;text-anchor:start;stroke-width:0.06598453">1</tspan></text>
    <text
       xml:space="preserve"
       style="font-style:normal;font-variant:normal;font-weight:bold;font-stretch:normal;font-size:2.64636254px;line-height:1.25;font-family:'고딕체';-inkscape-font-specification:'고딕체, Bold';font-variant-ligatures:normal;font-variant-caps:normal;font-variant-numeric:normal;font-feature-settings:normal;text-align:start;letter-spacing:0px;word-spacing:0px;writing-mode:lr-tb;text-anchor:start;fill:#000000;fill-opacity:1;stroke:none;stroke-width:0.06598453"
       x="125.82745"
       y="273.06635"
       id="text56-9"
       transform="scale(0.96270398,1.0387409)"><tspan
         sodipodi:role="line"
         id="tspan54-0"
         x="125.82745"
         y="273.06635"
         style="font-style:normal;font-variant:normal;font-weight:bold;font-stretch:normal;font-size:2.64636254px;font-family:'고딕체';-inkscape-font-specification:'고딕체, Bold';font-variant-ligatures:normal;font-variant-caps:normal;font-variant-numeric:normal;font-feature-settings:normal;text-align:start;writing-mode:lr-tb;text-anchor:start;stroke-width:0.06598453">2</tspan></text>
    <text
       xml:space="preserve"
       style="font-style:normal;font-variant:normal;font-weight:bold;font-stretch:normal;font-size:2.64636254px;line-height:1.25;font-family:'고딕체';-inkscape-font-specification:'고딕체, Bold';font-variant-ligatures:normal;font-variant-caps:normal;font-variant-numeric:normal;font-feature-settings:normal;text-align:start;letter-spacing:0px;word-spacing:0px;writing-mode:lr-tb;text-anchor:start;fill:#000000;fill-opacity:1;stroke:none;stroke-width:0.06598453"
       x="133.81949"
       y="273.04761"
       id="text56-9-1-2"
       transform="scale(0.96270398,1.0387409)"><tspan
         sodipodi:role="line"
         id="tspan54-0-3-1"
         x="133.81949"
         y="273.04761"
         style="font-style:normal;font-variant:normal;font-weight:bold;font-stretch:normal;font-size:2.64636254px;font-family:'고딕체';-inkscape-font-specification:'고딕체, Bold';font-variant-ligatures:normal;font-variant-caps:normal;font-variant-numeric:normal;font-feature-settings:normal;text-align:start;writing-mode:lr-tb;text-anchor:start;stroke-width:0.06598453">3</tspan></text>
    <text
       xml:space="preserve"
       style="font-style:normal;font-variant:normal;font-weight:bold;font-stretch:normal;font-size:2.64636254px;line-height:1.25;font-family:'고딕체';-inkscape-font-specification:'고딕체, Bold';font-variant-ligatures:normal;font-variant-caps:normal;font-variant-numeric:normal;font-feature-settings:normal;text-align:start;letter-spacing:0px;word-spacing:0px;writing-mode:lr-tb;text-anchor:start;fill:#000000;fill-opacity:1;stroke:none;stroke-width:0.06598453"
       x="141.75467"
       y="273.04501"
       id="text56-9-1-2-6"
       transform="scale(0.96270398,1.0387409)"><tspan
         sodipodi:role="line"
         id="tspan54-0-3-1-1"
         x="141.75467"
         y="273.04501"
         style="font-style:normal;font-variant:normal;font-weight:bold;font-stretch:normal;font-size:2.64636254px;font-family:'고딕체';-inkscape-font-specification:'고딕체, Bold';font-variant-ligatures:normal;font-variant-caps:normal;font-variant-numeric:normal;font-feature-settings:normal;text-align:start;writing-mode:lr-tb;text-anchor:start;stroke-width:0.06598453">4</tspan></text>
    <text
       xml:space="preserve"
       style="font-style:normal;font-variant:normal;font-weight:bold;font-stretch:normal;font-size:2.64636254px;line-height:1.25;font-family:'고딕체';-inkscape-font-specification:'고딕체, Bold';font-variant-ligatures:normal;font-variant-caps:normal;font-variant-numeric:normal;font-feature-settings:normal;text-align:start;letter-spacing:0px;word-spacing:0px;writing-mode:lr-tb;text-anchor:start;fill:#000000;fill-opacity:1;stroke:none;stroke-width:0.06598453"
       x="157.8623"
       y="273.02759"
       id="text56-9-1-2-6-3"
       transform="scale(0.96270398,1.0387409)"><tspan
         sodipodi:role="line"
         id="tspan54-0-3-1-1-0"
         x="157.8623"
         y="273.02759"
         style="font-style:normal;font-variant:normal;font-weight:bold;font-stretch:normal;font-size:2.64636254px;font-family:'고딕체';-inkscape-font-specification:'고딕체, Bold';font-variant-ligatures:normal;font-variant-caps:normal;font-variant-numeric:normal;font-feature-settings:normal;text-align:start;writing-mode:lr-tb;text-anchor:start;stroke-width:0.06598453">5</tspan></text>
    <text
       xml:space="preserve"
       style="font-style:normal;font-variant:normal;font-weight:bold;font-stretch:normal;font-size:2.64636254px;line-height:1.25;font-family:'고딕체';-inkscape-font-specification:'고딕체, Bold';font-variant-ligatures:normal;font-variant-caps:normal;font-variant-numeric:normal;font-feature-settings:normal;text-align:start;letter-spacing:0px;word-spacing:0px;writing-mode:lr-tb;text-anchor:start;fill:#000000;fill-opacity:1;stroke:none;stroke-width:0.06598453"
       x="165.80008"
       y="273.04565"
       id="text56-9-1-2-6-6"
       transform="scale(0.96270398,1.0387409)"><tspan
         sodipodi:role="line"
         id="tspan54-0-3-1-1-5"
         x="165.80008"
         y="273.04565"
         style="font-style:normal;font-variant:normal;font-weight:bold;font-stretch:normal;font-size:2.64636254px;font-family:'고딕체';-inkscape-font-specification:'고딕체, Bold';font-variant-ligatures:normal;font-variant-caps:normal;font-variant-numeric:normal;font-feature-settings:normal;text-align:start;writing-mode:lr-tb;text-anchor:start;stroke-width:0.06598453">6</tspan></text>
    <text
       xml:space="preserve"
       style="font-style:normal;font-variant:normal;font-weight:bold;font-stretch:normal;font-size:2.64636254px;line-height:1.25;font-family:'고딕체';-inkscape-font-specification:'고딕체, Bold';font-variant-ligatures:normal;font-variant-caps:normal;font-variant-numeric:normal;font-feature-settings:normal;text-align:start;letter-spacing:0px;word-spacing:0px;writing-mode:lr-tb;text-anchor:start;fill:#000000;fill-opacity:1;stroke:none;stroke-width:0.06598453"
       x="173.74239"
       y="273.04761"
       id="text56-9-1-2-6-07"
       transform="scale(0.96270398,1.0387409)"><tspan
         sodipodi:role="line"
         id="tspan54-0-3-1-1-58"
         x="173.74239"
         y="273.04761"
         style="font-style:normal;font-variant:normal;font-weight:bold;font-stretch:normal;font-size:2.64636254px;font-family:'고딕체';-inkscape-font-specification:'고딕체, Bold';font-variant-ligatures:normal;font-variant-caps:normal;font-variant-numeric:normal;font-feature-settings:normal;text-align:start;writing-mode:lr-tb;text-anchor:start;stroke-width:0.06598453">7</tspan></text>
    <text
       xml:space="preserve"
       style="font-style:normal;font-variant:normal;font-weight:bold;font-stretch:normal;font-size:2.64636254px;line-height:1.25;font-family:'고딕체';-inkscape-font-specification:'고딕체, Bold';font-variant-ligatures:normal;font-variant-caps:normal;font-variant-numeric:normal;font-feature-settings:normal;text-align:start;letter-spacing:0px;word-spacing:0px;writing-mode:lr-tb;text-anchor:start;fill:#000000;fill-opacity:1;stroke:none;stroke-width:0.06598453"
       x="181.69502"
       y="273.04761"
       id="text56-9-1-2-6-37"
       transform="scale(0.96270398,1.0387409)"><tspan
         sodipodi:role="line"
         id="tspan54-0-3-1-1-1"
         x="181.69502"
         y="273.04761"
         style="font-style:normal;font-variant:normal;font-weight:bold;font-stretch:normal;font-size:2.64636254px;font-family:'고딕체';-inkscape-font-specification:'고딕체, Bold';font-variant-ligatures:normal;font-variant-caps:normal;font-variant-numeric:normal;font-feature-settings:normal;text-align:start;writing-mode:lr-tb;text-anchor:start;stroke-width:0.06598453">8</tspan></text>
    <text
       xml:space="preserve"
       style="font-style:normal;font-variant:normal;font-weight:bold;font-stretch:normal;font-size:2.64636254px;line-height:1.25;font-family:'고딕체';-inkscape-font-specification:'고딕체, Bold';font-variant-ligatures:normal;font-variant-caps:normal;font-variant-numeric:normal;font-feature-settings:normal;text-align:start;letter-spacing:0px;word-spacing:0px;writing-mode:lr-tb;text-anchor:start;fill:#000000;fill-opacity:1;stroke:none;stroke-width:0.06598453"
       x="196.24623"
       y="273.04825"
       id="text56-1"
       transform="scale(0.96270398,1.0387409)"><tspan
         sodipodi:role="line"
         id="tspan54-7"
         x="196.24623"
         y="273.04825"
         style="font-style:normal;font-variant:normal;font-weight:bold;font-stretch:normal;font-size:2.64636254px;font-family:'고딕체';-inkscape-font-specification:'고딕체, Bold';font-variant-ligatures:normal;font-variant-caps:normal;font-variant-numeric:normal;font-feature-settings:normal;text-align:start;writing-mode:lr-tb;text-anchor:start;stroke-width:0.06598453">9</tspan></text>
    <text
       xml:space="preserve"
       style="font-style:normal;font-variant:normal;font-weight:bold;font-stretch:normal;font-size:2.64636254px;line-height:1.25;font-family:'고딕체';-inkscape-font-specification:'고딕체, Bold';font-variant-ligatures:normal;font-variant-caps:normal;font-variant-numeric:normal;font-feature-settings:normal;text-align:start;letter-spacing:0px;word-spacing:0px;writing-mode:lr-tb;text-anchor:start;fill:#000000;fill-opacity:1;stroke:none;stroke-width:0.06598453"
       x="202.98215"
       y="273.04697"
       id="text56-9-1"
       transform="scale(0.96270398,1.0387409)"><tspan
         sodipodi:role="line"
         id="tspan54-0-6"
         x="202.98215"
         y="273.04697"
         style="font-style:normal;font-variant:normal;font-weight:bold;font-stretch:normal;font-size:2.64636254px;font-family:'고딕체';-inkscape-font-specification:'고딕체, Bold';font-variant-ligatures:normal;font-variant-caps:normal;font-variant-numeric:normal;font-feature-settings:normal;text-align:start;writing-mode:lr-tb;text-anchor:start;stroke-width:0.06598453">10</tspan></text>
    <text
       xml:space="preserve"
       style="font-style:normal;font-variant:normal;font-weight:bold;font-stretch:normal;font-size:2.64636254px;line-height:1.25;font-family:'고딕체';-inkscape-font-specification:'고딕체, Bold';font-variant-ligatures:normal;font-variant-caps:normal;font-variant-numeric:normal;font-feature-settings:normal;text-align:start;letter-spacing:0px;word-spacing:0px;writing-mode:lr-tb;text-anchor:start;fill:#000000;fill-opacity:1;stroke:none;stroke-width:0.06598453"
       x="211.38153"
       y="273.0502"
       id="text56-9-1-2-2"
       transform="scale(0.96270398,1.0387409)"><tspan
         sodipodi:role="line"
         id="tspan54-0-3-1-4"
         x="211.38153"
         y="273.0502"
         style="font-style:normal;font-variant:normal;font-weight:bold;font-stretch:normal;font-size:2.64636254px;font-family:'고딕체';-inkscape-font-specification:'고딕체, Bold';font-variant-ligatures:normal;font-variant-caps:normal;font-variant-numeric:normal;font-feature-settings:normal;text-align:start;writing-mode:lr-tb;text-anchor:start;stroke-width:0.06598453">11</tspan></text>
    <text
       xml:space="preserve"
       style="font-style:normal;font-variant:normal;font-weight:bold;font-stretch:normal;font-size:2.64636254px;line-height:1.25;font-family:'고딕체';-inkscape-font-specification:'고딕체, Bold';font-variant-ligatures:normal;font-variant-caps:normal;font-variant-numeric:normal;font-feature-settings:normal;text-align:start;letter-spacing:0px;word-spacing:0px;writing-mode:lr-tb;text-anchor:start;fill:#000000;fill-opacity:1;stroke:none;stroke-width:0.06598453"
       x="219.11629"
       y="273.06635"
       id="text56-9-1-2-6-67"
       transform="scale(0.96270398,1.0387409)"><tspan
         sodipodi:role="line"
         id="tspan54-0-3-1-1-19"
         x="219.11629"
         y="273.06635"
         style="font-style:normal;font-variant:normal;font-weight:bold;font-stretch:normal;font-size:2.64636254px;font-family:'고딕체';-inkscape-font-specification:'고딕체, Bold';font-variant-ligatures:normal;font-variant-caps:normal;font-variant-numeric:normal;font-feature-settings:normal;text-align:start;writing-mode:lr-tb;text-anchor:start;stroke-width:0.06598453">12</tspan></text>
    <rect
       style="opacity:1;fill:#ffdd55;fill-opacity:0.98969074;stroke:#090a0e;stroke-width:0;stroke-linecap:round;stroke-linejoin:round;stroke-miterlimit:6.5999999;stroke-dasharray:none;stroke-dashoffset:0;stroke-opacity:1;paint-order:normal"
       id="rect5003-1"
       width="35.963009"
       height="7.659584"
       x="54.54826"
       y="269.29089"
       rx="0.048337258"
       ry="0.65767431" />
    <text
       xml:space="preserve"
       style="font-style:normal;font-weight:normal;font-size:7.48947477px;line-height:1.25;font-family:sans-serif;letter-spacing:0px;word-spacing:0px;fill:#000000;fill-opacity:1;stroke:none;stroke-width:0.26458332"
       x="58.121006"
       y="271.96292"
       id="text3853"
       transform="scale(0.98845006,1.0116849)"><tspan
         sodipodi:role="line"
         id="tspan3851"
         x="58.121006"
         y="271.96292"
         style="font-size:5.64444447px;stroke-width:0.26458332">4단계_UTM</tspan></text>
    <text
       xml:space="preserve"
       style="font-style:normal;font-weight:normal;font-size:10.58333302px;line-height:1.25;font-family:sans-serif;letter-spacing:0px;word-spacing:0px;fill:#e3dedb;fill-opacity:1;stroke:none;stroke-width:0.26458332"
       x="8.6437492"
       y="275.65417"
       id="text3857"><tspan
         sodipodi:role="line"
         id="tspan3855"
         x="8.6437492"
         y="275.65417"
         style="font-size:7.05555556px;fill:#e3dedb;stroke-width:0.26458332;-inkscape-font-specification:'Tahoma, Bold';font-family:Tahoma;font-weight:bold;font-style:normal;font-stretch:normal;font-variant:normal;text-anchor:start;text-align:start;writing-mode:lr;font-variant-ligatures:normal;font-variant-caps:normal;font-variant-numeric:normal;font-feature-settings:normal">SECUI</tspan></text>
    <path
       style="opacity:1;fill:#fdfdf1;fill-opacity:0.96649487;stroke:#000000;stroke-width:0.40000001;stroke-linecap:round;stroke-linejoin:round;stroke-miterlimit:6.5999999;stroke-dasharray:none;stroke-dashoffset:0;stroke-opacity:0.97938143;paint-order:normal"
       d="m 112.63348,286.45264 v 0.91538 h -1.70894 v 4.39318 h 7.04091 v -4.39318 h -1.77715 v -0.91538 z"
       id="rect4530-1-8-5"
       inkscape:connector-curvature="0" />
    <path
       style="opacity:1;fill:#fdfdf1;fill-opacity:0.96649487;stroke:#000000;stroke-width:0.40000001;stroke-linecap:round;stroke-linejoin:round;stroke-miterlimit:6.5999999;stroke-dasharray:none;stroke-dashoffset:0;stroke-opacity:0.97938143;paint-order:normal"
       d="m 120.27542,286.45264 v 0.91538 h -1.70894 v 4.39318 h 7.04091 v -4.39318 h -1.77715 v -0.91538 z"
       id="rect4530-9-7-2"
       inkscape:connector-curvature="0" />
    <path
       style="opacity:1;fill:#fdfdf1;fill-opacity:0.96649487;stroke:#000000;stroke-width:0.40000001;stroke-linecap:round;stroke-linejoin:round;stroke-miterlimit:6.5999999;stroke-dasharray:none;stroke-dashoffset:0;stroke-opacity:0.97938143;paint-order:normal"
       d="m 127.91695,286.45264 v 0.91538 h -1.70894 v 4.39318 h 7.04092 v -4.39318 h -1.77715 v -0.91538 z"
       id="rect4530-5-8-7"
       inkscape:connector-curvature="0" />
    <path
       style="opacity:1;fill:#fdfdf1;fill-opacity:0.96649487;stroke:#000000;stroke-width:0.40000001;stroke-linecap:round;stroke-linejoin:round;stroke-miterlimit:6.5999999;stroke-dasharray:none;stroke-dashoffset:0;stroke-opacity:0.97938143;paint-order:normal"
       d="m 135.55886,286.45264 v 0.91538 h -1.70893 v 4.39318 h 7.04091 v -4.39318 h -1.77714 v -0.91538 z"
       id="rect4530-0-6-9"
       inkscape:connector-curvature="0" />
    <path
       style="opacity:1;fill:#fdfdf1;fill-opacity:0.96649487;stroke:#000000;stroke-width:0.40000001;stroke-linecap:round;stroke-linejoin:round;stroke-miterlimit:6.5999999;stroke-dasharray:none;stroke-dashoffset:0;stroke-opacity:0.97938143;paint-order:normal"
       d="m 151.0842,286.45264 v 0.91538 h -1.70893 v 4.39318 h 7.0409 v -4.39318 h -1.77715 v -0.91538 z"
       id="rect4530-1-8-5-7"
       inkscape:connector-curvature="0" />
    <path
       style="opacity:1;fill:#fdfdf1;fill-opacity:0.96649487;stroke:#000000;stroke-width:0.40000001;stroke-linecap:round;stroke-linejoin:round;stroke-miterlimit:6.5999999;stroke-dasharray:none;stroke-dashoffset:0;stroke-opacity:0.97938143;paint-order:normal"
       d="m 158.72614,286.45264 v 0.91538 h -1.70894 v 4.39318 h 7.04091 v -4.39318 h -1.77715 v -0.91538 z"
       id="rect4530-9-7-2-5"
       inkscape:connector-curvature="0" />
    <path
       style="opacity:1;fill:#fdfdf1;fill-opacity:0.96649487;stroke:#000000;stroke-width:0.40000001;stroke-linecap:round;stroke-linejoin:round;stroke-miterlimit:6.5999999;stroke-dasharray:none;stroke-dashoffset:0;stroke-opacity:0.97938143;paint-order:normal"
       d="m 166.36767,286.45264 v 0.91538 h -1.70894 v 4.39318 h 7.04092 v -4.39318 h -1.77715 v -0.91538 z"
       id="rect4530-5-8-7-7"
       inkscape:connector-curvature="0" />
    <path
       style="opacity:1;fill:#fdfdf1;fill-opacity:0.96649487;stroke:#000000;stroke-width:0.40000001;stroke-linecap:round;stroke-linejoin:round;stroke-miterlimit:6.5999999;stroke-dasharray:none;stroke-dashoffset:0;stroke-opacity:0.97938143;paint-order:normal"
       d="m 174.00958,286.45264 v 0.91538 h -1.70893 v 4.39318 h 7.04091 v -4.39318 h -1.77714 v -0.91538 z"
       id="rect4530-0-6-9-4"
       inkscape:connector-curvature="0" />
    <path
       inkscape:connector-curvature="0"
       style="opacity:1;fill:#fdfdf1;fill-opacity:0.96649487;stroke:#000000;stroke-width:0.40000001;stroke-linecap:round;stroke-linejoin:round;stroke-miterlimit:6.5999999;stroke-dasharray:none;stroke-dashoffset:0;stroke-opacity:0.97938143;paint-order:normal"
       d="m 186.19777,286.76686 v 4.68011 h 3.48292 v -0.59341 h 0.40241 v 0.59341 h 3.48292 v -4.68011 h -3.48292 v 0.51644 h -0.40241 v -0.51644 z"
       id="rect4648-0-4-7" />
    <path
       inkscape:connector-curvature="0"
       style="opacity:1;fill:#fdfdf1;fill-opacity:0.96649487;stroke:#000000;stroke-width:0.40000001;stroke-linecap:round;stroke-linejoin:round;stroke-miterlimit:6.5999999;stroke-dasharray:none;stroke-dashoffset:0;stroke-opacity:0.97938143;paint-order:normal"
       d="m 194.04551,286.76686 v 4.68011 h 3.48291 v -0.59341 h 0.40241 v 0.59341 h 3.48291 v -4.68011 h -3.48291 v 0.51644 h -0.40241 v -0.51644 z"
       id="rect4648-5-8-3" />
    <a
       id="a140"
       transform="translate(1.0583333,-0.52916667)">
      <path
         id="rect4648-0-4-7-4"
         d="m 200.88457,287.29603 v 4.68011 h 3.48292 v -0.59341 h 0.40241 v 0.59341 h 3.48292 v -4.68011 h -3.48292 v 0.51644 h -0.40241 v -0.51644 z"
         style="opacity:1;fill:#fdfdf1;fill-opacity:0.96649487;stroke:#000000;stroke-width:0.40000001;stroke-linecap:round;stroke-linejoin:round;stroke-miterlimit:6.5999999;stroke-dasharray:none;stroke-dashoffset:0;stroke-opacity:0.97938143;paint-order:normal"
         inkscape:connector-curvature="0" />
    </a>
    <path
       inkscape:connector-curvature="0"
       style="opacity:1;fill:#fdfdf1;fill-opacity:0.96649487;stroke:#000000;stroke-width:0.40000001;stroke-linecap:round;stroke-linejoin:round;stroke-miterlimit:6.5999999;stroke-dasharray:none;stroke-dashoffset:0;stroke-opacity:0.97938143;paint-order:normal"
       d="m 209.79065,286.76686 v 4.68011 h 3.48291 v -0.59341 h 0.40241 v 0.59341 h 3.48291 v -4.68011 h -3.48291 v 0.51644 h -0.40241 v -0.51644 z"
       id="rect4648-5-8-3-7" />
    <path
       id="path3877"
       d="m 73.658463,291.00092 c 0,0.4445 -0.359831,0.80433 -0.804328,0.80433 -0.444496,0 -0.804327,-0.35983 -0.804327,-0.80433 0,-0.44449 0.359831,-0.78316 0.804327,-0.78316 0.444497,0 0.804328,0.33867 0.804328,0.78316 z"
       style="fill:#cccccc;fill-opacity:1;fill-rule:nonzero;stroke:none;stroke-width:0.26458332"
       inkscape:connector-curvature="0" />
    <path
       id="path3879"
       d="m 74.716797,291.53009 c 0,0.4445 -0.359831,0.80433 -0.804328,0.80433 -0.444496,0 -0.804327,-0.35983 -0.804327,-0.80433 0,-0.44449 0.359831,-0.78316 0.804327,-0.78316 0.444497,0 0.804328,0.33867 0.804328,0.78316 z"
       style="fill:none;stroke:none;stroke-width:0.26458332"
       inkscape:connector-curvature="0" />
    <path
       id="path3901"
       d="m 73.658463,285.85747 c 0,0.44449 -0.359831,0.80432 -0.804328,0.80432 -0.444496,0 -0.804327,-0.35983 -0.804327,-0.80432 0,-0.4445 0.359831,-0.80433 0.804327,-0.80433 0.444497,0 0.804328,0.35983 0.804328,0.80433 z"
       style="fill:#06f620;fill-opacity:1;fill-rule:nonzero;stroke:none;stroke-width:0.26458332"
       inkscape:connector-curvature="0" />
    <path
       id="path3903"
       d="m 74.716797,285.85747 c 0,0.44449 -0.359831,0.80432 -0.804328,0.80432 -0.444496,0 -0.804327,-0.35983 -0.804327,-0.80432 0,-0.4445 0.359831,-0.80433 0.804327,-0.80433 0.444497,0 0.804328,0.35983 0.804328,0.80433 z"
       style="fill:none;stroke:none;stroke-width:0.26458332"
       inkscape:connector-curvature="0" />
    <text
       xml:space="preserve"
       style="font-style:normal;font-weight:normal;font-size:10.58333302px;line-height:1.25;font-family:sans-serif;letter-spacing:0px;word-spacing:0px;fill:#000000;fill-opacity:1;stroke:none;stroke-width:0.26458332"
       x="64.53125"
       y="287.15625"
       id="text3964"><tspan
         sodipodi:role="line"
         id="tspan3962"
         x="64.53125"
         y="287.15625"
         style="font-size:2.82222223px;fill:#ffffff;stroke-width:0.26458332">PWR</tspan></text>
    <text
       xml:space="preserve"
       style="font-style:normal;font-weight:normal;font-size:10.58333302px;line-height:1.25;font-family:sans-serif;letter-spacing:0px;word-spacing:0px;fill:#000000;fill-opacity:1;stroke:none;stroke-width:0.26458332"
       x="64.53125"
       y="291.91882"
       id="text3964-0"><tspan
         sodipodi:role="line"
         id="tspan3962-8"
         x="64.53125"
         y="291.91882"
         style="font-size:2.82222223px;fill:#ffffff;stroke-width:0.26458332">HDD</tspan></text>
    <path
       style="opacity:1;fill:#fdfdf1;fill-opacity:0.96649487;stroke:#000000;stroke-width:0.40000001;stroke-linecap:round;stroke-linejoin:round;stroke-miterlimit:6.5999999;stroke-dasharray:none;stroke-dashoffset:0;stroke-opacity:0.97938143;paint-order:normal"
       d="m 100.76295,278.58273 v 0.91538 h -1.708934 v 4.39318 h 7.040904 v -4.39318 h -1.77715 v -0.91538 z"
       id="rect4530-1-8-5-74"
       inkscape:connector-curvature="0" />
    <path
       style="opacity:1;fill:#fdfdf1;fill-opacity:0.96649487;stroke:#000000;stroke-width:0.40000001;stroke-linecap:round;stroke-linejoin:round;stroke-miterlimit:6.5999999;stroke-dasharray:none;stroke-dashoffset:0;stroke-opacity:0.97938143;paint-order:normal"
       d="m 89.87859,286.39833 v 0.91538 h -1.70894 v 4.39318 h 7.04091 v -4.39318 h -1.77715 v -0.91538 z"
       id="rect4530-1-8-5-4"
       inkscape:connector-curvature="0" />
    <rect
       style="opacity:1;fill:#1a1a1a;fill-opacity:0.98969074;stroke:#090a0e;stroke-width:0;stroke-linecap:round;stroke-linejoin:round;stroke-miterlimit:6.5999999;stroke-dasharray:none;stroke-dashoffset:0;stroke-opacity:1;paint-order:normal"
       id="rect5003-5"
       width="8.2613115"
       height="3.8314586"
       x="98.653923"
       y="284.42047"
       rx="0.011103887"
       ry="0.32898027" />
    <rect
       style="fill:#b3b3b3;stroke-width:0.26458332"
       id="rect4022"
       width="5.3576298"
       height="1.19933"
       x="100.15279"
       y="285.80969"
       rx="0.0072011002"
       ry="0.10297798" />
    <rect
       style="opacity:1;fill:#1a1a1a;fill-opacity:0.98969074;stroke:#090a0e;stroke-width:0;stroke-linecap:round;stroke-linejoin:round;stroke-miterlimit:6.5999999;stroke-dasharray:none;stroke-dashoffset:0;stroke-opacity:1;paint-order:normal"
       id="rect5003-5-8"
       width="8.2613115"
       height="3.8314586"
       x="98.653923"
       y="288.25192"
       rx="0.011103887"
       ry="0.3289803" />
    <rect
       style="fill:#b3b3b3;stroke-width:0.26458332"
       id="rect4022-4"
       width="5.3576298"
       height="1.1993301"
       x="100.15279"
       y="289.64114"
       rx="0.0072011002"
       ry="0.10297798" />
  </g>
</svg>
